<?xml version="1.0" encoding="UTF-8"?>
<svg id="Layer_1" data-name="Layer 1" xmlns="http://www.w3.org/2000/svg" viewBox="0 0 1779 1334">
  <defs>
    <style>
      .cls-1 {
        fill: #7c8fed;
      }

      .cls-2 {
        fill: #3552e3;
      }

      .cls-3 {
        fill: #3150e3;
      }

      .cls-4 {
        fill: #f4ddfe;
      }

      .cls-5 {
        fill: #bdc7f5;
      }

      .cls-6 {
        fill: #5e76e9;
      }

      .cls-7 {
        fill: #f4dcfe;
      }

      .cls-8 {
        fill: #cfd5f8;
      }

      .cls-9 {
        fill: #f5ddfe;
      }

      .cls-10 {
        fill: #2d4be2;
      }

      .cls-11 {
        fill: #2d4ce2;
      }

      .cls-12 {
        fill: #f6e3fe;
      }

      .cls-13 {
        fill: #91a1ef;
      }

      .cls-14 {
        fill: #cad1f7;
      }

      .cls-15 {
        fill: #f4dbfe;
      }

      .cls-16 {
        fill: #3755e4;
      }

      .cls-17 {
        fill: #d4daf8;
      }

      .cls-18 {
        fill: #798cec;
      }
    </style>
  </defs>
  <path class="cls-10" d="M750,226c1.852-4.111,4.893-7.535,9.121-10.273.847-4.495,2.765-6.534,5.754-6.116,1.207-7.524,6.901-8.907,8.953-.424-.684,13.029-2.355,25.184-5.643,37.875,1.794,2.567,3.034,4.9,3.224,8.132,2.18-4.959,5.144-7.478,8.892-7.556,4.79-16.748,9.18-33.339,7.709-51.11.969-8.349,3.845-21.104,13.032-23.836,5.068-1.507,8.924,1.984,5.543,6.768,9.13-.726,4.683,5.355-.065,9.927l-5.09,6.954c7.189-.44,4.359,4.969,1.678,8.894,8.075-1.835,7.921,1.981-.463,11.445.331,4.308.173,8.395-.474,12.262,2.287,2.39,2.16,5.987-.379,10.788,10.15-2.796,6.64,6.9,4.138,13.007,3.508.496,8.281,4.178,4.587,7.516-6.027.115-5.266,3.135-.381,5.541-.877,1.936-.284,3.157,1.777,3.661-.715,2.32-.402,4.722.939,7.206-4.774,4.171-.186,4.466,13.763.887,14.582-3.901,29.052-6.38,43.41-7.436,5.665-5.653,12.095-8.939,16.479-.364,15.886.281,31.589,3.697,45.8,10.23,1.546,4.814,2.37,4.371,5.157.798,7.636.52,3.784,8.022-.584,11.116,1.898.718,11.603,11.471,11.687,12.32.427,4.279-3.001,21.612-4.673,25.988-1.41,3.693-13.658,27.019-17.554,27.845-5.957,1.264-4.494-5.861-3.152-9.708,4.189-9.203,8.199-18.373,12.03-27.512,3.314,1.38,4.821-.365,4.52-5.234-9.103,4.591-6.401-5.244-1.334-9.239-1.619.9-3.19.621-4.272-.894-1.112-7.11-3.665-13.419-9.401-17.911,8.675,8.492,1.046,12.454-7.185,6.104-2.115-.947-4.528-1.302-6.31.331,4.527,1.981,8.672,4.986,4.715,9.869,15.934,9.001,2.359,18.923-9.331,10.444-6.264.354-12.566,2.25-18.905,5.688-7.069,2.414-13.139-.376-15.337-7.53l-1.274,3.074c2.289,4.528-.298,7.233-7.762,8.116.519,3.508-.627,5.095-3.439,4.762.376,11.966-7.072,10.422-7.466-.513-3.699-3.961-5.221-2.969-4.564,2.975l-4.572,1.023c-4.601,4.056-8.033,2.76-10.297-3.889q-3.041-5.335,0,0l2.808,4.76c3.39,2.321,9.301,13.521,1.353,12.185-2.141-.36-18.718-26.833-16.952-31.921l.66-1.43c-11-2.394-11.34,2.776-9.802,11.989-3.555,12.768-2.045,23.987,4.53,33.657,4.149-3.518,6.912-.626,8.289,8.674,3.479.561,6.586,2.634,9.319,6.217,2.64-2.35,5.64-1.175,8.998,3.525-1.013-4.756,5.063-6.646,7.67-3.04,1.433,1.982.729,9.87-2.09,10.824,1.166,3.077,1.657,6.72-1.149,9.031-.48.054-7.794,5.91-7.711,6.443,2.427,2.345,3.235,4.568,2.425,6.668,4.202,1.711,5.311,5.494,3.327,11.348,4.867-1.724,5.907,1.572,6.429,5.711,1.908,1.006,2.914,2.31,3.133,4.444,4.064-1.063,5.424,1.426,3.817,4.876,3.231,3.478,4.237,5.127,5.832,9.325,1.466,3.86,3.312,9.697,3.429,14.236,2.364,3.588,5.18,6.092,8.448,7.511.333,5.82,3.068,10.497,8.205,14.031.984,6.882,4.278,10.732,9.881,11.55.6,3.198,2.134,6.266,4.602,9.204l2.364,5.657c4.904-1.575,6.52,2.097,6.033,6.467,3.921,1.204,6.606,3.461,8.588,7.077,8.465-.54,13.619,3.409,19.918,8.364,3.096.006,7.334,3.287,7.886,6.519,3.135.152,5.64,2.11,7.517,5.873,2.802-2.75,6.224-4.479,8.145.079,3.335.909,5.76.302,7.275-1.823l5.731-.871c3.385,1.404,6.813,1.334,10.283-.211,11.903,3.854,18.338,1.151,29.361-3.841,13.086-.516,23.97-4.431,32.65-11.745-2.618-6.48,3.692-6.445,7.491-2.652,2.194-3.383,5.673-5.663,10.436-6.842,4.14-5.637,8.458-7.871,12.954-6.703,13.741-15.534,6.019,11.784-.185,12.11-2.649-1.861-7.651.515-5.716,3.793-5.968,5.97-12.5,10.549-19.595,13.737l-.959,1.373c3.643,5.217-3.674,10.247-8.188,7.186-1.22,2.055-2.988,2.683-5.095,3.368.64.395.643,7.192.48,7.571-.988,2.312-1.562,3.224-4.002,4.27,3.7,5.649-3.03,14.447-9.581,11.355-1.76,3.231-5.112,5.114-10.057,5.649-5.121,5.012-10.537,7.26-16.249,6.745l-2.376,3.315c1.741,8.169-4.953,9.671-7.166,1.757-.38-.158-7.183-.362-8.131.012-1.547,3.126-3.988,3.07-6.551,1.161.066,6.983-6.177,9.615-6.326,1.373-2.115,3.24-4.507,4.803-7.176,4.688-1.423,2.774-4.616,3.222-6.896,1.21l-2.637,6.716c4.892,1.678,9.346,8.735,10.952,13.638,3.669-3.555,7.726-1.693,8.893,2.957,3.256,1.013,5.082,2.629,5.479,4.847q3.771,1.792,0,0c-2.344-1.07-2.553-3.7-.728-5.431,4.542-4.309,10.808,2.76,11.341,7.548,6.506-5.266,11.598.9,4.105,5.409-4.079,2.88,4.799-4.977,5.475-5.336,2.691-1.429,7.905,5.67,7.867,8.008-.028,1.722-5.249,6.598-7.213,5.861-.637,7.695-8.42,13.904-16.101,12.542,4.572,4.43,1.352,6.273-3.688,5.918-4.747-.343-10.259-.103-8.34,5.955,5.518,1.912,3.705,12.899-2.41,8.226-2.649,3.72-6.44,2.228-6.722-2.17l-2.947-.788c-2.273-3.923-6.194-6.04-10.558-7.277,5.541,9.417,13.14,17.887,21.445,25.089.459,8.454-8.088,2.625-12.024-.515-9.587-7.649-17.002-18.485-23.58-28.773-13.284-20.777-22.58-43.518-31.529-66.782-1.192,22.751-1.443,45.642,2.843,68.086l13.909,87.145c6.679-16.597,19.542-28.339,34.016-38.335,12.959-8.949,24.292-15.316,35.173.678l11.657,9.614c15.557-36.262,34.6-71.167,54.087-104.937,9.328-19.839,19.614-39.162,30.859-57.969,14.422-27.287,27.771-53.473,17.045-84.117-1.297-10.344,2.395-21.163,6.708-30.339-.72-3.248.25-4.95,2.911-5.105,7.006,4.242,14.39,6.985,22.152,8.231l.246,2.564c4.9,1.982,5.859,3.371,1.084,7.599l-12.875,12.267c-3.017,2.903-2.087,6.948,2.791,12.133,13.026,18.785,27.668,27.859,45.917,40.583,3.233,2.254,6.667,6.733,10.171,8.829,10.111,6.051,26.491,10.801,37.785,16.215,31.158,14.936,59.828,32.332,89.622,49.378,9.016,5.158,18.042,7.794,26.837,14.163,10.462,7.575,18.545,22.85,32.288,23.794,3.29.226,5.231-1.704,7.842-1.795,3.777-.132,7.104,2.638,10.025,2.918,4.588.441,7.521-3.064,12.961-2.039,1.74.328,2.87,1.904,5.048,2.054,3.575.246,6.605-3.051,10.504-2.106v705.004s-228.999,0-228.999,0c-3.141-.434-2.468-6.175-.68-7.912,4.1-.687,3.415-2.533-2.054-5.538-1.466-5.989-1.259-12.121.621-18.394-.991-3.725-.016-6.189,4.344-5.405-2.322-27.424-7.037-55.092-17.679-80.619-4.526-10.855-12.028-28.831-25.8-28.193,1.474,3.176.74,6.454-3.23,4.999-5.251-4.887-7.629-6.016-11.373.222,12.927,13.018,18.706,31.656,23.58,49.086l9.766,42.262c5.276-.105,4.635,4.356,1.299,7.023-.115,3.76.939,7.599,3.163,11.515l-1.047,2.339c3.928,2.251,3.538,10.117-.816,11.496,5.369,3.875,4.08,12.582.906,17.117h-26c-.682-.279-1.523-.63-1.692-1.288-.814-3.159,1.714-12.298,5.595-11.917,1.131-33.486-8.408-68.23-20.289-99.567-6.465-17.052-11.729-26.665-31.486-24.204-.702.087-7.455,3.178-7.336,3.579,5.436,4.952,9.059,12.211,12.138,18.939,11.379,24.867,17.265,52.317,22.831,78.924l-.822,7.282c4.093.11,6.674,3.256,3.023,6.004-1.478,1.113-.974-1.175.468,0,2.338,1.906,2.479,5.123.436,7.344,3.291,2.964,4.567,13.468.135,14.903h-27l-2.169-1.895.368-16.521c-1.301-9.614-1.428-7.72-.381,5.684.958,5.661.018,9.905-2.818,12.732h-8l-1.924-1.226c.902-13.137.005-26.214-2.689-39.23,1.34-1.509,2.738-1.78,4.193-.813l-2.044-11.087c-1.547-5.528-2.726-10.743-3.537-15.644-1.372-1.799-3.676.417-3.519,1.378,4.191,16.216,6.53,32.474,7.017,48.775,1.696,4.521,2.38,15.043-1.499,17.847h-197c-.668-3.058,8.634-6.975,11.568-7.718,1.396.559,6.906.361,7.593-.618.222-.316-.299-6.43-.757-7.043-1.419-4.621,1.592-6.958,9.032-7.009l8.832-4.489c-3.755-1.38-4.605-4.899-2.55-10.559-.378-1.918-2.742-3.48-7.094-4.685.107-4.585-1.38-9.101-6.348-5.37-7.852-.846-7.995-6.552-3.719-11.974l-2.102-2.614c.53-7.756.081-15.482-1.347-23.178l-3.283-2.566c-6.108,1.615-9.305.42-9.591-3.587-5.102,6.708-31.927,13.448-37.695,8.124-.881-4.855-10.738-9.624-14.852-7.644-4.515-16.441-10.597-32.446-18.245-48.015-4.882-2.931-7.375-8.037-7.48-15.318-1.441-2.024-2.381-3.634-1.275-6.224-3.03-4.386-6.216-8.753-9.558-13.101l-14.697-10.388c-1.441-1.36-1.504-3.152-.494-4.789-6.816-5.329-15.183-4.398-23.196-3.108-5.058,2.359-9.432,2.631-13.122.815-2.126,3.427-5.566,5.5-9.436,6.519-8.309.197-16.543.843-24.7,1.938-5.615,3.073-12.514,5.471-14.763-1.304-6.187,3.696-12.738,5.846-19.652,6.449l-2.74,1.768c-7.415,7.857-14.247,12.418-25.447,12.368-4.817,5.402-10.812,9.543-17.986,12.422-9.785,4.34-12.477,16.331-12.271,26.077.208,4.551-12.07,4.893-11.56.094,4.668-5.501,2.343-9.371-1.343-1.149-1.67,3.724-2.836,8.05-.42,11.748.371.567,13.94,3.995,9.177-1.142,1.653-7.042,6.507-2.401,7.367,2.619,3.54,3.606,6.646,7.321,8.956,11.842-1.632-8.131,11.896-19.024,18.407-19.842,2.641-.332,13.938,2.821,16.758,4.204,12.928-4.237,25.171,20.186,29.995,30.104,8.429,22.112,20.383,42.528,35.862,61.249,2.855,7.148,6.575,13.647,11.159,19.498,1.34,2.35,1.905,4.446-.984,5.596h-8c-3.702-1.757-8.929-7.268-11.271-10.808-17.78-26.881-31.897-52.696-43.828-81.67-3.176-4.466-11.693-4.89-13.902.712-5.775-.407-8.161,1.204-7.157,4.831-.51,1.297-10.732,11.233-11.85,11.598-2.587.843-10.185-2.155-10.896-5.396-4.264,1.826-9.008,2.119-14.23.878-2.336,3.295-5.413,6.208-7.945,1.097-.605.955-1.555,1.502-2.719,1.606-7.146-1.63-14.9-1.235-22.011.002l-1.886-1.285c-15.299,5.347-30.112,11.575-44.439,18.684-3.231,4.45-9.383,11.554-14.346,6.836-.897-.252-12.069,9.786-11.566,13.958.983,8.159,12.74,1.938,16.464-1.178,2.014,1.309,4.297,1.217,6.851-.275,4.326,2.794,6.87,3.337,11.517.594,10.887,3.523,19.395,1.654,30.039-2.443,21.675-2.937,43.413-5.373,65.216-7.308,10.118-2.028,16.844,9.72,3.87,9.551-5.598-.108-2.926,14.336-.19,14.863,6.969-1.421,6.196,3.205,2.959,7.333l4.696,5.471c10.112,1.755,19.871,4.843,29.275,9.263l1.349,3.086h-73c-.595-3.255,4.985-8.146,8.309-7.712,15.092,10.532,17.18,3.336,6.263-21.587-1.217-2.903-.34-5.757,1.043-8.406-15.806-1.001-33.991-.331-47.999,7.718-14.643,3.069-29.516,5.09-44.618,6.061-11.86.525-18.846,12.42-3.896,14.986,6.303-.859,10.386-.455,15.468,3.062,3.567-3.915,6.826-3.959,9.777-.133,4.86-1.276,7.25-.439,11.327,2.416,5.944-.938,8.72.26,8.328,3.595h-77c-4.645-7.267-11.434-13.051-16.431-20.069-6.872-9.65-10.188-20.465-17.571-29.429-2.443-2.966-5.059-3.99-7.998-8.502-4.479-8.057-6.703-16.337-6.669-24.841,4.093-8.826,2.417-17.956-.211-26.973,1.407-.23,2.034-1.625,1.881-4.186-.604-1.052-.831-2.074,0-3,2.084-2.117,2.084-5.117,0-9-1.207-3.04-1.042-8.496,1-11,.507-1.002.535-2.011,0-3-1.765-2.903.157-10.98,1.583-14.724,4.265-11.193,9.356-21.318,17.417-30.276,1.953-1.778,4.059-2.608,4.797-5.718,1.312-5.53-3.82-2.126-3.656-5.584.187-3.929,6.606-10.866,6.901-16.235.512-9.315-7.066-13.512-3.76-23.686,2.152-6.622,12.656-10.824,15.798-18.197,1.37-3.215.574-5.543,1.385-8.615.588-2.227,4.904-8.033,6.536-10.964,6.647-10.193,13.314-20.527,20-31,2.536-3.843,6.893-7.366,8.425-10.075,1.752-3.096,2.016-8.452,3.354-11.646,2.781-6.64,13.336-24.022,18.862-28.138,3.413-2.542,8.131-2.867,11.265-4.735,2.136-1.274,6.944-12.468,8.272-15.728,2.26-5.542,3.443-11.492,5.965-17.035,2.494-5.483,9.93-14.609,11.313-18.687,1.252-3.692.016-7.505.769-11.231.854-4.222,5.824-10.418,7.099-14.901,1.458-5.127,1.165-10.246,3.188-15.812,3.892-10.71,13.817-17.302,16.984-26.016,2.071-5.699,2.454-12.914,5.288-18.712,1.404-2.871,5.847-7.159,6.768-10.232,1.153-3.846.813-10.027,1.696-14.304,2.632-12.745,10.179-25.096,15.492-36.508,3.327-7.146,3.191-17.669,5.532-25.468,5.054-16.843,12.993-32.196,18.04-48.96,2.369-7.867,2.264-11.905,3.887-19.113.439-1.949,3.015-5.348,3.971-8.029,8.233-23.095,13.643-48.258,36.828-60.672,26.07-9.242,51.631-19.782,76.682-31.619,19.274-5.017,38.047-10.81,56.318-17.381,10.744-4.185,24.458-10.452,34.542-15.958,7.153-3.905,8.772-5.078,4.677-12.761-3.769-7.072-10.956-3.524-16.729-3.292-4.229.17-8.793-.39-12.91.091-9.913,1.158-15.14,7.611-26.806,3.646-8.74-2.97-9.767-9.349-15.251-14.749-6.316-6.219-13.748-8.716-19.493-15.507-10.694-12.639-10.602-19.014-14.251-33.749-.633-2.555-3.043-4.982-3.557-7.443-3.344-15.999-3.243-32.686-4.317-48.675-.757-11.274-5.844-27.815-9.905-38.604-1.389-4.524-3.114-8.964-5.175-13.32l1.175-.68c1.949.088,3.334,1.473,4.154,4.156,19.445,18.648,34.955,38.708,42.526,65.118,7.792,14.92,26.827,10.838,29.992-4.982,2.484-.275,2.911-2.174,1.283-5.697,2.25-3.602,2.045-6.502-.613-8.701.225-2.838-1.569-5.342-5.383-7.512-5.071-9.023-8.629-18.951-10.673-29.783-1.166-3.34-3.6-9.193-6.341-4.37-4.364-3.552-7.537-.644-9.519,8.725-7.401,10.59-14.144-8.985-8.627-14.806-2.267-5.125-2.671-13.111,3.434-15.658l1.636-2.408c-7.068-1.25-17.613-8.595-13.869-16.082q.341-2.98,0,0c-2.283,4.862-1.057,9.946.523,15.479,8.433,4.918,9.744,8.399,3.932,10.442-5.127-1.487-9.408,2.332-3.818,5.616,3.704,4.707.696,20.918-4.238,9.984-11.417-8.652-23.782-43.807-9.872-53.309,3.479-2.376,15.568-7.196,15.387-.501,2.703-1.798,2.233-3.381-1.41-4.749-1.309-5.767-3.59-7.026-6.844-3.776l-9.814,3.356c-1.173,2.621-3.31,4.565-6.058,2.498-3.226-2.427,2.305-26.852,7.134-29.263-3.55-2.67-3.461-4.618-1.161-8.3-3.471,1.198-11.604,11.204-7.87,14.814-3.051,3.478-4.281,7.366-3.691,11.664-3.117.216-5.325,1.037-6.624,2.463-2.18.997-4.039.192-5.578-2.415-1.235-1.053-1.902-2.72-2-5,.169-.912-.163-2.081,0-3,4.126-2.452,4.322-12.659-.235-15.055l.235-6.945c-.023-1.801-.237-7.483-.044-8.3.26-1.1,3.04-1.429,3.026-2.2-.015-.82-2.625-1.252-2.866-1.608-1.434-2.113,9.536-31.726,10.884-36.892Z"/>
  <path class="cls-15" d="M734,1334c.974-4.834-2.942-6.532-4.84-9.66-2.419-3.985-5.422-12.187-7.466-15.039-9.332-13.023-20.68-27.751-28.067-42.428-3.989-7.925-6-16.498-10.456-24.544-2.428-4.385-12.181-18.668-15.643-21.357-1.151-.893-7.906-4.344-7.523-1.49.95,7.073,3.295,4.106,5.024,5.081,1.319.744,4.01,6.423,2.976,7.434-2.569.239-10.785.835-12.73,1.751-3.063,1.443-2.048,4.154-4.265,5.248-1.961-7.513,4.782-6.098,5.845-7.202.423-.439-.133-2.164.283-2.594.664-.687,3.942.289,4.856-1.714-2.162-3.113-4.136-9.022-7.98-10.09-1.804-.502-3.337.518-4.368.277-2.276-.533-5.713-2.784-7.999-2.394-1.442.246-13.011,7.276-14.084,8.787-2.073,2.918-1.833,6.519-2.618,9.382-1.925,7.01-5.763-3.02-7.34-5.056-1.467-1.893-4.002-3.825-5.473-6.026-.782-1.171-1.409-5.236-2.633-5.344-2.159-.19-.244,4.352-.551,5.354-1.067,3.481-4.511.337-5.849.184-3.293-.377-6.161,1.737-8.197-2.957-2.998-6.911,1.557-14.179,5.596-19.582,4.459,2.656,2.189,5.016,3.51,8.974-1.975.053-3.582-.795-3.004,2.002,2.949-.53,5.065-1.14,7.989,0-1.902-5.952,1.859-19.107,5.522-23.978,3.846-5.114,16.18-9.556,20.845-13.155,1.768-1.364,2.315-3.636,4.245-4.755,3.25-1.885,6.399-.609,9.664-1.336,9.779-2.178,14.004-12.044,20.454-13.546,2.29-.533,4.655-.11,7.281-.725,3.953-.925,6.497-4.303,10.738-5.259,1.078-.243,9.253-1.333,9.736-1.245.744.136,2.088,1.658.537,2.52-2.4,1.334-6.947-1.101-7.022,1.974,5.279,2.872,9.214-1.446,12.742-2.253,8.813-2.016,15.346-.64,22.534-1.444,3.268-.366,9.107-3.088,9.729-6.783l-10,1.98c.749-.829,5.038-5.859,5.438-5.857.737.005,7.308.582,7.568.86.316.338-.475,2.916.121,3.847,1.263,1.972,8.732-1.349,11.496-1.717,7.596-1.01,14.413-2.184,21.26,1.494,7.675,4.123,3.175,4.268,3.198,5.888.027,1.86,13.155,9.215,15.44,11.474,1.44,1.424,4.008,4.884,5.319,6.681,2.216,3.036,1.546,7.331,7.167,6.345,1.101,2.697-2.721,2.138-3.019,3.515-.207.955,1.689,2.472,1.981,4.014.551,2.914,1.329,9.933,3.255,12.297.323.396,1.954.014,2.416.46,6.357,6.144,10.851,23.303,13.673,31.896,1.819,5.539,6.132,10.9,4.697,17.812,4.32-4.066,5.044-.626,8.436,1.054,1.656.82,3.713.944,5.101,1.894,2.255,1.543,1.938,4.012,2.712,4.784,3.699,3.685,27.536-2.914,32.122-5.852,1.796-1.15,3.691-6.108,6.616-3.873.199.152-1.944,5.162.502,4.973,1.431-.11,1.895-4.019,3.49-3.975-.537,6.626.863,2.749,3.381,3.225.328.062,4.449,3.084,4.681,3.469.363,7.93,3.095,15.735,1.096,23.607,7.166,4.751-4.752,7.771.92,12.119,4.671,3.58,3.256-2.135,7.912.095,5.171,2.476,2.761,7.086,3.051,7.423.232.269,6.06,1.487,6.728,2.29,2.649,3.182-1.161,8.794.198,11.118.813,1.392,4.285-.73,3.086,4.027-.138.546-8.664,4.654-10.023,5.14-1.591.57-7.49.764-7.973,1.548-.167.27-.161,2.828-.056,2.93.693.674,7.684-1.822,5.998,5.003-3.299-3.929-7.318-1.127-4.856,1.909.496.612,3.966-1.005,2.864,2.087-4.81-.274-7.077,2.844-12.216,1.194l-11.782,5.81h-3c-5.413-1.425-8.395-5.452-8.945-12.079-1.51-3.391-10.768-11.601-14.939-10.368-2.199-2.264-3.372-1.622-3.519,1.926,3.739,6.319,6.224,12.859,7.454,19.622l-1.051.9h-11c-.662-.78-1.329-.778-2,0h-19c-2.07-1.289-3.736-1.289-5,0h-39l-3.808-3.756c-13.48-27.654-26.244-55.769-38.293-84.344,6.176,23.184,14.581,46.512,25.27,68.757,3.677,6.562,5.287,13.01,4.831,19.344h-32Z"/>
  <path class="cls-15" d="M680,1334c-5.268-3.239-11.325-5.477-17.196-7.304-4.281-1.332-10.814-1.34-14.527-3.391-1.065-.588-6.336-6.995-6.211-7.675.23-1.245,4.059-2.895,2.926-5.627-5.482,2.719-7.214-1.617-7.904-6.589-1.275-9.191.043-12.332,9.915-11.419,1.112-9.107-13.489-4.532-18.786-4.276-8.41.405-15.759,1.305-23.787,2.217-11.692,1.328-27.225,1.642-37.351,5.645-5.08,2.008-10.377,3.235-16.615,2.444-2.484-.315-4.418-1.961-6.054-2.053-2.328-.131-3.963,2.463-7.915,2.112-4.486-.398-7.45-6.917-7.501,1.913-4.085.387-1.351-5.145-5.491-4.017-.282.077-1.415,2.819-4.287,3.72-1.618.508-9.338,1.719-10.596,1.368-.301-.084-2.53-4.99-2.618-5.666-.973-7.434,10.589-12.903,14.511-18.394l1.987,4.973c1.02-2.237,4.04-2.365,5.164-3.314,1.927-1.627,3.516-5.399,6.411-7.092,10.534-6.16,30.068-12.052,41.886-17.113.995-.426,2.186-2.46,2.539-2.445.86.038,1.119,2.937,2.088,3.013.799.063,3.059-1.051,4.867-1.083,4.012-.072,8.073-.024,12.088.003,1.632.011,4.141,1.117,4.905.947,1.511-.335,1.049-3.884,3.037-2.889,1.907.955.707,4.869,3,3.981,1.655-.641,2.257-3.63,2.655-3.906.61-.423,12.59,2.065,14.688-.326.946-1.078-1.389-3.663,3.169-2.767-1.484,6.329,3.543,6.499,8.406,8.032,1.687-3.457,9.337-7.549,10.589-10.537.666-1.59-1.134-2.054-1.975-1.468-.205.143-.95,3.996-4.012,2.976-.722-4.172,1.028-2.376,2.109-3.12,2.022-1.392,5.356-3.527,7.768-4.34,1-.337,2.629.78,4.089.022,1.59-.825,2.123-4.042,3.616-4.392.475-.111,8.977.829,9.712,1.035,4.538,1.275,11.13,20.833,13.181,25.82,8.73,21.235,20.57,39.336,33.51,58.49,2.584,3.825,7.992,7.722,10.011,12.489h-24c-14.312-11.029-27.479-23.968-39.502-38.819,4.38,4.406,6.815,9.222,7.305,14.448,2.918.54,5.045,1.857,7.276,3.738,1.138.96,12.199,14.224,12.503,15.16,1.154,3.551-1.486,4.4-4.513,3.55-.66,1.086-2.017,1.727-4.07,1.923h-1Z"/>
  <path class="cls-15" d="M1162,1334c-1.095-2.823,1.218-10.931.845-12.418-.107-.427-7.759-5.59-2.373-6.598,1.579-.295,2.697-1.553,1.527-2.982-.405-.494-3.9,1.32-2.992-2,8.907,1.666.292-3.83-.003-4.512-.924-2.134,2.694-.823,1.985-2.972-1.22-3.697-4.626-4.958-2.962-11.833.104-.43,6.512-6.246-1.018-3.685-6.896-27.382-10.894-60.072-26.383-84.125-4.123-6.402-8.42-10.031-14.621-14.379,2.401-1.899,6.605,2.879,8.404,2.441,1.68-.409,1.118-5.013,7.051-3.938,2.524.457,4.999,4.093,7.53,5.001l-1.985-5.994c11.705-.702,15.984,3.457,21.8,12.69,18.126,28.777,25.684,75.761,27.069,108.747.039.918-1.033,8.35-1.334,9.521-.435,1.692-.47,2.328-2.536,2.03.401-7.026,1.553-14.025-.013-20.993-2.773.637-.883,2.7-1.133,4.354-.62,4.108-3.671,15.849.288,18.587.462.32,1.791-.711,2.341-.606,2.765.53.216,7.293.504,9.663l-2.98-2.994-.009,6.994h-8c-2.073-1.157-2.937-1.035-5,0h-6Z"/>
  <path class="cls-15" d="M1119,1334c.685-4.67,1.619-10.026-1.5-13.98l-2.49,4.975c.126-1.63-1.261-5.832.243-6.814,1.822-1.189,3.641,1.571,2.736-5.177l-3.985,2.99c-1.763-6.721,3.112-3.555,3.992-7.99-8.55.76-3.488-5.602-4.213-9.254-5.231-26.363-15.577-71.823-31.351-93.684-1.229-1.703-4.94-4.404-5.425-5.581-1.153-2.801,3.892-.628,5.033-1.047,1.429-.524,2.398-3.204,5.507-3.404,1.838-.119,15.054.797,16.741,1.175,9.489,2.125,17.214,24.184,20.347,32.653,8.413,22.737,14.863,49.612,16.921,73.824.297,3.5,1.421,19.571-.532,20.875-.815.544-2.647-.917-3.019-.56-1.998,1.921,4.055,2.122,1.995,3.986-.221.2-2.581-.211-3.546.944-.235.281.215,4.964-.456,6.067h-6c-1.599-.219-2.883-1.278-3.853-3.175-.538,2.054-1.587,3.112-3.147,3.175h-4Z"/>
  <path class="cls-15" d="M571,1334c-2.431-3.015-6.224-1.05-8.812-1.667-2.138-.51-4.108-2.897-5.795-3.068-1.676-.17-3.427,1.226-5.675.589-1.586-.449-3.258-4.123-5.577-2.684-.648.402.061,2.937-3.642,2.943-3.003.005-3.578-2.623-6.014-3.097-6.824-1.327-9.119,2.313-15.858-2.632-.86-.631-2.606-.552-3.155-1.326-3.248-4.577,2.36-12.762,7.235-13.851,15.019-3.353,33.848-2.54,48.496-6.504,4.092-1.107,5.802-3.131,8.777-4.223,9.237-3.391,29.625-5.323,39.57-4.528,8.178.654,1.953,3.463,2.456,8.452.234,2.324,2.263,4.125,2.76,6.332,1.55,6.877,2.656,10.086,4.551,16.442,1.483,4.975.255,7.608-5.508,7.624-5.169.014-9.263-5.369-11.193-4.75-.429.138-4.791,5.178-6.615,5.949h-4c-2.35-1.025-5.192-1.572-7,0h-25Z"/>
  <path class="cls-11" d="M817,1334c.614-2.849-1.452-5.338-1.788-7.73-.236-1.679.893-3.105.38-5.271-.722-3.049-5.23-7.776-6.797-11.294-9.185-20.617-12.431-47.476-22.397-67.603-6.491-13.11-29.587-41.413-31.125-53.877-.138-1.115-.386-12.231.226-12.234,3.191,7.796,5.84,15.638,9.981,23.029,6.081,10.851,15.71,27.798,23.082,36.918,1.215,1.503,3.787,2.503,5.437,4.563,3.597,4.492,4.957,11.055,6.689,16.319,1.305,3.964,2.204,10.358,3.567,13.425,3.49,7.855,7.428,16.616,10.439,24.034.822,2.025,1.817,7.354,2.821,8.706.99,1.332,3.713.783,4.357,2.639.306.883.385,4.92.013,5.316-.337.359-1.651-.116-2.129.079-2.259.925,3.056,4.882,4.276,5.453,1.557.729,3.536.252,4.945,1.051.402.228,5.698,6.702,5.872,7.129.527,1.298.622,2.802-1.336,2.34-3.033-5.574-5.495-9.618-12.021-5.003-3.793,2.683-1.803,8.614.507,12.012h-5Z"/>
  <path class="cls-15" d="M1087,1334c1.138-5.758.958-11.488.579-17.304-1.939-29.754-14.688-79.675-29.367-104.408-1.933-3.257-5.525-6.095-7.188-9.793,7.686-5.98,10.393,5.633,13.481,8.521,1.281,1.198,3.353.86,3.507,1,.27.246-1.902,4.996.498,6.98l1.499-.994c4.775,2.651.056,3.167-.033,3.49-.838,3.044,1.879,2.255,2.814,4.184,1.161,2.394.751,6.642,1.877,9.086.739,1.604,2.968,1.683,3.203,2.796.199.942-1.267,3.097-.875,3.438,1.036.904,2.574-1.533,4.725,4.792,1.961,5.766,3.107,11.672,4.976,18.015,4.17,14.152,7.313,23.464,7.407,38.586.012,1.975,2.847,6.306-1.097,5.615-.599-.732.106-8.326-2.996-9.004-1.48,5.419,1.505,10.016,2.021,14.469.77,6.642-.831,13.899-.031,20.531h-5Z"/>
  <path class="cls-11" d="M778,1334h-12c-6.215-21.62-18.61-42.012-25.014-63.486-5.447-18.266-6.254-26.509-16.184-43.816-5.124-8.931-12.362-16.919-15.793-26.697,10.831,11.817,19.927,26.23,26.722,40.768,9.507,20.338,17.691,41.389,27.269,61.731,4.955,10.524,10.517,20.765,15,31.5Z"/>
  <path class="cls-11" d="M681,1334c1.501-.457,2.256-3.073,3.002-3.534,2.234-1.377,4.411,2.184,3.989-.953-5.575-4.086-8.488-12.22-13.951-16.054-2.58-1.811-6.794-2.192-7.046-2.467-.377-.411.931-2.631.978-3.637.16-3.459-15.59-20.484-18.788-25.04-2.492-3.551-7.05-9.19-6.674-13.326,5.093,1.787,9.006,6.384,14.487,7.025,1.248,3.017-3.806,4.413-2.554,6.975,1.683,3.446,8.185,3.53,8.548,4.034.7.972-1.646,4.515-.865,5.817.214.357,1.799.508,2.352,1.134,9.853,11.168,21.249,24.228,32.035,34.054,1.849,1.684,4.322,1.293,5.487,5.971h-21Z"/>
  <path class="cls-11" d="M854,1334c-.263-2.674-7.538-19.505-8.515-19.99-1.388-.69-3.122,3.188-3.124,3.48-.007,1,4.646,9.223-1.356,9.505.116-5.977-.523-12.173-2.005-17.985l6.987,2.99c.505-2.657,1.304-6.538,4.503-7.009-1.502,7.081,2.12,3.716,4.548,4.587,2.072.743,10.581,7.856,11.969,9.916,2.233,3.313,2.476,9.106,3.473,10.555.748,1.087,4.508.594,4.519,3.952h-13c-3.022-1.588-3.462-1.753-6,0h-2Z"/>
  <path class="cls-15" d="M1073,1266q-1.245,1.895,0,0c.033.155,1.544.722,2.066,2.391,2.514,8.036,5.318,19.819,5.924,28.135.079,1.078.618,2.736-.977,2.466l-4.007-5.988,3.793,26.497-.798,14.498h-4l.983-14.462c-2.882-3.401-.639-5.602-.896-9.026-1.07-14.253-5.251-28.744-7.129-43.062.057-5.039,3.254-1.263,5.548-4.446,1.407.444-.572,2.678-.505,2.996Z"/>
  <path class="cls-11" d="M1123,1334c.885-7.064,5.358-6.55,7,0h-7Z"/>
  <path class="cls-11" d="M1168,1334l1.5-8.01.505,6.005c4.883.368.646-3.902,2.982-4.988l.013,6.993h-5Z"/>
  <path class="cls-15" d="M862,1334h-6c.356-4.545,4.385-3.612,6,0Z"/>
  <path class="cls-11" d="M603,1334h-7c-1.544-2.798,6.402-2.284,7,0Z"/>
  <path class="cls-11" d="M843,1334h-2l.01-6c2.516.762,2.053,3.837,1.99,6Z"/>
  <path class="cls-15" d="M919,59c35.359-4.736,59.613,2.597,93.229,7.182,21.505,2.933,53.146,23.641,64.594,40.493,5.487,8.077,14.588,17.958,17.824,25.3,3.908,8.869,16.419,24.31,22.331,31.525,6.162,7.52,13.251,13.603,17.174,21.788,1.615,3.37,4.837,6.332,6.377,8.653.49.738-.277,1.81-.538,2.543l2.003-.492c-2.998,5.742,3.305,6.805,4.325,9.27,3.853,9.315,3.952,25.133,4.683,35.158.244,3.345,1.718,6.622,1.869,10.041.272,6.144-7.372,16.057-6.913,19.957.328,2.785,3.428,10.285,3.744,13.214.569,5.284-1.541,12.228-.125,17.83,2.314,9.157,5.525,17.283,7.437,26.851.16.801,2.211.765,2.57,2.597.501,2.553-.599,3.931.417,8.091.465.746.798,1.746,1,3,.063,4.507.699,8.858,1,13,1.085,3.1.591,6.739,0,10-.735,5.678-1.346,11.953-2,18,.082,1.404-.015,2.886-1,4-1.836,14.576-2.52,28.68-8.783,41.717-3.898,8.113-11.292,16.267-17.201,22.791-2.829,3.124-14.52,13.247-15.549,15.527-1.631,3.616,3.457,6.229,3.533,9.965-1.442-2.08-6.581-6.603-5.894-9.295.728-2.851,15.474-14.501,17.885-18.219.635-2.552-1.969-.874-2.809-1.659-.703-.656.036-2.421-.182-2.827q2.334-1.879,0,0c-.862-1.605-8.267-1.863-10.037-2.463-2.003-.679-13.192-7.368-13.959-6.532,2.108,4.439-.883,5.402-1.558,7.949-2.871,10.829-6.179,15.79-4.197,27.295,1.787,10.372,4.568,15.63,3.796,27.295-1.217,18.389-16.701,47.658-25.693,64.307-6.616,12.249-14.348,22.725-19.65,35.35-6.951,16.55-14.203,26.94-22.714,42.286-14.145,25.508-27.139,51.905-39.007,78.505-1.445.389-1.663-.384-2.507-.968-3.06-2.12-8.553-6.88-11.499-9.501-4.916-4.375-6.598-10.929-15.957-9.089-11.274,2.216-33.702,20.988-40.997,30.086-4.645,5.794-6.463,12.188-10.16,17.84-.808,1.236-1.169,2.274-2.379.655-2.583-19.967-6.45-39.729-9.36-59.64-2.47-16.901-6.652-38.68-8.018-54.982-1.2-14.32.255-30.352-.061-44.937-.044-2.042-2.569-8.745,1.425-6.429,5.188,12.246,9.76,24.75,15.043,36.959,8.058,18.621,29.569,59.652,48.531,68.469,1.309.609,3.298,1.584,2.946-.941-4.334-1.746-25.81-26.793-22.987-29.508,2.745-.991,4.028,2.38,5.477,2.607.901.141,2.379-1.043,3.342-.496.419.238,1.309,3.703,2.667,3.718,1.625.017,7.233-6.322,2.513,3.153,2.45.951,4.93-.003,4.706,2.27-.548,5.569,6.132,1.167,1.308-1.76,3.83-4.431,3.821,3.125,6.975,4.499-.774-1.541.243-4.263-.146-5.343-.518-1.438-2.601-1.3-2.871-2.351-1.504-5.85.041-8.478,6.027-8.309l-.993-4.994c6.253,1.495,2.92,1.533,3.139,3.501.239,2.139,4.221.023,5.842,1.497,1.17-2.587-4.769-2.792-2.983-4.98,2.283-2.796,7.841-.954,8.972-1.481,1.511-.704,7.435-6.567,7.835-8.311.492-2.144-1.077-5.59.192-8.222,3.708-.013,2.873,2.442,1.996,4.988l4.95-4.526c.932-2.93-1.336-2.195-2.381-3.534-1.063-1.361.236-4.593-3.578-2.426l2.007,4.483c-2.525,1.375-3.27-2.049-3.479-1.997-1.521.379-2.452,2.915-5.534,1.525-2.546-1.148-.316-1.228.253-1.76,8.42-7.874-.765-4.367-1.959-2.48-.903,1.427.012,5.314-2.271,5.717.003-3.105.08-7.43-1.247-10.259-1.977-4.213-8.401-7.864-7.763.264-.278-.276-5.203-1.952-6.976-3.563-1.001-.91-.564-2.629-1.753-3.441-3.909-2.67-4.825,2.933-5.77,2.985-2.259-1.429-1.686-5.53-2.996-7.004-1.067-1.201-3.215-.768-3.505-1.047-.247-.238,2.763-5.31-2.998-2.937-.348-.312,5.632-4.681-4.001-3.998-.485-.418,3.755-11.08,4.491-12.003,1.934-2.427,1.993,1.868,3.02,2.047,3.425.599,2.812-2.364,3.641-2.937.999-.69,3.117,1.158,3.909.487.891-.754.846-5.373,5.382-4.532,3.384.628-1.664,5.967,2.553,4.948l1.017-7.003c2.015-.299,3.723,2.064,5.451,2.057.626-.002.528-1.661,1.208-2.063,3.119-1.845,5.114-.555,8.032-.365,1.048.068,2.966-.847,3.263-.635.307.219.975,7.937,4.029,4.999.511-.491-.978-3.288-.776-4.378.062-.332,3.643-5.33,3.937-5.496,1.165-.658,3.31,1.056,5.114.696,3.176-.634,8.306-5.627,11.022-7.023,2.351-1.209,6.096-1.283,7.655-2.342,1.118-.759,1.314-2.935,2.705-3.343,1.083-.318,2.595.735,3.724.6,3.624-.431,6.226-5.198,5.617-8.704-1.542-.783-3.621,2.52-3.985,1.995-2.123-3.064,6.087-5.9,6.893-7.159.319-.498-.71-2.01-.577-3.184.086-.758,1.305-1.544,1.303-2.152-.003-1.185-2.174-1.691-1.214-3.522.808-1.541,3.088-1.515,4.26-2.318.74-.507.965-2.4,1.882-2.634,1.331-.339,2.993,1.796,3.949,1.722.263-.02,4.339-2.557,4.488-2.775.673-.981-3.724-3.466.572-6.918,2.273-1.827,4.232-1.207,5.742-2.025.377-.204,3.804-3.52,6.057-5.171,2.626-1.924,4.009-5.121,7.634-4.876-4.993-4.815,4.326-4.559,5.012-8.98,1.747-.35.404,5.388,2.974,2.988,1.088-1.016,4.613-10.924,6.015-12.987-.89-.905-7.256,5.216-6.009,6.995-2.026.17-2.885-3.374-4.346-2.903-2.997.966-5.914,6.076-9.142,7.9-2.373,1.341-4.725,1.158-7.035,2.965-1.603,1.254-2.373,3.825-2.566,3.961-1.49,1.042-4.976-3.219-6.377-2.935-3.995.809.715,2.6,1.002,2.955,2.747,3.396-3.118,2.139-3.359,2.271-.279.154-.601,1.878-1.775,2.642-10.288,6.702-10.041,5.776-21.687,7.515-10.042,1.499-11.616,2.422-20.475,6.56-7.185,3.356-13.217-1.625-19.693-.92-1.532.167-2.593,1.936-3.866,1.82-1.125-.103-2.301-1.631-4.111-1.714-.611-.028-6.237.796-6.478,1.018-.48.441.153,2.6-.085,2.861-.879.962-6.296-3.302-8.471.01-2.693-.864,1.051-4.634-2.038-4.026-2.305.453-3.263,3.221-4.85,2.947-2.002-.346-4.12-5.217-4.901-5.669-1.016-.588-2.831-.066-3.774-.719-1.627-1.127.312-4.682-3.472-3.569-.879.258.159,2.471-1.481,2.021,2.178-8.245-.261-3.389-2.061-4.491-2.836-1.737-8.526-6.581-11.998-8-1.616-.661-4.036,1.256-5.466-1.492l-.979,3.983c-2.811-3.011-4.171-8.051-8.576-9.505-1.342-.443-2.836.636-2.922.515-1.07-1.487,2.526-12.436-5.996-6.005.627-4.45-2.775-9.137-5.333-12.698-.456-.635-2.61-1.092-2.638-1.799-.016-.396,4.056-2.856-.304-3.229-.591-.051-1.637.966-2.733.294-.808-.496-1.194-2.306-1.995-3.113-.928-.933-2.729-1.347-2.912-1.611-.356-.513.893-2.358.495-3.877-1.282-4.9-6.388-6.92-7.435-8.61-1.215-1.962-1.994-6.896-2.16-9.36l-2.983,2.997c.019-4.936-4.575-7.698-7.014-11.504,4.463-.837-2.028-6.489-1.003-10.495l-2.985,1.004c-.411-2.179,2.655-3.125,1.952-5.414-.14-.455-5.277-5.056-5.839-7.299-.337-1.347,1.153-2.979.878-3.277-1.705-1.846-1.982,1.617-2.494,1.987-3.18-1.415-1.679-7.081-3.99-5.986-3.283,1.555.046,4.908-1.01,6.985-5.265-2.829-2.316-2.79-2.732-5.359-.86-5.31-7.366-.148-7.768-.641l.5-7.99c.846,5.551,3.16,3.005,5.781,4.041.571.226,2.025,3.723,3.709,1.949.66-.695-.816-4.694-1.008-5.99l-4.977,1.998c.168-1.899.167-3.384-1.999-3.019-.483-1.614,1.519-.364,1.967-1.688.32-.945.676-5.081.355-6.05-.989-2.994-9.163-1.182-6.325-5.242.441-.631,3.542,2.667,3-.504-2.234-2.868-4.984-4.172-1.061-7.839.727-.68,5.409-1.153,3.05-3.654-.477-.506-5.714.261-3.991-7,3.997.051,4.174,5.385,7.983,5.997,1.757-4.385-.186-5.974-.993-9.998l4.004-.014c-2.253-2.512,1.408-6.929-1.617-7.875-6.308-1.974-.826,4.435-3.905,4.869-.194.027-3.555-.82-3.801-.974-.289-.181-2.541-6.217-4.671-4.005-2.424,2.518,8.382,8.343,7.989,10.48-.283,1.538-2.509,1.357-3.43.564-1.17-1.008.317-4.549-3.061-3.045-1.784.795-2.245,6.331-2.999,5.991l-5.486-6.495c1.445-2.074,3.769-1.503,5.988-1.504,2.655-2.567-7.556-10.193-9.512-11.992l-.505,3.995c-1.338,1.86-3.419-13.912-5.49-13.98-1.219-.04-1.871,2.976-1.395,4.393.273.812,4.946,2.627,2.89,4.581-2.997,2.85-4.892-5.706-5.606-6.886-11.189-18.484-6.556-16.228-5.319-35.602.293-4.593-2.911-10.24,2.538-13.396,2.846-1.649,10.891-1.538,12.385,1.403.922,1.816-1.953,1.324-2.058,2.093-.638,4.699,12.662,25.87,16.57,30.388,2.323-3.852-1.541-5.733-2.693-8.305-1.142-2.55-1.844-5.133-2.811-7.69.72.825,4.162,4.974,4.497,4.983.517.015,6.055-5.11,9.5-2.99-1.306-3.332-1.688-7.71,2.999-7.994-1.028,4.008,2.438,2.471,3.944,4.551,1.947,2.686-.57,8.469,4.057,8.444-1.153-2.102.118-4.545-.208-6.257-.257-1.354-2.336-1.925-1.785-3.731l5.992,1.988c-3.837-7.648,7.244-5.939,8.006-6.999.51-.71-.927-3.31-.879-4.537.079-2.06,2.243-4.089,1.885-6.457,3.394.166,3.225,4.353,5.465,7.026,6.635,7.916,19.232-3.338,27.011-4.111,7.184-.714,9.435,7.935,17.453,1.523,3.619-2.894-6.569-6.917-7.933-9.942,9.151-5.914-8.004-8.925-12.416-10.582-.92-.346-4.115-1.503-2.581-2.908,1.024-.938,9.627,2.983,10.494,2.987,1.247.005,2.504-1.665,4.06-1.968,5.965-1.161,9.967,4.414,12.922,3.978,4.156-.614-2.79-7.282-6.039-7.946-6.589-1.346-3.833,2.313-4.447,2.948-2.253-1.387-18.349-5.248-18.997-6.019-2.314-2.755,3.373-3.903,5.535-4.006,4.869-.23,22.573,3.888,26.002,6.986.399.36,5.962,8.16,6.246,8.754.923,1.932,1.735,8.864,2.232,9.278,1.39,1.16,3.832-5.207,4.431-.089.641,5.48-6.24,4.641-4.44,11.088l4.489-3.991c2.951,1.337-.047,13.094-1.995,12.976-1.115-.068-.925-3.31-2.488-2.975-1.056,10.418-12.402,23.725-12.027,33.479.185,4.816,7.484-6.942,8.018-7.702,3.964-5.651,7.49-11.422,10.012-18.27,2.982-8.097,2.641-16.466,4.849-24.838-4.941-3.23-6.972-10.469-12.86-11.686l.002-1.481c2.753-1.865,8.926-7.28,4.017-9.507.504,3.523-5.795,4.275-7.03,2.99-.267-.278.891-2.158.503-3.032-.993-2.238-23.381-7.974-27.289-8.663-10.099-1.779-20.026-1.756-30.205-1.305,1.709-3.086,7.019-1.943,9.999-3.001-5.523-7.01-11.101,2.587-13.483,3.027-2.287.423-5.085-.247-7.784.216-17.009,2.911-32.976,7.429-50.337,9.663-1.792.23-3.606.122-5.395.096-.027-2.189,4.069-5.157,4.043-5.508-.184-2.442-3.887-2.834-.043-6.472-.76-.66-6.394,4.571-7.996.485-.243-.62,1.15-.205,1.928-1.323.342-.492-.126-1.868.105-2.163.259-.33,3.089,1.557,3.959-.514-4.726-.868-6.678-4.272-2.527-7.62,2.033-1.639,3.889,1.674,3.522-1.36-2.488-3.377-4.01-2.967-6.981-.515-.601-3.385,5.788-13.976,2.955-15.988-.954-.677-5.645,2.979-6.52-1.958-.366-2.067,5.297-6.985,2.04-8.044-2.106-.685-2.792,5.278-5.494,4.481-.832-3.449,4.642-7.381,4.893-8.132.846-2.536-1.757-7.92.328-12.651.61-1.384,7.489-6.757,5.783-8.703-.656-.749-4.874,4-5.845-.65-.431-2.063,3.71-4.609,2.846-7.35-.936-.926-9.498,5.338-5.036-1.547,3.469-5.352,7.309-10.345,12.037-14.963-5.969-1.777-8.391,3.931-12.995,5.495-.531-.497,8.96-9.323,8.001-11.982-10.475-3.779-15.039,12.913-15.896,20.597-.679,6.094.377,12.752-.121,18.879-.346,4.255-7.231,35.198-8.996,36.513-1.028.103-2.023-1.996-2.489-1.982-.504.015-5.52,6.946-5.875,8.209-.381,1.355-.412,5.71,1.861,4.767l4.53-5.476c-1.432,3.488-4.418,18.691-9.315,17.375-4.597-1.236.007-6.684.105-10.382.048-1.809-.526-9.254-.844-10.967-.394-2.12-2.539-3.5-2.732-5.178-.371-3.225,4.432-17.769,4.738-21.911.102-1.38-.93-2.922-.811-3.98.573-5.087,4.14-12.081-.656-16.452-2.642,1.053-2.171,5.622-3.477,6.575-.748.546-2.566-.507-3.089-.142-.956.666-.876,3.793-2.345,5.636-1.931,2.423-8.221,6-10.589,8.912,1.144-4.384,1.504-12.123,2.712-16.79,3.281-12.675,9.595-21.647,14.568-33.231,4.144-9.654,5.392-17.965,7.457-27.749,2.608-12.359,1.726-14.739,9.581-25.228.348-.465.004-1.823.642-2.573,1.459-1.715,2.951-.274,3.027-.423.278-.549-.319-2.352.287-3.743.261-.6,7.693-8.74,8.732-9.757,14.347-14.032,38.45-27.289,56.167-36.63,3.383-1.783,6.619-5.642,11.096-4.706,2.305.482,3.496,2.614,5.445,3.625,10.065.267,19.22-5.471,29.011-7.571,5.251-1.126,11.946-1.485,17.275-2.225.675-1.489,2.319-1.472,3,0Z"/>
  <path class="cls-15" d="M741,305c7.489,2.87,4.159-1.141,5.003-2.001.621-.633,5.303,1.635,5.993.994.326-.302-1.267-3.366-.831-5.227.521-2.223,4.286-4.361,3.892-7.233-.07-.509-2.085-.583-2.105-1.04-.129-2.978,8.598-13.826,12.555-14.468,3.676,2.495-.804,4.672-.566,7.405.031.353,3.444,1.248,2.886,3.925-.238,1.141-2.849,2.667-3.806,5.166-.908,2.369-3.562,12.489-3.935,15.064-.353,2.438.019,4.968-.08,7.41,2.557.608,2.345-2.228,3.685-3.054,2.945-1.814,10.568-2.807,13.978-5.681,4.569-.382,3.37,4.186,5.264,6.319,1.32,1.486,4.002,1.121,4.104,1.946.388,3.121-3.657,8.324-5.867,5.209-.518-.73.038-2.446-.178-2.74-.393-.536-10.359,2.228-12.505,3.991-8.103,6.659-4.82,20.49-2.213,29.241,3.764,12.629,5.537,12.283,12.793,21.211,1.048,1.29.204,3.69,1.923,3.557-.359-2.947.559-6.763.035-9.53-.443-2.336-2.343-1.884-2.993-3.244-1.245-2.608-2.044-9.131-2.021-12.22l3.505,5.99c2.69.638.984-2.523,1.488-2.991,1.811-1.682,2.919,2.38,5.492,2.005,4.639-.675-6.278-6.342-6.684-7.382-.977-2.505-3.02-12.206-1.868-14.19.616-1.06,2.994-2.248,3.057-2.433.021,4.009,4.024,9.204,7.06,11.44,3.64,2.682,12.577,1.344,6.949,8.075-1.286,1.539-4.59,2.972-4.903,4.138-.317,1.18.744,2.639.699,3.845-.051,1.367-.964,2.789-.865,3.89.072.801,2.324.163,2.103,2.029-.291,2.464-3.174,6.059-2.785,8.965.203,1.513,1.665,2.454,2.188,3.711.55,1.322-.834,3.195,1.125,3.824,3.111.998,3.53-.346,4.436-2.904l-3.988-1.514c1.017-2.037,2.912-.333,3.939-.971,3.098-1.927,4.945-13.426,10.542-5.548,1.595-4.698,4.517-2.789,6.531.487,5.605,9.119,5.279,25.373,12.408,33.573,1.346,1.549,5.806,4.462,6.05,4.909.436.8-.584,2.308-.299,3.328.452,1.613,2.852,2.319,2.833,4.201-.016,1.567-2.457,2.757-2.033,5.917s4.964,6.697,4.004,10.599c-3.507.749-1.231-2.424-2.143-3.829-.245-.378-3.528-1.505-3.846-1.171,1.16,7.413-11.111,16.689-17.453,15.989-.731-.081-8.591-2.978-9.514-3.524-6.941-4.105-7.715-13.006-10.555-19.445-8.545-19.378-14.604-29.803-29.965-44.034-5.278-4.889-7.701-6.683-10.519-13.982-2.337-2-3.574-5.392-3.709-10.178-3.681-4.439-5.778-9.046-6.291-13.822-1.211-4.318-2.644-19.987-3-25-.469-1.214-.469-2.214,0-3,.771-1.507.771-2.84,0-4-.878-.247-.856-.583,0-1-1.153-1.394-.601-1.869,1-1Z"/>
  <path class="cls-9" d="M467,1149c-2.478,3.018-4.358,6.908-6.526,9.993-3.552,5.053-7.253,11.692-9.692,18.289-2.503,6.772-2.067,10.119-2.782,16.718-2.445,7.939-2.295,17.772-1,26,1.062,1.697,3.091,2.159,1.99,6l-2.999-1.491c4.219,11.32,2.182,20.975-.519,32.039l6.528,19.452c-3.541-5.437-9.251-18.804-7.953-25.461.393-2.013,2.054-3.009,2.505-4.487,2.534-8.3-1.944-16.467-2.588-24.516-1.938-24.223,5.505-56.578,23.036-72.536Z"/>
  <path class="cls-18" d="M841,564c-.993,1.911-4.148,2.61-6.137,3.364-16.445,6.239-32.003,8.445-48.006,13.993-26.518,9.192-51.019,25.618-78.857,31.643,10.002-5.355,22.097-8.164,32.871-12.629,15.215-6.306,29.98-14.912,45.614-20.386,17.803-6.234,36.233-8.863,54.515-15.985Z"/>
  <path class="cls-16" d="M743,339c1.218,4.343,7.405,9.748,8.464,14.074.617,2.519.614,6.41,1.536,9.926.2.762-.116,1.961.263,3.196,1.074,3.501,4.837,6.456,3.737,10.804-3.928-10.436-12.614-22.103-14.559-32.989-.326-1.825-1.096-3.453.559-5.011Z"/>
  <path class="cls-4" d="M739,275c.022,1.687-.888,6.417.987,6.992,1.11-4.138,1.252-8.569,2.92-12.578.557-1.339.388-2.963,2.105-.903-1.589,8.997-3.456,17.671-1.927,26.848l-4.085,1.641c.332-1.872,2.014-3.146,2.097-6.498.065-2.616-.878-4.965-1.106-7.507l-1.983,1.011.992-9.006Z"/>
  <path class="cls-5" d="M515,1029c-6.075,9.206-10.898,19.724-17.019,28.531-.863,1.241-.756,2.965-2.981,2.469,5.543-9.955,11.19-18.8,17.019-28.531.798-1.332.817-2.928,2.981-2.469Z"/>
  <path class="cls-12" d="M739,300l3.009,1.022c-.909,1.306-.687,2.742-1.009,3.978-.169.647-.989.93-1,1-.466,1.692-1.133,1.359-2-1-.078-2.84.688-3.313,1-5Z"/>
  <path class="cls-1" d="M740,306c-.051.324.037.671,0,1,1.175.738,1.175,2.072,0,4-.028.983-.069,2.022,0,3-.915-2.036-1.943-6.91-2-9l2,1Z"/>
  <path class="cls-17" d="M1162,365c-.166-3.305.239-6.706,0-10l.99-1c-.2,2.466.299,5.199.077,7.605-.176,1.903-1.028,3.101-1.067,3.394Z"/>
  <path class="cls-14" d="M916,59l-1-1.99,4.496-.015-.496,2.005c-.961.129-2.041-.133-3,0Z"/>
  <path class="cls-8" d="M1161,342c-1.314-.699-.763-2.028-1-3,.12-1.536-.648-3.355.99-2.995.42,1.976-.015,4.213.01,5.995Z"/>
  <path class="cls-13" d="M1159,387c.178-1.41.089-2.775,1-4-.027.247,1.942,2.563-1,4Z"/>
  <path class="cls-15" d="M614,1139c1.958-.808,3.938-3.706,5.978-4.365,13.195-4.259,32.768-2.633,46.289-.403,3.628.598,9.295,1.916,12.727,3.273-3.22,1.33-8.239.507-11.354,1.643-1.83.668-1.242,2.784-1.97,3.516-3.574,3.593-11.658,5.339-16.669,5.343,2.745,7.302-3.082,4.542-5.359,6.046-1.471.971-1.906,2.922-3.15,3.94-1.172.959-9.202,7.138-9.781,7.333-1.171.395-6.982-1.871-8.766-.808-1.048.625-1.731,3.691-2.919,5.018-1.676,1.872-5.222,3.836-6.71,5.762-1.054,1.364-3.733,8.264-5.777,9.836-1.529,1.176-2.806-.127-3.347.136-2.442,1.187-6.304,11.21-10.869,11.587-1.22.101-8.631-6.427-9.351-7.587-1.682-2.708-1.161-6.857-3.478-9.266-1.504,2.77,1.521,8.886-3.49,8.99-.386-5.689,3.773-10.531,1.999-15.99.86-.937,4.696,3.746,4.964.508.236-2.842-4.478-2.946-2.515-8.569.682-1.952,8.227-10.407,10.216-11.775,4.782-3.289,10.712-3.337,14.617-5.383,1.794-.941,1.909-3.141,3.375-3.625,4.529-1.497,7.036,2.116,5.339-5.161-6.502,2.684-6.224-4.168-.009-2.995.184.944-.186,2.159.009,2.995Z"/>
  <path class="cls-15" d="M859.99,1191l-5.985-.994c-.979.837,2.702,4.55,3.461,5.029,5.743,3.625,13.784,6.341,19.839,10.161,7.13,4.497,11.433,5.913,7.148,14.758-1.703,3.515-6.5,1.743-5.457,6.048-3.169-1.144-6.219-2.709-9.719-2.709-1.717,0-2.879,1.401-3.768,1.37-.913-.033-3.685-2.793-5.516-3.249-2.35-.585-3.775.972-6.344-.497-3.398-1.943-2.436-4.798-3.842-7.259-.664-1.162-1.996-1.292-2.523-2-1.339-1.8,1.653-3.76-4.276-1.66-.064-5.099,4.523-15.716-2.693-16.83-1.719-.265-7.436,6.546-8.309,2.318-.383-1.857,7.357-6.483-2-4.49-.285-.293,1.142-7.617,1.449-8.041,2.139-2.952,30.766-2.527,28.535,8.045Z"/>
  <path class="cls-15" d="M1202.994,922.994l-66.99,7c1.726-4.617.229-10.199,1.024-14.466,1.06-5.687,9.497-2.987,13.502-3.498,9.176-1.17,18.453-2.071,27.845-3.155,3.731-.431,23.381-4.408,24.687-3.458,2.877,2.093-.809,13.926-.069,17.576Z"/>
  <path class="cls-15" d="M952.012,790.001c3.239,2.231,17.031,3.242,17.815,6.583l-19.327,61.396c-9.316-16.3-4.429-31.614-1.625-48.604,1.017-6.164.599-13.065,3.137-19.374Z"/>
  <path class="cls-15" d="M626.006,1247.993l-36.696,3.655-5.314-2.179c2.248-5.719,11.819-12.796,17.477-13.493,7.815-.962,25.135,1.46,24.533,12.016Z"/>
  <path class="cls-15" d="M1049.437,1204.59c.285.374,1.515.366,1.607,1.085.23,1.792-1.72,6.409,1.05,8.254.306.204,3.439-3.028,4.477,3.082.476,2.804-.942,4.61-.416,7.252.449,2.26,2.393,3.15,3.218,4.722,1.024,1.952-1.239,3.545,4.621,5.519l-2.984.979c1.824,3.358,3.232,8.442,4.344,12.421.424,1.516.832,6.841,1.065,7.115,1.328,1.562,4.259.706,4.584.985,1.956,1.679-2.011,2.067-2.035,2.567-.024.493,1.951,4.591-.47,4.408-3.018-.229-4.228-9.111-4.978-11.002-4.097-10.34-9.191-23.925-15.089-32.911-.667-1.016-2.359-1.266-3.278-2.788-2.244-3.719,3.168-7.381-4.83-8.973-1.249-.249-2.654.879-3.658.757-.324-.039-3.05-4.248-4.663-4.567,1.387-1.303,3.427.642,5.291.34,4.743-.768,6.094-7.177,12.142.754Z"/>
  <path class="cls-15" d="M948.006,1147.994c-7.797-.894-3.644,4.59-4.479,6.011-2.547,4.332-4.639-2.465-5.586-3.447-.386-.401-5.678-4.834-5.931-4.559-1.968,2.138,2.946,4.065,3.039,4.691.121.812-.727,2.056-.6,2.82.253,1.527,3.951,5.076,1.033,5.489-7.285,1.033-15.517-13.472-7.969-18.996l2.509,2.996c4.302-5.226,5.486-1.033,6.48-1.017,1.559.025.408-3.931,2.969-4.067,4.897-.26,7.75,5.879,8.535,10.079Z"/>
  <path class="cls-15" d="M543.995,1120.005c.293,3.25-5.357,3.048-8.044,4.446-8.894,4.627-15.965,12.256-24.421,17.579l-40.524,38.965c-.543-2.635.184-2.174,1.234-3.294,11.531-12.301,23.449-24.711,36.289-35.673,10.135-8.653,22.31-19.537,35.467-22.023Z"/>
  <path class="cls-15" d="M903,1268c-.178-1.11-1.742-2.128-.547-3.974,2.794-4.316,11.772.224,8.549-8.018,3.655.008,5.253,3.603,8.988.993.393,2.183-2.111,3.163-2.582,4.964-.399,1.525.852,3.548.567,3.956-.219.313-4.344,1.206-5.325,2.027-.855.716-.495,1.938-1.012,2.649-.442.607-1.573.731-1.952,1.628-2.106,4.975,3.032,5.582-.187,8.757-1.599-.781-3.029-5.429-3.699-5.854-.545-.346-2.035.729-2.836.369-1.919-.863-1.494-3.487-2.129-4.3-.093-.119-2.551.854-2.83-.711-.538-3.017,3.55-1.361,4.995-2.485q2.857.457,0,0Z"/>
  <path class="cls-15" d="M503.995,1105.005c.462,1.976-1.058,2.354-2.09,3.4-2.534,2.569-15.664,13.779-11.9,17.594l5.99-.504-26.99,27.5c-.654-2.681.633-2.574,1.682-3.807,4.345-5.108,9.257-8.975,13.338-13.662,5.006-5.751,6.556-7.335-3.025-6.535,1.039-4.414,8.986-4.097,6.486-8.005l-6.481,1.009c-.45-5.279,3.89-3.359,4.828-4.148.415-.349-.003-2.342,1.747-3.756,2.113-1.707,9.311-5.685,12.391-7.619,1.32-.829,1.91-2.017,4.023-1.467Z"/>
  <path class="cls-15" d="M543.995,1110.01l-12.872,5.613c-21.317,11.691-38.101,29.422-56.114,45.376,1.421-4.293,5.368-7.896,8.459-11.028,9.906-10.039,35.932-32.576,48.605-37.399,2.991-1.139,8.596-2.236,11.922-2.563Z"/>
  <path class="cls-15" d="M1109.817,933.817c-.574.669-7.645,1.699-8.676,1.041-2.574-1.643,1.522-14.937-1.641-14.838-3.587.112-1.568,11.445-1.93,13.021-.253,1.1-1.934,4.049-3.086,1.976-1.28-2.304.161-15.468,2.51-16.593,1.95-.934,2.693,1.322,3.526,1.35.554.018,7.681-6.363,10.032-2.825.467.703-.185,16.229-.735,16.87Z"/>
  <path class="cls-15" d="M1058.99,1249.999c3.239,13.214,7.997,27.028,10.11,40.471.74,4.708-1.873,5.239-2.823.773-2.211-10.398-3.958-21.175-6.567-31.452-.485-1.908-5.983-9.839-.719-9.792Z"/>
  <path class="cls-15" d="M1036.995,928.005c-1.757,5.653-2.437,11.035-1.999,16.993l-7.99-.003c.479-2.158,1.43-15.419,2.006-15.982.288-.281,6.435.01,7.983-1.008Z"/>
  <path class="cls-15" d="M1119.995,893.005l-.005,11.484-2.474,8.501c-4.175-1.968.076-12.834-1.525-14.99-4.06,1.48-5.671,3.536-4.994,8.004-3.892,1.551-1.131-9.363-.802-9.799.31-.412,8.267-2.908,9.801-3.2Z"/>
  <path class="cls-15" d="M1065.997,923.007c.328.295-1.623,7.034-1.878,8.612-.175,1.081.364,9.804-2.12,7.893l-1.988-4.507c1.695,5.345-4.224,8.64-3.597,2.966.477-4.318,2.724-8.981,1.592-13.976,6.216-1.487-.463,6.144,3.984,8.999,1.63-2.704.048-6.954.255-8.535.186-1.42,3.208-1.942,3.753-1.452Z"/>
  <path class="cls-15" d="M636.995,1316.995c-9.844-2.134-10.281-14.361-4.49-20.99,2.041,6.93,1.943,14.296,4.49,20.99Z"/>
  <path class="cls-15" d="M1127.844,910.851c-.893.537-2.679-.01-3.839.154.777-2.765-.289-19.153,1.01-20,6.024-1.025,3.038,8.66,2.946,12.453-.037,1.518,1.877,6.193-.117,7.393Z"/>
  <path class="cls-15" d="M1152.995,887.005c-.61,6.037,2.07,12.492.998,18.49-.236,1.319-.954,2.842-2.478,2.501-3.97-.89-.387-15.006-1.509-18.489l2.989-2.501Z"/>
  <path class="cls-15" d="M835.005,313.005l2.013,4.996c2.32-.701,2.865-4.805,5.629-4.854,6.536-.117-2.142,7.799-7.053,6.688-3.247-.735-2.941-9.885-1.582-10.841.678-.477,16.394,4.024.992,4.012Z"/>
  <path class="cls-15" d="M581.299,1198.742c.236.529,3.479,2.14,3.658,2.988.343,1.633-.036,3.659.242,5.571.241,1.661,3.168,3.723.156,4.551-1.651.454-3.634.071-5.356.152.141-2.093-.338-4.438.036-6.47.687-3.742,4.472-3.194-2.001-7.02l2.958-3.514c-.017,1.274-.24,2.514.308,3.742Z"/>
  <path class="cls-15" d="M681.006,1144.995c-5.507-.191-8.198,4.545-14.007,1.996,1.964-8.048,2.041-5.286,7.502-5.18,3.108.061,6.829-2.985,6.505,3.183Z"/>
  <path class="cls-15" d="M1139.99,909.995c-2.103,1.82-2.896-3.351-2.995-4.485-.481-5.525.235-11.073,1.01-16.506l2.995,2.507c-.948,2.594-.311,17.878-1.011,18.484Z"/>
  <path class="cls-15" d="M1159.008,886.007l2.992,2.506c-1.347,2.74,1.774,18.467-1.499,18.467-1.453,0-1.465-3.36-1.544-4.436-.14-1.906-.602-16.03.052-16.537Z"/>
  <path class="cls-15" d="M526,1104.01l-2.679,2.811-20.32,12.169c-.813-.768,5.74-6.223,6.756-6.955,4.316-3.111,11.042-7.077,16.244-8.026Z"/>
  <path class="cls-15" d="M1068.005,937.995c-.803-.848,2.075-13.434.999-15.998,7.917-1.208,2.905,5.756,2.329,10.628-.14,1.183.839,2.666.573,3.734-.414,1.661-3.4,2.165-3.901,1.636Z"/>
  <path class="cls-15" d="M1257.108,1294.151c-.557.972,2.485,7.473-4.089,7.843l-2.009-4.993,3.967.503c.21-1.344-3.583-2.965-2.969-3.49.391-.334,8.664-5.417,8.982-5.013,2.111,2.687-3.709,4.849-3.882,5.151Z"/>
  <path class="cls-15" d="M926.785,992.289c.455.664-.01,2.292.296,2.574.884.815,8.826-1.039,7.913,3.131-6.429.218-15.136.469-12.985-7.994,1.11.868,4.243,1.512,4.775,2.289Z"/>
  <path class="cls-15" d="M925.99,1250.998c.546.59,3.98,12.083,4,13.996-1.66.412-.383-1.674-1.695-2.017-.992-.259-2.241.105-3.303.02,2.015-7.423.695-4.546-3.988-8.502,1.483.239,3.589-5.007,4.986-3.497Z"/>
  <path class="cls-15" d="M931.996,1267.993c-1.002,4.029,1.63,6.36,1.999,10.002-2.66.398-3.016-2.224-3.005-3.994-4.217,3.781-5.893-.706-.994-2.512.616-2.573-2.777-.224-1.99-3.484l3.991-.012Z"/>
  <path class="cls-15" d="M1222.862,1307.171c.731,1.25-1.148,4.162-.875,5.826-.487.435-7.678-1.749-7.899-2.093-2.095-3.259,1.992-3.958,3.911-.393,3.845.382.455-4.838,1.009-5.51.718.578,3.742,1.979,3.853,2.17Z"/>
  <path class="cls-15" d="M693,1141.01c.518,4.91-9.8,5.6-10.993,3.982-2.384-3.232,4.702-2.043,5.23-2.152,1.824-.377,3.485-2.378,5.763-1.83Z"/>
  <path class="cls-15" d="M1228.742,1307.26c.656.721,2.573,6.438,2.254,6.734-6.221.41-4.844-3.311-5.992-7.988.464-.438,3.183.643,3.738,1.253Z"/>
  <path class="cls-15" d="M1115.995,917.005c.203,4.251.071,8.424-.972,12.562-.422,1.674,1.005,2.921-2.018,2.428,1.517-4.453.455-9.251.992-13.513.185-1.466.771-3.087,1.998-1.476Z"/>
  <path class="cls-15" d="M810.995,1175.01c.505,1.464-3.915.759-1.987,2.971.17.195,2.931.554,2.973,1.518.034.78-4.624,2.641-5.436,2.482-3.613-.709.886-8.455,4.451-6.971Z"/>
  <path class="cls-15" d="M1124.994,446.011c-.109,1.627-5.064,1.744-6.019,1.543-.872-.183-11.652-4.945-9.97-6.549,1.138-1.085,3.361,2.391,4.698,2.792,2.945.882,7.935.619,11.291,2.214Z"/>
  <path class="cls-15" d="M447,1208c1.707,4.444,5.175,2.796,3.073,7.566-.8,1.814-.956,3.146-3.073,1.434-1.067-2.676-1.39-6.494,0-9Z"/>
  <path class="cls-6" d="M448,1197c-.317,3.647-.871,7.077-1,11-.101,3.066-.009,5.928,0,9,.003,1-.002,2,0,3-.211-.337-.826-.383-1.003-1.461-.838-5.127-.821-16.955.015-22.031.229-1.392.545-2.105,1.987-2.507,1.654.47,1.594,2.273,0,3Z"/>
  <path class="cls-15" d="M912.005,1279.995c-1.572-4.822,2.059-5.068,2.763-6.198.956-1.535-.909-4.781,1.221-4.792.629,2.028-1.011,4.741-.707,6.361.441,2.346,3.764,3.117-3.277,4.629Z"/>
  <path class="cls-15" d="M968.991,624.999c-2.16-.978-7.177.874-5.981-3.489,1.104-4.027,7.131,2.038,5.981,3.489Z"/>
  <path class="cls-15" d="M554.996,1118.005c1.15,3.032-4.88,2.28-6.491,1.989-1.594-.288-3.532-2.027-2.498-2.99.331-.308,7.185,1.975,8.99,1.001Z"/>
  <path class="cls-15" d="M478.858,1136.876c-.139.226-4.447,2.527-4.854,2.118-.389-7.819,7.362-6.2,4.854-2.118Z"/>
  <path class="cls-15" d="M458,1196.99l4.987-8.983c2.388,2.373-3.288,10.707-4.987,8.983Z"/>
  <path class="cls-15" d="M909.005,1246.004c.223.174.304,5.382.23,5.656-.617,2.274-1.295,1.251-3.23,1.335l2.007-2.495c-2.684-.77-2.116-1.844-2.007-4.495.825.121,2.707-.23,3-.001Z"/>
  <path class="cls-15" d="M902.004,1257.008c2.615-2.035,5.465,1.308,3.991,2.987-.788.898-10.05-4.641-4.005-6.995l.014,4.007Z"/>
  <path class="cls-15" d="M524.995,1304.005c.315,3.526-6.715,3.784-8.995,3.985l5.084-3.224,3.91-.761Z"/>
  <path class="cls-15" d="M555.995,1108.005c.607,3.376-6.185,2.456-7.99,2.989-.499-3.801,5.752-2.853,7.99-2.989Z"/>
  <path class="cls-15" d="M1023.938,945.959c-.462.3-2.077-.086-2.934.035l2.007-7.988c2.101.347,1.659,7.478.927,7.953Z"/>
  <path class="cls-15" d="M974,622c9.952-2.853,5.535,6.148.147,1.811-.472-.38-.007-1.673-.147-1.811Z"/>
  <path class="cls-15" d="M986.995,642.005c.61,3.147-5.095,3.24-6.988,3.991-2.065-1.713,5.888-4.574,6.988-3.991Z"/>
  <path class="cls-15" d="M926.005,984.005c.864-.837,5.913,2.68,5.975,3.495.258,3.425-7.727-1.797-5.975-3.495Z"/>
  <path class="cls-15" d="M843.995,287.005c1.575,1.469-3.875,5.288-5.995,3.985.322-1.632,4.634-5.254,5.995-3.985Z"/>
  <path class="cls-15" d="M922.995,1276.995c-3.558,1.872-4.928-5.049-2.49-5.99.303-.117,2.967,5.562,2.49,5.99Z"/>
  <path class="cls-15" d="M1252.994,1312.004c.462,2.676-.482,1.735-2.172,2.284-3.321,1.08-3.334,1.462-4.816-1.795l6.988-.49Z"/>
  <path class="cls-15" d="M569.999,1206.01c.239.25-1.881,6.559-3.484,5.98-3.414-1.232,2.444-7.07,3.484-5.98Z"/>
  <path class="cls-15" d="M577.002,1163.01c2.928,2.624-6.732,1.461-7.002,1.98.268-3.039,5.725-3.125,7.002-1.98Z"/>
  <path class="cls-15" d="M601.997,1142.014c2.44,2.552-5.163,2.139-5.992,1.981-1.095-3.385,5.157-2.855,5.992-1.981Z"/>
  <path class="cls-15" d="M1071.99,1310.995c-1.789-.122-.712-3.083-1.51-4.974-.135-.319-5.093-6.139-.979-6.001,1.605.054,2.654,9.168,2.49,10.975Z"/>
  <path class="cls-15" d="M1095.995,1310.005l-.982,7.988c.57-3.589-3.998-8.063.982-7.988Z"/>
  <path class="cls-15" d="M696.005,1143.995v-2.99c2.088-.123,3.746-.381,4.975,1.495-1.229,1.876-2.887,1.618-4.975,1.495Z"/>
  <path class="cls-15" d="M848.718,436.28c1.081,1.364,1.354,3.025,1.277,4.715l-3.981-4.515c-.714-2.677,2.488-.473,2.704-.2Z"/>
  <path class="cls-15" d="M833,328c-1.737-1.991-4.474-3.728-3.99-7,3.192,1.15,3.057,4.536,3.99,7Z"/>
  <path class="cls-15" d="M636.515,1320.005c2.445-.538,3.333,3.47.97,3.99-2.445.538-3.333-3.47-.97-3.99Z"/>
  <path class="cls-15" d="M585,1152.01c.137.109-1.015,2.777-1.773,3.006-.831.251-2.305-.363-3.064.12-.622.396-1.104,5.95-5.157,4.858.285-2.125,4.337-5.376,5.948-6.541.965-.698,2.941-2.324,4.047-1.443Z"/>
  <path class="cls-15" d="M1025.995,931.005l-.005,1.48c-3.991,5.494-6.34-2.055.005-1.48Z"/>
  <path class="cls-15" d="M936.995,1136.995c-.661.615-3.498-.224-3.985-1.51-1.317-3.475,6.016-.379,3.985,1.51Z"/>
  <path class="cls-15" d="M480,1129.01c-.606,2.266-3.091,2.1-4.995,1.984-.06-3.874,2.365-2.228,4.995-1.984Z"/>
  <path class="cls-15" d="M1240.995,1304.995c-.223.208-2.181-.106-2.992-.001l1.008-4.987c.807-1.269,2.61,4.405,1.984,4.989Z"/>
  <path class="cls-15" d="M465.006,1187.994l-1.012-2.983c7.823-2.914,2.745,4.457,1.012,2.983Z"/>
  <path class="cls-15" d="M802.995,353.995c-1.772,1.905-4.477-4.005-1.495-3.975,1.029.01,2.114,3.31,1.495,3.975Z"/>
  <path class="cls-15" d="M884.995,517.005c1.016,1.156.176,5.649-2.995,3.985.676-1.379,1.226-5.996,2.995-3.985Z"/>
  <path class="cls-15" d="M876.99,510c-2.089-.808-3.346-2.748-2.98-5,2.089.808,3.346,2.748,2.98,5Z"/>
  <path class="cls-15" d="M805.995,274.005c2.011,1.769-2.605,2.319-3.985,2.995-1.665-3.171,2.829-4.011,3.985-2.995Z"/>
  <path class="cls-15" d="M930.995,1004.995c-.665.619-3.965-.466-3.975-1.495-.03-2.982,5.88-.278,3.975,1.495Z"/>
  <path class="cls-15" d="M830.995,289.005c.893.692.614,1.984-1.4,1.863-3.861-.232-5.92.536-9.595,1.122.405-2.219,10.537-3.34,10.995-2.985Z"/>
  <path class="cls-15" d="M570.995,1173.005c1.586,1.586-1.404,4.576-2.99,2.99s1.404-4.576,2.99-2.99Z"/>
  <path class="cls-15" d="M1236.995,1293.993c1.977,7.592-1.546,6.676-1.99.012l1.99-.012Z"/>
  <path class="cls-15" d="M568.995,1180.005c.295.295.644,3.795-1.48,2.985-3.624-1.383-.26-4.725,1.48-2.985Z"/>
  <path class="cls-15" d="M502,1120.01c-1.066,1.827-2.898,4.242-4.999,3.98,1.066-1.827,2.898-4.242,4.999-3.98Z"/>
  <path class="cls-15" d="M594.995,1144.005c.295.295.644,3.795-1.48,2.985-3.624-1.383-.26-4.725,1.48-2.985Z"/>
  <path class="cls-15" d="M457.995,1198.005c1.502,1.685-1.276,4.5-2.99,2.99-1.07-.943,2.034-4.063,2.99-2.99Z"/>
  <path class="cls-15" d="M920.515,1145.005c2.121-.48,3.107,2.507.97,2.99-2.121.48-3.107-2.507-.97-2.99Z"/>
  <path class="cls-15" d="M931,644c1.445.593,2.538-1.285,1.99,3-1.86-.156-1.512-2.065-1.99-3-.711-.292-4.733-1.258-2.995-2.995,1.772-1.771,2.696,2.41,2.995,2.995Z"/>
  <path class="cls-15" d="M1250.995,1304.995c-1.037,1.024-4.008-1.985-2.99-2.99,1.037-1.024,4.008,1.985,2.99,2.99Z"/>
  <path class="cls-15" d="M645.995,1158.005c1.018,1.005-1.952,4.014-2.99,2.99-1.018-1.005,1.952-4.014,2.99-2.99Z"/>
  <path class="cls-15" d="M990.995,577.005c1.046.969-1.88,4.566-2.985,1.48-.756-2.111,2.617-1.82,2.985-1.48Z"/>
  <path class="cls-15" d="M842.995,323.005c1.018,1.005-1.952,4.014-2.99,2.99-1.018-1.005,1.952-4.014,2.99-2.99Z"/>
  <path class="cls-15" d="M844.99,445.999c-2.164-1.116-3.852-3.738-1.485-4.994l1.485,4.994Z"/>
  <path class="cls-15" d="M919,1252.99l-3.995.005v-1.99c1.865-.258,3.46-.003,3.995,1.985Z"/>
  <path class="cls-15" d="M879.984,511.004c.161.129,1.086,3.253,1.006,3.995-3.531-.805-3.578-6.06-1.006-3.995Z"/>
  <path class="cls-15" d="M1242,1294.99c-1.438,1.137-3.863-2.025-2.99-3.99,1.238-.016,3.185,3.835,2.99,3.99Z"/>
  <path class="cls-15" d="M514.995,1132.005c1.539,1.447-2.27,3.262-3.994,2.985.271-1.358,3.114-3.813,3.994-2.985Z"/>
  <path class="cls-15" d="M776.995,343.005l-.49,3.99c-1.539-1.078-1.741-2.146-1.5-3.99h1.99Z"/>
  <path class="cls-15" d="M572.995,1168.006c.592,1.176-1.416,3.443-1.983,2.992l-1.002-3.998,2.985,1.006Z"/>
  <path class="cls-15" d="M1069.995,1295.005c.341.368.631,3.741-1.48,2.985-3.086-1.105.51-4.032,1.48-2.985Z"/>
  <rect class="cls-15" x="653.005" y="1154.005" width="1.99" height="2.99"/>
  <path class="cls-15" d="M502,1128.01c-.72,1.629-2.196,3.309-3.999,2.98.72-1.629,2.196-3.309,3.999-2.98Z"/>
  <path class="cls-15" d="M1103.995,912.995h-1.99c-.545-.551,1.439-5.201,1.985-3.99l.005,3.99Z"/>
  <path class="cls-15" d="M510,1136.01c-.72,1.629-2.196,3.309-3.999,2.98.72-1.629,2.196-3.309,3.999-2.98Z"/>
  <path class="cls-15" d="M841.995,437.995h-1.99c-.545-.551,1.439-5.201,1.985-3.99l.005,3.99Z"/>
  <rect class="cls-15" x="880.005" y="304.005" width="2.99" height="1.99"/>
  <rect class="cls-15" x="852.005" y="453.005" width="2.99" height="1.99"/>
  <path class="cls-15" d="M588.995,1148.005c1.542,1.528-2.823,3.194-2.985,2.995-.997-1.234,2.03-3.941,2.985-2.995Z"/>
  <rect class="cls-15" x="564.005" y="1203.005" width="2.99" height="1.99"/>
  <path class="cls-7" d="M448,1194c3.08-.859,3.094,3.821,0,3,.086-.985-.106-2.02,0-3Z"/>
  <rect class="cls-15" x="562.005" y="1189.005" width="1.99" height="2.99"/>
  <rect class="cls-15" x="565.005" y="1186.005" width="2.99" height="1.99"/>
  <path class="cls-15" d="M816,1178.99c-1.865.268-3.465.008-4-1.98,1.865-.268,3.465-.008,4,1.98Z"/>
  <rect class="cls-15" x="563.005" y="1175.005" width="2.99" height="1.99"/>
  <path class="cls-15" d="M931.005,1166.005c.574-.574,2.975.832,2.975,1.495-.001,2.768-4.486.016-2.975-1.495Z"/>
  <path class="cls-15" d="M477.995,1151.005c.308,1.38-.539,2.659-1.985,2.995l-.005-2.995h1.99Z"/>
  <path class="cls-15" d="M841.01,433v-3.995s.978.002.978.002c.469,2.128,1.721,3.103-.978,3.993Z"/>
  <path class="cls-15" d="M1232,1304.01l2.99-1.01c.11,2.79-1.966,4.013-2.99,1.01Z"/>
  <path class="cls-15" d="M936.995,1287.005l-.49,2.99c-1.059-.911-1.824-1.516-1.5-2.99h1.99Z"/>
  <rect class="cls-15" x="546.005" y="1102.01" width="4.99" height=".98"/>
  <path class="cls-15" d="M921.995,1282.995h-1.99c-.324-1.474.441-2.079,1.5-2.99l.49,2.99Z"/>
  <rect class="cls-15" x="706.005" y="1143.01" width="4.99" height=".98"/>
  <path class="cls-15" d="M747.995,249.005c.308,1.38-.539,2.659-1.985,2.995l-.005-2.995h1.99Z"/>
  <path class="cls-15" d="M801,246.99l2.99-2.99c.33,1.892-1.166,3.328-2.99,2.99Z"/>
  <path class="cls-15" d="M989.995,633.005l-.49,2.99c-1.059-.911-1.824-1.516-1.5-2.99h1.99Z"/>
  <path class="cls-15" d="M849.995,455.995h-1.99s.005-2.995.005-2.995c1.446.336,2.293,1.615,1.985,2.995Z"/>
  <rect class="cls-15" x="1132.01" y="899.005" width=".98" height="4.99"/>
  <path class="cls-15" d="M847.995,450.995h-1.99s.005-2.995.005-2.995c1.446.336,2.293,1.615,1.985,2.995Z"/>
  <path class="cls-15" d="M938.995,652.005l-.49,2.99c-1.059-.911-1.824-1.516-1.5-2.99h1.99Z"/>
  <path class="cls-15" d="M733.987,1132.993c-.142.14-.654-.05-.977.003-.272-1.784.059-3.506,1.98-3.995.107.785-.774,3.766-1.003,3.992Z"/>
  <path class="cls-15" d="M975.995,646.01l-.002.978c-2.106.332-2.565,1.674-3.988-.493l3.99-.485Z"/>
  <path class="cls-15" d="M1050.99,1232l-2.99-2.99c1.824-.339,3.32,1.098,2.99,2.99Z"/>
  <path class="cls-15" d="M781,331c.248-.73-1.929-3.502.99-4,.77,1.49-.992,3.63-.99,4Z"/>
  <path class="cls-11" d="M834.995,1266.995c-.562.515-2.717-.218-3.574-.91-2.8-2.261-.427-4.495-.627-6.58-.462-4.823-1.979-9.593-1.786-14.503,2.278,2.914,7.537-.056,8.839,3.668.697,1.993-1.21,8.327-2.109,10.564-.636,1.584-2.533,2.65-2.676,3.386-.25,1.289,2.973,3.422,1.933,4.374Z"/>
  <path class="cls-11" d="M846.008,1270.998c.149-.247,3.352,2.321,3.002-3.002,3.281.001,3.451,2.22,2.239,4.739-2.382,4.953-6.736.736-5.241-1.737Z"/>
  <path class="cls-11" d="M897.991,1300.999c-5.869-1.404-3.84-6.682-.486-9.994.803,3.475-1.238,6.54.486,9.994Z"/>
  <path class="cls-11" d="M843,1264.01l-2.484,5.98c-3.045-2.613-1.741-6.753,2.484-5.98Z"/>
  <path class="cls-11" d="M902.995,1293.005c.878.784-2.439,5.765-2.985,4.994l-.006-5.005,2.991.011Z"/>
  <path class="cls-11" d="M841.995,1257.005l-.49,4.99c-2.013-1.754-2.733-5.858.49-4.99Z"/>
  <path class="cls-11" d="M896.995,1321.005c-.29,3.847-1.916,3.179-3.99.49l3.99-.49Z"/>
  <path class="cls-11" d="M852.99,1256c-.856-.221-2.772-1.93-2.981-2.514-1.04-2.912,4.175-1.298,2.981,2.514Z"/>
  <rect class="cls-11" x="833.005" y="1280.005" width="1.99" height="3.99"/>
  <path class="cls-11" d="M836.99,1333c-1.987-.535-2.248-2.135-1.98-4,1.987.535,2.248,2.135,1.98,4Z"/>
  <rect class="cls-11" x="840.005" y="1272.005" width="1.99" height="2.99"/>
  <path class="cls-11" d="M847.995,1278.995c-.574.574-2.975-.832-2.975-1.495.001-2.768,4.486-.016,2.975,1.495Z"/>
  <path class="cls-11" d="M662.996,1304.011c.367,1.822-.454,1.99-1.767,2.719-3.301,1.833-8.467,3.79-12.225,3.26l8.949-4.58c1.508-3.482,1.862-2.239,5.042-1.399Z"/>
  <path class="cls-11" d="M1173.995,1294.995c-5.77-.073.196-8.435-3.504-9.986-5.538-2.321.974,7.187-3.486,5.986-.842-6.133.163-7.429,4.056-11.516l-3.051-21.48c2.048.39,1.606,2.139,1.984,3.506,2.807,10.146,3.354,22.922,4.001,33.489Z"/>
  <path class="cls-11" d="M1156.994,1219.994c1.626,9.796,8.252,19.055,8.996,29.006-4.067-3.035-4.098-9.28-5.482-13.007-1.54-4.147-4.494-9.305-5.473-13.537-.465-2.011-.333-2.874,1.96-2.462Z"/>
  <path class="cls-11" d="M1170.995,1305.005c-2.453,3.822,1.994,7.071,1.987,7.496-.013.815-2.937,1.143-3.066,2.145-.248,1.917,2.359,6.546-.411,9.349l-1.502-16.493,2.991-2.497Z"/>
  <path class="cls-11" d="M1179.994,1274.995l.996,15c-1.497.271-1.218-1.533-1.413-2.509-.579-2.902-1.371-8.109-1.483-11.037-.073-1.896,1.036-2.528,1.9-1.455Z"/>
  <path class="cls-11" d="M1158.995,1263.995c-2.601.48-1.762-.483-2.454-1.99-1.164-2.535-1.795-5.192-1.531-8.005,3.092,1.827,3.962,6.657,3.984,9.995Z"/>
  <path class="cls-11" d="M1154.99,1219c-1.71-2.06-3.827-6.144-4.889-8.6-.624-1.444-1.34-2.735-1.091-4.395,1.301.542,3.151,3.565,3.72,4.766,1.215,2.565,2.484,5.267,2.26,8.228Z"/>
  <path class="cls-11" d="M1173.99,1255c-2.391-1.554-5.023-8.751-2.485-10.995,1.435,3.52,3.104,7.049,2.485,10.995Z"/>
  <path class="cls-11" d="M1144.984,1196.004c.16.13,1.246,3.76,1.011,3.991-1.205,1.178-3.956-1.989-2.99-3.99.615.062,1.787-.157,1.979-.001Z"/>
  <path class="cls-11" d="M1169.995,1298.995h-1.99c-.242-1.843-.039-2.912,1.5-3.99l.49,3.99Z"/>
  <rect class="cls-11" x="1160.01" y="1293.005" width=".98" height="5.99"/>
  <path class="cls-11" d="M1173.99,1303c-2.428-.911-2.67-2.449-.485-3.995l.485,3.995Z"/>
  <path class="cls-11" d="M1121.995,1257.994c-2.38.402-1.904-.242-2.462-1.981-2.509-7.825-4.712-14.492-7.641-22.211-2.003-5.278-4.198-13.699-6.811-19.388-1.642-3.576-5.446-7.217-6.073-11.413,6.182,4.749,7.948,13.086,10.791,19.699,3.767,8.764,7.955,18.001,10.675,27.325.746,2.557,1.213,5.327,1.52,7.969Z"/>
  <path class="cls-11" d="M1129.992,1304.007c1.016.753.448,15.412.998,17.993-5.731-2.786-2.281-6.988-2.184-9.65.047-1.285-1.312-2.129-1.412-3.045-.116-1.06-.067-7.276,2.599-5.298Z"/>
  <polygon class="cls-11" points="1127.995 1289.005 1125.004 1289.005 1124.01 1270.005 1127.74 1282.756 1127.995 1289.005"/>
  <path class="cls-11" d="M1129.995,1302.995c-5.008-.126-1.948-4.289-2.282-6.344-.324-1.995-3.61-2.618.792-5.646l1.49,11.99Z"/>
  <path class="cls-11" d="M1129.995,1327.995c-1.048,1.127-6.115-3.916-4.99-4.99,2.706.087,5.702,1.779,4.99,4.99Z"/>
  <rect class="cls-11" x="1089.005" y="1207.005" width="1.99" height="2.99"/>
  <rect class="cls-11" x="1122.01" y="1261.005" width=".98" height="4.99"/>
  <path class="cls-11" d="M1138.995,1313.005l-.49,2.99c-1.059-.911-1.824-1.516-1.5-2.99h1.99Z"/>
  <path class="cls-11" d="M590,1330c.416-1.221.45-3.215,1.495-3.995l2.5,5.99c-1.89.454-2.603-1.469-3.995-1.995-.165.485.135,1.37-.004,1.997-2.493,1.782-7.8-4.95.004-1.997Z"/>
  <path class="cls-11" d="M621.01,1320l.485-3.995c2.185,1.546,1.943,3.084-.485,3.995Z"/>
  <path class="cls-11" d="M1075.011,1287.999c-.328-3.882-3.049-6.001-.999-9.997,2.353,1.195,4.029,9.081.999,9.997Z"/>
  <rect class="cls-11" x="1070.505" y="1266.503" width="2.992" height="1.992" transform="translate(-197.367 2337.285) rotate(-89.9)"/>
  <path class="cls-11" d="M1007,285c1.481-2.009,19.07-12,21.5-12h16.5c.333-1.688-.445-2.036-1.64-2.86-6.067-4.181-17.981-3.838-24.351-.141l.988-3.991-16.997,2.983c6.889-7.441,17.451-10.056,25-15.98-2.762-2.074-38.294,18.417-42.923,22.567-4.575,4.102-4.779,9.471-7.605,12.451-.742.782-1.988.198-2.518.587-.2.147-2.63,5.307-2.966,1.874-.399-4.083,3.859-8.799-2.027-11.016-.752-3.407,1.644-2.234,3.381-3.594,33.405-26.15,64.178-36.7,106.167-40.871,3.831-.381,19.044,1.624,20.051.027.449-.712-1.015-2.581-.123-4.01.605-.968,3.358-1.603,3.575-2.547.335-1.455-2.61-2.584-2.007-4.473,7.425-1.511,8.356,7.164,13.985,9.994l-11.978-21.517,4.969-2.981c-2.173-2.105-3.313-4.084.015-4.996-3.404-2.142-3.74-5.634,1.062-4.074,2.763.897,5.182,4.758,7.446,6.564l.99-2.99.51,4.991c5.195-3.051,3.324,7.676,9.559,3.064,3.425-2.533-1.744-4.02-.069-7.055,4.975,4.548,2.24,11.13,2.573,16.419.275,4.362,1.842,8.673,1.475,14.113-.12,1.784-1.854,2.704-1.381,5.706,1.061,6.745,6.266,5.241,6.845,5.762.263.237-.765,6.746-1.009,7.002-.678.711-4.036-2.152-4.968.479,2.167,2.966,1.209,7.604,2.495,10.484,1.003,2.246,5.761,5.402,6.714,7.268,4.906,9.61,2.833,22.552,1.75,32.762-4.174-3.854-.257-10.246-1.235-16.265-.327-2.011-3.614-11.513-5.333-11.755-4.579-.646-2.823,3.831-3.648,6.295-.144.431-4.428,7.449-4.793,7.719-2.812,2.078-3.581-4.235.018-5.984-3.999-.442-3.327,2.239-4.307,3.626-.581.823-2.138.806-2.542,2.02-.513,1.54,1.318,3.002-1.255,5.726-.928.185-5.166,4.458-5.892,3.611-.257-.299,1.783-4.384-.328-7.693-.413-.647-2.26-.767-2.51-1.861-.698-3.057-1.126-8.969-2.162-12.714-.338-1.223-4.14-1.839-4.815-4.444-.452-1.743.629-7.86-.179-10.281l5.985,5.995c1.293-9.948-11.198-11.333-18.498-9.995-4.57.838-3.603,8.934-5.403,11.365-.887,1.198-3.218.305-3.94,2.276-1.703,4.649-.038,14.931-2.165,20.354-1.39.201-1.926-3.932-1.909-4.608.061-2.371,1.432-4.116,1.429-5.852-.009-5.27-3.266-17.671-2.541-20.888.148-.658,3.865-.874,2.023-2.644-.296-.284-3.08,1.03-4.41.95-3.224-.192-4.7-3.389-6.994.115-2.491,3.805-1.569,7.763-3.604,11.499l2.02,4.423c-6.028-1.187-1.688,6.08-2.227,9.254-.083.485-4.064,8.527-4.502,8.751-2.791,1.431-7.921.485-10.257-1.516-1.569-1.344-.766-2.566-1.057-3.963-1.165-5.604-4.115,5.084-5.942,6.003-.789.397-15.118,1.723-16.488,1.461-3.668-.699-7.426-7.242-6.536-10.989-5.693-1.072-6.345,3.073-8.978,5.526-5.354,4.989-4.585-2.037-2.019-5.519Z"/>
  <path class="cls-11" d="M896,446c3.232.695,5.455-2.651,7.954-3.554,3.117-1.126,5.911,1.22,5.055-3.452,1.99,2.299,4.399,1.416,6.254,2.064,1.055.369.349,2.034,2.087,1.947,2.384-.119,10.22-1.665,12.875-2.281,1.907-.442,3.77-2.649,6.398-2.723,2.493-.07,3.259,1.985,4.868,2.035.61.019.343-1.81,1.164-2.031,3.213-.866,6.531,1.014,8.892.883,2.934-.163,8.415-3.332,13.94-2.965,4.643.308,14.06,6.733,15.008,6.728,1.037-.006,2.541-1.489,4.089-1.652,4.674-.491,10.33-.496,14.912-.914,3.836-.35,7.508-1.711,11.498-1.091.138-5.65-9.339-.315-11.488-.391-2.693-.095-10.938-2.088-13.93-1.6-1.789.292-3.079,2.381-5.057,1.999-.735-.142-2.126-1.737-.532-2.513.457-.319,10.022-3.448,10.591-3.487,2.395-.165,4.253,1.924,6.924,2.068,4.523.244,8.33-2.629,11.946-3.12,6.497-.883,11.487,1.598,15.839,1.788,5.187.226,14.493-3.959,20.707-1.731,2.462,2.582-11.514,4.919-12.992,5.497-4.216,1.648-8.542,5.381-13.742,6.258-5.836.985-21.399,1.125-26.317,3.805-1.41.768-1.488,3.156-2.668,3.441-8.159,1.97-16.79,2.725-24.94,4.828-2.328.601-4.055,2.454-5.277,2.749-1.171.283-2.129-1.431-3.527-1.506-6.18-.33-.92,5.259-4.048,5.916-2.223.467-2.282-2.843-2.508-2.995-.416-.28-1.932,1.841-3.502,2.013-2.539.278-4.704-1.855-6.019-1.993-.278-.029-.139,1.112-4.456,1.98q-2.293-1.85,0,0c1.479,5.652,1.704,2.555,5.098,5.425,1.025.867,1.408,2.668,2.233,3.246,2.101,1.471,11.649,4.691,11.679,6.819.01.734-6.44.772-7.345.553-.896-.216-2.526-7.327-5.665-5.033-.586.428,2.345,1.985,2.003,3.468-1.45.355-8.035,4.53-8.514,4.49-.414-.035-4.218-5.293-3.484-5.963l6.48,2.011c2.054-3.84-5.697-3.466-7.858-4.169-1.641-.534-1.437-2.644-1.671-2.818-1.103-.819-3.051,2.113-4.326,1.895-.459-.079-5.866-4.923-7.181-5.918-2.234-1.69-3.782-3.332-5.385-4.544s-7.549-5.984-8.577-6.454c-3.468-1.583,1.952,6.394-2.482,4.987,1.453-7.961-4.648-5.409-5.005-13.995Z"/>
  <path class="cls-11" d="M896,446c-.745-.16-4.211-4.356-4.515-5.062-2.185-5.08,5.988-13.741,8.027-17.926,3.66-7.509,4.192-16.706,6.711-24.289,1.666-5.015,12.23-23.755,15.363-28.637,2.331-3.632,6.775-5.331,8.921-9.111,5.177-.321,1.119,2.323.281,4.313-2.092,4.972-7.939,16.668-7.826,21.256.124,5.067,3.286,3.405,4.051-.542,2.127.939,1.519,2.997,4.249,3.781,4.344,1.248,7.542-3.903,9.053-3.66.657.106,3.273,2.29,5.13,2.931,4.305,1.486,9.743,2.103,13.583,3.417,10.064,3.443,8.863,7.426,22.186,3.244,3.636-1.141,5.839-4.217,9.785-3.705.228.171-1.209,2.565-1.738,3.028-7.56,6.618-16.245,12.349-26.947,12.622-4.85.124-2.303-1.575-2.581-3.009-.731-3.765-9.283-4.239-12.487-2.897s-1.913,2.299-7.247,3.245c-.121,3.529-1.958,1.232-4.99,3-.229-3.715,2.837-2.618,4.99-3,.024-.704.413-2.149-.602-2.022-6.633,3.186-14.13-7.146-17.1-7.878-3.516-.866-7.825,5.848-8.084,8.565-.226,2.376,3.78,5.12,2.78,6.329-1.594,1.928-2.276-1.964-2.485-2.02-3.488-.925-1.995,1.485-3.103,2.93-4.93,6.422-6.075,9.055-9.293,15.649-1.19,2.438-3.18,2.526-4.432,5.614-1.193,2.942-1.816,10.577-1.681,13.832Z"/>
  <path class="cls-11" d="M1012.346,361.653c10.954,10.627,20.132,22.18,30.619,32.893,3.613,3.691,11.4,7.847,13.766,10.748,1.558,1.91-.033,3.663.424,5.016.609,1.805,6.642,3.883,4.84,8.684-1.912,1.982-8.856-6.667-10.517-7.973-12.909-10.153-15.141-14.916-25.484-26.516-1.812-2.032-5.275-3.349-7.004-5.996-2.013-3.083-2.271-7.152-4.346-10.654-2.957-4.991-10.327-8.407-10.151-13.849,3.816,1.457,5.426,5.293,7.852,7.647Z"/>
  <path class="cls-11" d="M1085,152.978c-.844.022-2.952.934-2.981,1.521-.049,1.006,12.587,12.37,14.668,13.807,4.202,6.923,7.574,11.529,10.852,18.655.487,1.059,4.73,3.896,3.456,5.034-1.015.907-3.041-.583-4.011-1.479-4.026-3.714-14.383-18.051-18.02-20.022-1.608-.872-3.044.297-4.073-.048-6.029-2.021-9.781-6.157-.895-2.451.836-5.479-.974-3.244-3.689-4.761-5.587-3.123-4.833-4.465-7.649-8.908-.459-.723-4.219-1.858-2.628-4.28.282-.429,6.074-2.243,7.393-2.059,1.658.232,6.466,3.332,7.578,4.991Z"/>
  <path class="cls-11" d="M1123.994,409.011c.439,2.131-12.063,1.091-8.995,3.978l14.994,1.998c-2.567.011-4.262,2.556-6.541,2.978-3.378.626-10.492-2.285-12.01.013-2.217,3.355,6.058,7.777,4.556,9.016-5.104-.786-3.165.645-4.376,2.618-.279.454-1.664.425-1.66.897.006.643,4.03,5.862.554,4.481-1.87-.744-3.855-6.643-3.578-8.386.11-.695,1.992-.563,1.969-1.028-.198-3.99-1.128-8.882-.792-12.959,1.242-15.098,6.237-4.974,15.881-3.606Z"/>
  <path class="cls-11" d="M814.994,153.004c2.36,2.572-4.219,6.315-4.489,6.919-.471,1.056,1.202,4.278-.504,6.068,14.058-2.771,4.265,3.508-2.996,2.014,4.179,8.149-2.623,4.356-7.959,3.94-2.627-5.037,12.936-22.224,15.948-18.941Z"/>
  <path class="cls-11" d="M911.004,360.005c.108.11.486,3.138-.68,3.009-9.404,2.524-19.637,9.07-29.68,8.634-2.566-.112-10.554-3.022-5.163-3.651,6.066-.707,12.402-.977,18.514-1.007l-4.987-2.977c3.248-.073,20.676-5.352,21.997-4.008Z"/>
  <path class="cls-11" d="M867.799,419.241c.209.121,2.2,3.599,2.105,4.123-.308,1.701-5.23,3.357-.404,7.616.84-.029,1.744-5.598,4.027-1.988.835,1.32-.644,3.045-.518,4.471.159,1.799,2.617,3.24,1.984,5.532-1.949.37-3.038-1.541-4.73-1.853-2.764-.51-5.76,2.039-8.256-1.656-.641-2.68,2.516-.977,2.981-1.499,1.554-1.741-4.952-10.966-3.986-11.981,1.513-1.59,2.793,3.945,4.992,1.987.295-.262-3.048-7.567,1.803-4.752Z"/>
  <path class="cls-11" d="M1013.997,384.007c-2.875,8.749-11.344,8.09-18.992,8.988,1.21-7.912,12.099-11.652,18.992-8.988Z"/>
  <path class="cls-11" d="M997.995,331.995c-1.377,1.383-2.965-.982-3.804-1.686-3.418-2.868-8.281-6.146-7.186-11.304,1.294-1.526,12.497,11.476,10.989,12.99Z"/>
  <path class="cls-11" d="M987.999,679.01c.811.793-11.875,16.258-13.5,17.971-6.064-4.796,4.835-9.054,8.211-12.275.331-.316,3.512-7.435,5.289-5.696Z"/>
  <path class="cls-11" d="M925.837,405.204c1.799,2.674,9.898,7.163,1.226,6.226-5.997-.648-8.556-5.669-1.226-6.226Z"/>
  <path class="cls-11" d="M1149.997,361.007c-1.544,2.945.136,5.488-.168,8.229-.111,1-1.4,5.521-2.819,5.759-1.269-5.012-.538-9.002-.007-14.002l2.993.015Z"/>
  <path class="cls-11" d="M825.041,356.042c-.42.423.152,2.98-.044,3.966-6.718.45-.286-3.295-.547-7.036l6.54-1.972c1.318,5.423-5.482,4.571-5.949,5.042Z"/>
  <path class="cls-11" d="M945.524,292c1.767-.363,4.28,1.138,5.458,2.501l-4.482,5.48c-1.109.056-3.3-7.502-.976-7.98Z"/>
  <path class="cls-11" d="M1120.012,306.002c2.287-.163,7.295,5.958,3.478,6.989-3.734,1.008-4.59-4.454-3.478-6.989Z"/>
  <path class="cls-11" d="M975.994,300.992c-.156.206-3.61,1.507-4.533.05-1.378-2.176.134-4.869.552-7.035,1.198.394,4.298,6.565,3.981,6.985Z"/>
  <path class="cls-11" d="M1007,285l-4.995-2.495c.978-1.077,5.364-6.107,6.99-4.5,2.257,2.231-5.16,4.098-1.995,6.995Z"/>
  <path class="cls-11" d="M775.768,241.753c-.106.212-1.252.227-1.39.565-.479,1.174-.689,4.615-1.878,4.661-3.986.154,2.277-9.682,1.511-10.974,1.443-.12,1.892,5.479,1.757,5.747Z"/>
  <path class="cls-11" d="M1114.903,195.103c.534.585-.118,3.681.092,4.892-.652.775-5.972-3.148-5.976-3.494-.022-1.864,4.801-2.584,5.885-1.398Z"/>
  <path class="cls-11" d="M851.995,270.005c.794,4.344-7.944,3.493-7.975,1.495-.03-1.93,6.477-1.6,7.975-1.495Z"/>
  <path class="cls-2" d="M760.994,207.005c.472,1.909-2.67,3.557-4.01,4.472-.96.656-1.167,2.033-2.979,1.518-1.385-5.225,3.093-3.922,6.989-5.99Z"/>
  <path class="cls-11" d="M966.993,293.997l-4.992-1.004c1.007-5.456,5.813-5.268,4.992,1.004Z"/>
  <path class="cls-11" d="M971.995,663.995c-3.743.441-.159-4.275-4.994-2.999-.028-7.579,4.973-1.306,4.994,2.999Z"/>
  <path class="cls-11" d="M1095.995,182.995c-1.121,1.109-7.102-4.89-5.99-5.99,1.936-.582,6.982,5.009,5.99,5.99Z"/>
  <path class="cls-11" d="M845.995,403.995c-3.584,1.155-4.027-3.664-4.985-5.995,2.639,1.184,5.578,2.482,4.985,5.995Z"/>
  <path class="cls-11" d="M845.995,333.005c1.419,1.32-4.497,6.096-5.985,2.48l5.985-2.48Z"/>
  <path class="cls-11" d="M813.01,152c-.109-3.046,2.399-5.081,4.98-5.999.56,3.502-2.32,4.831-4.98,5.999Z"/>
  <path class="cls-11" d="M1010.001,575.011c1.481-.237,6.701-1.954,5.994,1.475-.566,2.747-5.612.629-5.994-1.475Z"/>
  <path class="cls-11" d="M822.995,351.005c1.646,1.643-2.553,6.34-3.985,2.485-1.281-3.448,3.554-2.914,3.985-2.485Z"/>
  <path class="cls-11" d="M871.995,457.995c-1.119,1.042-4.736-.608-3.985-3.484,1.004-3.849,5.006,2.535,3.985,3.484Z"/>
  <path class="cls-11" d="M1127.995,432.005v3.99c-6.153,1.166-5.369-3.798,0-3.99Z"/>
  <path class="cls-11" d="M1010.995,580.005c1.024,1.027-.115,6.031-2.982,3.992-2.313-1.646,1.166-5.813,2.982-3.992Z"/>
  <path class="cls-11" d="M1020.005,575.995l3.982-5.988c1.648,2.966-.892,5.69-3.982,5.988Z"/>
  <path class="cls-11" d="M1042,340.01l-7.995,1.98c1.084-2.244,5.916-1.804,7.995-1.98Z"/>
  <path class="cls-11" d="M938.991,487.001c.983,2.845-5.738,3.219-5.985,2.994-2.666-2.42,5.549-2.877,5.985-2.994Z"/>
  <path class="cls-11" d="M918.005,401.995c-.576-3.093.478-2.971,2.984-3.994,1.178,3.231.808,4.254-2.984,3.994Z"/>
  <path class="cls-11" d="M945.998,410.989c-1.187-.271-2.604,1.162-3.476,1.017-3.068-.512,1.003-6.993,3.476-1.017Z"/>
  <path class="cls-11" d="M832.005,363.995v-3.99c3.982.023,3.93,3.991,0,3.99Z"/>
  <path class="cls-11" d="M1003.995,292.005c-.133,1.68-.681,4.638-2.48,3.985-3.319-1.204,1.492-4.946,2.48-3.985Z"/>
  <rect class="cls-11" x="1131.503" y="441.505" width="1.992" height="4.992" transform="translate(685.581 1575.352) rotate(-89.852)"/>
  <path class="cls-11" d="M930.995,483.995c-.117.133-1.358-.05-1.989,0l.005-4.995c1.897.003,2.576,4.326,1.985,4.995Z"/>
  <polygon class="cls-11" points="975.001 676.982 970.01 680 973 675.473 975.001 676.982"/>
  <path class="cls-11" d="M952.996,600.016c.156.192-.063,1.364-.001,1.979-2.001.966-5.168-1.785-3.99-2.99.231-.236,3.861.851,3.991,1.011Z"/>
  <path class="cls-11" d="M1001.995,582.005c1.51,1.713-1.304,4.492-2.99,2.99-1.073-.956,2.047-4.06,2.99-2.99Z"/>
  <path class="cls-11" d="M831.995,365.005c1.502,1.685-1.276,4.5-2.99,2.99-1.07-.943,2.034-4.063,2.99-2.99Z"/>
  <path class="cls-11" d="M841.995,272.01c.681,1.359-4.556,2.393-4.99,1.985v-1.99s4.99.005,4.99.005Z"/>
  <path class="cls-11" d="M944.995,285.995c-1.713,1.51-4.492-1.304-2.99-2.99.956-1.073,4.06,2.047,2.99,2.99Z"/>
  <path class="cls-11" d="M950.005,406.995c-.341-.368-.631-3.741,1.48-2.985,3.086,1.105-.51,4.032-1.48,2.985Z"/>
  <path class="cls-11" d="M871.995,447.005c.341.368.631,3.741-1.48,2.985-3.086-1.105.51-4.032,1.48-2.985Z"/>
  <path class="cls-11" d="M993,648.01c-.535,1.988-2.13,2.243-3.995,1.985v-1.99s3.995.005,3.995.005Z"/>
  <path class="cls-11" d="M868.995,441.005c.258,1.865.003,3.46-1.985,3.995l-.005-3.995h1.99Z"/>
  <path class="cls-11" d="M841.01,364c-.268-1.865-.008-3.465,1.98-4,.268,1.865.008,3.465-1.98,4Z"/>
  <path class="cls-11" d="M996.988,642.002c.18.147,1.894,3.982-.473,2.989-2.684-1.126-1.4-4.521.473-2.989Z"/>
  <polygon class="cls-11" points="991.995 619.005 991.505 621.995 989 619.01 991.995 619.005"/>
  <rect class="cls-11" x="862.005" y="407.005" width="1.99" height="2.99"/>
  <path class="cls-11" d="M927.005,475.005c.574-.574,2.975.832,2.975,1.495-.001,2.768-4.486.016-2.975-1.495Z"/>
  <path class="cls-11" d="M848.995,408.005c.308,1.38-.539,2.659-1.985,2.995l-.005-2.995h1.99Z"/>
  <path class="cls-11" d="M938.988,383.993l-.978.002v-3.995c2.698.89,1.447,1.865.978,3.993Z"/>
  <path class="cls-11" d="M815,350.01c-.336,1.446-1.615,2.293-2.995,1.985v-1.99s2.995.005,2.995.005Z"/>
  <path class="cls-11" d="M776.99,379c-1.349,1.796-11.659-16.022-14.495-16.995l-1.482,4.988c-1.148-5.113-7.808-37.93-5.005-39.986,1.346-.987,4.219,2.533,4.483,3.859.287,1.444-.683,3.434-.412,5.462.682,5.105,1.906,13.783,3.702,18.393,1.56,4.003,15.6,21.097,13.21,24.28Z"/>
  <path class="cls-11" d="M806.724,395.262c1.673,1.729,1.51,5.039-1.11,4.652-4.513-4.293-10.901-4.751-10.611-11.907,3.615-.4,5.534,3.284,8.057,5.458,1.022.88,2.916,1.023,3.664,1.797Z"/>
  <path class="cls-11" d="M816.643,405.358c.658.623,3.005,4.02,2.352,4.637-14.145.847-10.608-12.456-2.352-4.637Z"/>
  <path class="cls-11" d="M784.99,392c-2.552-.774-2.004-3.801-1.98-6,2.552.774,2.004,3.801,1.98,6Z"/>
  <path class="cls-11" d="M787.995,395.995c-1.772,1.905-4.477-4.005-1.495-3.975,1.029.01,2.114,3.31,1.495,3.975Z"/>
  <path class="cls-3" d="M740,307l2.999.01-2.999,3.99c.038-1.312-.146-2.707,0-4Z"/>
  <path class="cls-11" d="M781.872,381.112c.263.346.549,2.802-.368,2.883-1.212-1.298-2.902-2.089-2.495-3.995.548.447,2.77.99,2.863,1.112Z"/>
  <path class="cls-11" d="M759.995,320.005l-.49,3.99c-1.539-1.078-1.741-2.146-1.5-3.99h1.99Z"/>
  <rect class="cls-11" x="789.005" y="397.005" width="1.99" height="2.99"/>
  <path class="cls-11" d="M940.894,1144.098c.691.431,2.672,6.594-1.386,4.894-2.613-1.094-2.195-7.128,1.386-4.894Z"/>
  <path class="cls-11" d="M903,1268c1.495-1.164,1.114-4.483,3.995-3.995.924,5.156-2.357,14.214-3.995,3.995Z"/>
  <path class="cls-11" d="M1031.987,935.993c-.142.14-.654-.05-.977.003-.272-1.784.059-3.506,1.98-3.995.107.785-.774,3.766-1.003,3.992Z"/>
  <path class="cls-15" d="M833.988,1250.002c-.04,1.411,1.321,3.174,1.017,4.477-.897,3.838-5.961-2.125-1.017-4.477Z"/>
  <path class="cls-15" d="M1072,253.99c-3.001.091-4.389-3.03-7.514-3.098-1.835-.041-2.625,5.479-7.777,2.127-1.25-.813-.644-2.843-1.639-3.562-1.295-.936-8.323-.579-10.463-.35-.58.062-13.773,3.745-9.607-.096.473-.436,11.083-2.89,12.511-2.999,7.94-.607,19.582,1.019,24.49,7.979Z"/>
  <path class="cls-15" d="M1122.996,258.995c.448.46,2.259,13.464-1.968,10.98.14-2.835-3.854-2.441-3.841-5.277.011-2.435,3.912-7.651,5.809-5.703Z"/>
  <path class="cls-15" d="M1083.998,243.01c-.408,8.274-4.832.995-5.498,1.006-.373.006-3.69,4.588-6.494,2.979-.484-3.832,11.054-5.342,11.993-3.985Z"/>
  <path class="cls-15" d="M1116.997,272.009l3.992-1.017c3.035,11.107-6.214,3.406-3.992,1.017Z"/>
  <path class="cls-15" d="M1114.995,246.995c-.117.133-1.358-.05-1.989,0l.005-4.995c1.897.003,2.576,4.326,1.985,4.995Z"/>
  <path class="cls-15" d="M1034.995,281.005c1.046.969-1.88,4.566-2.985,1.48-.756-2.111,2.617-1.82,2.985-1.48Z"/>
  <path class="cls-15" d="M1033.995,251.01c1.236.579-3.607,2.49-4.995,1.98.602-2.259,3.127-2.133,4.995-1.98Z"/>
  <path class="cls-15" d="M1117,225.99c-1.892.33-3.328-1.166-2.99-2.99l2.99,2.99Z"/>
  <path class="cls-15" d="M1124.99,219l-2.99-2.99c1.892-.33,3.328,1.166,2.99,2.99Z"/>
  <path class="cls-15" d="M936,462c-2.319.466-4.546,1.367-7,.99.82-1.621,3.841-3.69,5.489-4.011,2.538-.495,1.158,1.676,1.511,3.021Z"/>
  <rect class="cls-15" x="1014.005" y="435.005" width="2.99" height="1.99"/>
</svg>