<?xml version="1.0" encoding="UTF-8"?>
<svg id="Layer_7" data-name="Layer 7" xmlns="http://www.w3.org/2000/svg" viewBox="0 0 273.09 120.93">
  <defs>
    <style>
      .cls-1 {
        fill: #3d41f2;
      }
    </style>
  </defs>
  <path class="cls-1" d="M113.29,69.01c-.31,5.77,2.36,11.54,7,15,.34-5.74-2.4-11.56-7-15ZM164.92,60.59c-1.66-4.48-3.6-8.77-6.63-12.58.08,4.86,1.3,9.41,2.87,13.92,1.65,4.49,3.6,8.78,6.63,12.58-.07-4.87-1.3-9.41-2.87-13.92ZM164.92,60.59c-1.66-4.48-3.6-8.77-6.63-12.58.08,4.86,1.3,9.41,2.87,13.92,1.65,4.49,3.6,8.78,6.63,12.58-.07-4.87-1.3-9.41-2.87-13.92ZM113.29,69.01c-.31,5.77,2.36,11.54,7,15,.34-5.74-2.4-11.56-7-15ZM113.29,69.01c-.31,5.77,2.36,11.54,7,15,.34-5.74-2.4-11.56-7-15ZM164.92,60.59c-1.66-4.48-3.6-8.77-6.63-12.58.08,4.86,1.3,9.41,2.87,13.92,1.65,4.49,3.6,8.78,6.63,12.58-.07-4.87-1.3-9.41-2.87-13.92ZM215.29,40.01c-.82,4.87,1.34,9.83,5.5,12.5.84-4.87-1.36-9.81-5.5-12.5ZM215.29,40.01c-.82,4.87,1.34,9.83,5.5,12.5.84-4.87-1.36-9.81-5.5-12.5ZM164.92,60.59c-1.66-4.48-3.6-8.77-6.63-12.58.08,4.86,1.3,9.41,2.87,13.92,1.65,4.49,3.6,8.78,6.63,12.58-.07-4.87-1.3-9.41-2.87-13.92ZM113.29,69.01c-.31,5.77,2.36,11.54,7,15,.34-5.74-2.4-11.56-7-15ZM245.26,29.81c-5.92-10.51-13.04-16.02-20.51-15.87-.42-.04-.86-.05-1.34-.02-.25-.01-.49-.01-.73,0-.24-.01-.48-.01-.72,0-.25-.01-.49-.01-.73,0-.24-.01-.48-.01-.73,0-.24-.01-.48-.01-.73,0-.24-.01-.48-.01-.72,0-.25-.01-.49-.01-.73,0-.24-.01-.49-.01-.73,0-.24-.01-.48-.01-.72,0-.25-.01-.49-.01-.73,0-.1-.01-.2-.01-.3-.01-10.27,0-18.14,15.44-22.77,32.19-6.09-14.34-16.66-31.87-31.75-31.63h-7.29c-1.45-.03-2.85.1-4.23.38l-.68.22c-7.08,3.33-8.01,10.23-9.2,18.97l-.27,2.02c-.53,5-.83,10.86-.89,17.2-4.19-3.39-9.23-5.25-14.47-5.25h-8c-3.41,0-6.7.77-9.71,2.21.28-.41.53-.84.75-1.28,3.52-7.08-.23-16.31-11.18-27.48-3.88-3.86-9.12-6.1-14.7-6.3-.62-.04-1.28-.06-1.92-.04-.27-.01-.55-.01-.73,0-.27-.01-.54-.01-.73,0-.27-.01-.54-.01-.72,0-.27-.01-.55-.01-.73,0-.27-.01-.54-.01-.73,0-.27-.01-.54-.01-.73,0-.27-.01-.54-.01-.72,0-.28-.01-.55-.01-.73,0-.43-.01-.86,0-1.21.01-4.26.01-8.43,1.15-12.03,3.26-1.17-1.57-2.92-2.73-4.99-3.18-.65-.14-1.35-.2-2.13-.17-.24-.01-.48-.01-.72,0-.24-.01-.49-.01-.73,0-.24-.01-.48-.01-.73,0-.24-.01-.48-.01-.72,0-.25-.01-.49-.01-.73,0-.24-.01-.49-.01-.73,0-.24-.01-.48-.01-.73,0-.24-.01-.48-.01-.72,0-.25-.01-.49-.01-.73,0-.24-.01-.48-.01-.72,0-3.92-.21-7.43,2.23-8.59,5.96l-.04.13c-3.15,12.58-6.4,25.33-9.66,37.91-2.22,8.53-4.57,17.49-7.18,27.27-.71-.18-1.44-.25-2.19-.21-.24-.02-.48-.02-.73,0-.24-.02-.48-.02-.72,0-.25-.02-.49-.02-.73,0-.24-.02-.49-.02-.73,0-.24-.02-.48-.02-.73,0-.24-.02-.48-.02-.72,0-.25-.02-.49-.02-.73,0-.24-.02-.49-.02-.73,0-.24-.02-.48-.02-.72,0-.25-.02-.49-.02-.73,0-3.75-.19-7.32,2.56-8.53,6.61-1.43,4.75.85,9.65,5.08,10.92.79.23,1.61.33,2.44.29.25.01.49.01.73,0,.24.01.49.01.73,0,.24.01.48.01.73,0,.24.01.48.01.72,0,.25.01.49.01.73,0,.24.01.49.01.73,0,.24.01.48.01.73,0,.24.01.48.01.72,0,.24.01.49.01.73,0,.24.01.49.01.73,0,1.26.06,2.5-.2,3.66-.76,1.03.8,2.26,1.37,3.6,1.65.63.13,1.28.2,1.92.2.11,0,.22-.01.31-.02.25.02.51.02.73,0,.25.02.51.02.73,0,.24.02.51.02.72,0,.25.02.51.02.73,0,.25.02.51.02.73,0,.25.02.51.02.73,0,.24.02.51.02.72,0,.25.02.51.02.73,0,.25.02.51.02.73,0,.25.02.51.02.72,0,4.18.23,7.82-2.37,8.8-6.08,1.04-3.95,2.08-7.94,3.12-11.95,2.16,4.92,6.19,9.65,11.85,13.76,4.05,3.1,8.93,4.76,13.95,4.76.64,0,1.3-.03,1.95-.08h3.62c.18,0,.35.01.52,0,8.03.67,15.74-2.9,20.3-9.11,4.68,5.52,11.18,8.72,17.99,8.72.1,0,.2-.01.3-.01h.13c.2.01.4.01.6,0h.13c.2.01.4.01.6,0h.12c.2.01.41.01.61,0h.12c.2.01.4.01.6,0h.13c.2.01.4.01.6,0h.13c.19.01.4.01.6,0h.12c.2.01.41.01.6,0h.13c.2.01.4.01.6,0h.13c.2.01.4.01.6,0h.12c.2.01.41.01.61,0h.12c.1,0,.2.01.3.01,7.04,0,13.69-3.41,18.37-9.17,1.25,4.27,3.38,7.8,8.34,8.67l.32.03c.46.02.92.02,1.38.01.24,0,.49.01.73,0,.24.01.49.01.72,0,.25,0,.49.01.73,0,.25,0,.49.01.73,0,.24.01.49.01.73,0,.24.01.49.01.72,0,.25,0,.5.01.73,0,.25,0,.49.01.73,0,.24.01.49.01.73,0,.22,0,.45.01.68,0h.18c9.18,0,21.07-6.69,28.95-14.02,2.12,11.42,7.61,13.21,11.07,13.09.24.02.48.01.73,0,.23.02.48.01.72,0,.24.02.49.01.73,0,.24.01.48.01.73,0,.24.02.48.01.73,0,.23.02.48.01.72,0,.24.02.48.01.73,0,.24.01.48.01.73,0,.24.02.48.01.73,0,.23.02.47.01.71.01.45.02.87.01,1.28-.02l.42-.07c8.05-2.08,11.87-11.26,14.32-18.69,3.26,6.66,7.33,14.52,13.79,18.11l.26.13c1.26.52,2.51.75,3.69.68.25.01.49.01.73,0,.25.01.49.01.72,0,.26.01.5.01.73,0,.25.01.5.01.73,0,.25.01.49.01.73,0,.25.01.49.01.72,0,.26.01.5.01.73,0,.25.01.49.01.73,0,.25.01.49.01.72,0,.26.01.5.01.74,0,1.93.08,4.58-.54,6.67-3.84,7.18-11.35,1.84-49.36-9.84-70.12h0ZM15.56,96.59c-1.03,3.44-4.23,5.52-7.14,4.64-2.9-.87-4.43-4.37-3.4-7.8,1.04-3.44,4.23-5.52,7.14-4.65,2.91.87,4.43,4.37,3.4,7.81ZM32.57,98.28c-.67,2.52-3.18,4.23-5.96,4.23-.46,0-.93-.05-1.4-.15-3.29-.69-5.31-3.64-4.52-6.59,3.23-12.04,6.41-24.07,9.53-36.11,3.28-12.64,6.5-25.28,9.67-37.92.95-3.07,4.07-4.74,7.06-4.09,3.16.7,5.15,3.65,4.43,6.59-6.05,24.68-12.32,49.36-18.81,74.04ZM59.49,98.73c-7.1-5.14-14.03-13.27-12.49-22.66.75-7.44,8.27-13.93,14.97-8.34,2.88,2.64,3.71,6.56,5.81,10.47.74,1.81,4.3,6.91,4.08,1.93-.52-3.75-3.42-7.83-5.6-11.1-6.82-10.12-15.01-21.42-13.67-34.26,1.44-16.26,22.58-22.72,33.79-11.54,5.49,5.6,14.81,16.36,10.71,24.59-2.48,4.98-9.76,7.22-14.06,3.28-2.3-1.1-7.48-14.86-10.33-12.67l-.05.08c-.45.91-.16,2.22.11,3.22.98,3.26,2.83,6.08,4.66,8.88,6.27,9.22,13.38,18.94,14.47,30.43,1.82,18.09-18.71,28.21-32.4,17.69h0ZM51.93,64.34c.82-3.24,1.65-6.49,2.47-9.75,1.44,2.93,3.13,5.75,4.88,8.48h-1.48c-.51,0-1.01,0-1.51.07-1.51.05-2.99.48-4.36,1.2ZM99.73,55.12c-1.71,1.72-3.21,3.72-4.46,5.95-1.14-1.93-2.36-3.83-3.65-5.77h2.22c1.94.47,3.98.37,5.89-.18ZM116.29,102.51c-12.43,0-22.5-11.64-22.5-26s10.07-26,22.5-26,22.5,11.64,22.5,26-10.07,26-22.5,26ZM187.1,78.49c-4.48,10.82-23.88,24.07-35.67,23.56-5.52-.97-6.43-6.01-8.02-14.69-.82-5.3-1.32-10.59-1.67-16.08-.72-11.25-.7-24.67.39-34.95,1.31-9.41,1.76-16.03,8.05-18.99l.12-.04c18.38-3.75,31.04,24.11,36.28,39.91,2.23,6.94,3.67,14.41.52,21.28ZM238.41,100.78c-7.17-3.99-11.3-14.3-14.89-21.37-4.36-9.12-6.2-10.36-8.99-.02-2.37,7.39-5.6,19.54-14.07,21.73-20.78,1.76-5.14-86.9,16.17-84.68h.14c28.08-.52,41.56,92.54,21.64,84.34h0ZM215.29,40.01c-.82,4.87,1.34,9.83,5.5,12.5.84-4.87-1.36-9.81-5.5-12.5ZM158.29,48.01c.08,4.86,1.3,9.41,2.87,13.92,1.65,4.49,3.6,8.78,6.63,12.58-.07-4.87-1.3-9.41-2.87-13.92-1.66-4.48-3.6-8.77-6.63-12.58ZM113.29,69.01c-.31,5.77,2.36,11.54,7,15,.34-5.74-2.4-11.56-7-15ZM113.29,69.01c-.31,5.77,2.36,11.54,7,15,.34-5.74-2.4-11.56-7-15ZM164.92,60.59c-1.66-4.48-3.6-8.77-6.63-12.58.08,4.86,1.3,9.41,2.87,13.92,1.65,4.49,3.6,8.78,6.63,12.58-.07-4.87-1.3-9.41-2.87-13.92ZM215.29,40.01c-.82,4.87,1.34,9.83,5.5,12.5.84-4.87-1.36-9.81-5.5-12.5ZM215.29,40.01c-.82,4.87,1.34,9.83,5.5,12.5.84-4.87-1.36-9.81-5.5-12.5ZM164.92,60.59c-1.66-4.48-3.6-8.77-6.63-12.58.08,4.86,1.3,9.41,2.87,13.92,1.65,4.49,3.6,8.78,6.63,12.58-.07-4.87-1.3-9.41-2.87-13.92ZM113.29,69.01c-.31,5.77,2.36,11.54,7,15,.34-5.74-2.4-11.56-7-15ZM113.29,69.01c-.31,5.77,2.36,11.54,7,15,.34-5.74-2.4-11.56-7-15ZM113.29,69.01c-.31,5.77,2.36,11.54,7,15,.34-5.74-2.4-11.56-7-15Z"/>
</svg>