<?xml version="1.0" encoding="UTF-8"?>
<svg id="Layer_1" data-name="Layer 1" xmlns="http://www.w3.org/2000/svg" viewBox="0 0 1102.5 502.5">
  <defs>
    <style>
      .cls-1 {
        fill: #9d9ff8;
      }

      .cls-2 {
        fill: #c2c3fa;
      }

      .cls-3 {
        fill: #c9cafb;
      }

      .cls-4 {
        fill: #6e70f5;
      }

      .cls-5 {
        fill: #cdcefb;
      }

      .cls-6 {
        fill: #777af5;
      }

      .cls-7 {
        fill: #3e42f2;
      }

      .cls-8 {
        fill: #4c50f3;
      }

      .cls-9 {
        fill: #3d41f2;
      }

      .cls-10 {
        fill: #f4dcfe;
      }

      .cls-11 {
        fill: #f0e2fe;
      }

      .cls-12 {
        fill: #dddefc;
      }

      .cls-13 {
        fill: #cacbfb;
      }

      .cls-14 {
        fill: #9193f7;
      }

      .cls-15 {
        fill: #5458f4;
      }

      .cls-16 {
        fill: #e4e5fc;
      }

      .cls-17 {
        fill: #6669f5;
      }

      .cls-18 {
        fill: #8688f7;
      }

      .cls-19 {
        fill: #4c4ff3;
      }

      .cls-20 {
        fill: #e6d8fd;
      }

      .cls-21 {
        fill: #8d8ff7;
      }

      .cls-22 {
        fill: #8587f7;
      }

      .cls-23 {
        fill: #5558f4;
      }

      .cls-24 {
        fill: #a9abf9;
      }

      .cls-25 {
        fill: #f4dbfe;
      }

      .cls-26 {
        fill: #c7c8fb;
      }

      .cls-27 {
        fill: #bfc1fa;
      }

      .cls-28 {
        fill: #9698f8;
      }

      .cls-29 {
        fill: #bcbdfa;
      }
    </style>
  </defs>
  <path class="cls-9" d="M1030.053,103.345c-.401,1.877-.356,2.515,1.706,2.889-.222,2.831,1.384,5.151,4.82,6.96,2.273,2.587-4.32,26.617-10.623,18.446,2.694-5.003-11.469-10.411-9.393-3.581-2.492-.204-2.554,3.158,0,2.996q3.185,1.112,0,0c-1.049-2.135-3.096-1.626-2.998.749l-.918,1.586c4.829,2.642,5.384,4.36,1.667,5.154-1.113-1.047-1.591-.437-2.248.749-1.491-1.264-2.8-.331-2.998,1.498-1.993-.518-2.718.582-1.499,2.247,1.273,1.678.273,2.676-2.998,2.996-2.105-.842-4.405,1.726-3.747,3.744-.632.787-.933,1.808-.904,3.065-2.975-4.021-7.866,2.353-8.013,5.903-7.246-3.46-3.806,3.927-1.19,7.483-1.965,3.101.825,14,5.108,9.118l19.797,18.416c3.741.455,3-2.831.94-4.294q-.11-1.293,0,0c.762,1.698,1.869,2.569,3.319,2.613-6.169,8.525-12.316,17.085-18.443,25.68l-8.274,2.58c7.796-9.717,11.069-23.067,6.275-34.998-1.346-3.351-4.628-10.97-7.925-7.081,1.07,5.767,1.357,17.409-3.209,4.944-1.31-7.045-3.319-13.792-6.028-20.24l-1.691-.458c-1.896-.221-1.886-.038-.749,1.498-1.846.975-1.732,3.055.34,6.24-2.736.664-5.525,1.015-8.369,1.053l-1.714,1.693c-1.667-.594-7.28-1.434-7.786,1.252l1.618,4.013c-7.64,2.733-15.522,5.955-23.116,9.446l.053,1.765c-1.216-.057-1.965-.307-2.248-.749-.198-3.007-7.96-2.932-8.244,0-.845.852-1.844,1.351-2.998,1.498-.104-2.038-.853-1.929-1.499,0-.947.505-1.688,1.216-2.205,2.148l-4.975,19.916c-7.196,17.232-10.99,34.754-12.918,53.337.021,4.607-7.913,34.457-13.633,35.096-1.402.157-9.563-1.342-9.967-2.515,6.762-9.408,10.171-20.63,12.72-31.808,2.245-12.194,5.154-24.077,8.727-35.65l-.983-1.584c.166-1.205.166-2.204,0-2.996,1.308-1.852.469-4.841-1.709-5.345l.018-1.957c-5.472-6.388-11.389-12.332-17.748-17.833,4.234-11.972-7.712-14.968-9.464-1.818-2.029.244-4.556.599-4.823,2.989l-1.245,1.444c.874,2.26-.484,2.284-2.652,2.321-4.492-5.352-6.867,3.292-3.108,5.142.259,3.035-.604,2.982-2.587-.159-8.598.391-10.69-.958-6.276-4.046,1.192-1.795.898-3.277-1.369-3.204-3.821-4.083-7.411-4.868-10.769-2.355-10.697,2.162-21.549,3.221-32.555,3.178-16.623,3.171-30.691,2.169-45.676-6.663l-2.438.597c-3.297-.669-6.295-1.917-8.994-3.744-2.627-3.561-9.143-5.975-13.491-5.242-1.005.332-1.512-.043-2.248-.749l-1.594-1.751c-20.937-8.734-41.16-18.81-60.669-30.228-9.251-4.894-18.622-9.16-28.59-11.725l-28.499-12.838c-20.17-7.818-28.518-9.387-44.752,6.204-1.031.99-6.708,6.533-7.088,7.158-.399.657-.347,1.496-.088,2.182-3.04,3.141-5.712,6.53-7.425,10.756-6.74,15.791-13.613,31.443-22.832,45.303-.696,2.606-.757,5.412-.184,8.416-3.3,14.817-7.54,29.455-12.719,43.915-1.98,9.914-4.471,18.762-8.853,27.663-1.711-.32-2.729.196-3.053,1.549-1.309-.916-1.958-.462-2.124,1.067-15.497-10.04-35.226-16.357-53.787-16.711-8.633-.165-17.371.727-23.736,6.946-3.09-.03-5.579.816-7.466,2.537-3.597-4.429-6.944,3.001-2.825,4.664,2.235.997,4.985.651,8.251-1.038,10.542-6.358,16.27-9.623,29.166-8.469,11.915,1.066,28.939,5.788,39.118,12.128,9.719,6.053,8.37,9.796-2.574,9.671-1.663.784-2.139,2.506-1.215,4.043-4.003,1.465-7.96,2.738-11.872,3.816-.21,2.122-1.427,2.823-3.651,2.101-4.136,5.302-9.229,6.569-15.731,6.44-3.234,1.554-5.96,1.446-8.178-.324l-26.746-4.208c-1.808-.311-1.855,1.41-1.042,3.005l11.922,4.353c7.19,3.717,14.18,7.415,20.971,11.092,4.451-2.026,11.015-5.005,14.863-.879,4.239.985,18.586-7.77,22.398-10.548-1.138,1.167-1.539,2.122-1.393,3.757-5.906.473-9.843,2.928-11.811,7.365-4.917,2.501-7.508,5.959-7.772,10.373-4.525,4.736-9.324,9.25-14.396,13.54-3.668.45-7.338,1.112-10.921,2.023-8.592,2.184-17.223,4.266-25.861,6.259-6.794,1.568-15.257,3.369-3.348-1.525,3.421-1.689,2.742-3.879,1.377-6.729l1.155-1.375c10.703-4.962,20.8-10.858,30.289-17.689,4.995-4.411.681-6.717-3.351-3.093-3.6.783-7.233,1.512-10.898,2.188-1.328,1.453-3.61,2.109-6.844,1.969-1.711,2.791-8.57,5.863-7.09.71-3.164-8.885-4.73,1.133-4.218,5.656-.845,7.04-1.359,10.123-9.663,8.781-1.107,1.576-2.411,1.934-3.911,1.074-2.312,1.23-3.281,1.283-5.854.431.038-2.339-.897-9.597-3.18-10.068-.883-.182-5.601,3.179-6.009,4.206,1.845,1.041-1.338,11.855-1.699,11.22-2.912-5.11-5.632-2.808-4.163,1.809-.188.485-4.226.58-4.569-.515-17.237,8.085-37.798,8.142-56.024,5.344-3.339,2.596-5.872,1.503-6.215-2.581-2.831.302-5.779.404-8.843.306-2.829-2.882-8.251-2.849-6.918,2.85-.559,2.931-12.037,1.911-13.76-.08l-2.16,1.059c-1.918-3.113-3.615-2.4-5.093,2.141l-2.93,1.747c-2.584-2.772-6.038-4.327-8.196-.404-.874-4.047-5.559-1.948-7.943-.776l-.755-.707c.751-3.594.376-8.057-3.288-3.982-1.424-2.518-3.569-1.826-4.714.63-3.553-2.997-5.705-.506-4.209,3.338-.619,1.455-3.62-1.534-3.878-2.154-2.806-.365-5.437-1.181-7.892-2.448-3.406,1.198-5.923.62-7.55-1.734-3.16.104-4.914-.829-5.261-2.797-5.452-.966-10.914-8.265-11.961-13.547-1.336-.225-2.358-.756-3.065-1.593-2.796-3.697-5.295-7.441-7.495-11.233.362-1.03.25-2.52-.749-2.996.379-.891.183-2.125-.749-2.247.328-1.933-.943-3.843-2.248-5.242.236-.866.009-1.824-.749-2.247-.678-2.602-1.677-5.098-2.998-7.489.147-2.035.15-4.841-.749-6.74.215-.387.466-.372.749,0-.298,2.073-.254,4.919.749,6.74-.227,2.27,1.571,5.485,2.998,7.489-.302.796.011,1.829.749,2.247.054,1.25,1.015,3.375,2.248,3.744-.195,1.132-.379,2.61.749,2.996-.322.98-.149,2.469.749,2.996.276,2.312,2.265,7.211,4.497,7.489.423-3.736.673-3.237.749,1.498-.916.913.398,2.058,1.499,2.247.578,1.244,1.579,1.423,3.004.538,1.006,3.264,2.914,5.972,6.686,5.505-.427,2.657,6.34,3.344,8.81,3.514,1.902-.764,3.527-.539,4.875.675,3.018-2.032,5.487-2.629,7.406-1.791,2.267-.947,4.711-1.038,7.333-.27,1.868-4.165,2.352-5.157,4.006.119,3.379.998,5.365.635,4.835-3.504,3.881,1.223,5.069-.115,6.948-3.178.568-.926,1.129-1.571,2.044-2.308-.547-4.49,1.294-4.013,3.117-.294-7.605,6.202-.902,16.925,2.684,4.235,4.946-5.127,10.897-19.009-1.03-16.821l-1.509-.648q-3.124-.896,0,0c1.712,1.498,9.128.965,6.345-3.023l-8.152-1.712c.258-4.059-3.783-7.39-7.442-4.545-2.207-2.91-4.922-1.502-7.075.766l-1.313-.042c2.163-12.356-7.671-9.611-4.031.097l-.683,4.113-8.331.548-.796,1.551c-.332,3.102-4.251,1.372-6.009.166l-5.74,1.263c-3.85-1.711-5.424-4.461-6.607-8.71-1.194-3.891-3.326-6.758-6.395-8.603-.025-2.212-.299-5.773-2.98-5.085.57-2.627.403-4.811.11-7.753,4.006-6.917-2.795-9.47-4.259-1.148-2.052-2.495-2.477-5.681-1.272-9.556-1.477-1.557-2.934-.572-3.819,1.012.197-2.322-.221-3.996-1.253-5.021-1.286-1.947-1.235-3.497.154-4.65,1.599-3.942,3.378-7.81,5.664-11.418,2.82-.269,4.625-.868,4.544-4.1,11.207-14.873,38.857-5.756,53.486-.325,3.005.865,6.209,1.401,9.321.819,2.159-.404,7.217-2.103,7.401-4.289.964,2.429,9.689,2.324,10.868,0,1.104-1.25,2.431-2.283,3.981-3.099,1.843-3.562,2.785-7.594,2.827-12.098.453-5.818,2.394-2.003,5.822,11.444,3.953,9.889,9.456,7.055,4.166-1.911l-.48-1.982c1.484,3.152,3.128,3.821,4.932,2.009-.584,6.924,2.562,8.593,6.566,2.227l5.784-9.142c2.823,2.247,6.813-5.335,7.64-7.575.798-2.16,4.186-17.207,3.724-18.012l-2.99-1.55c1.608-2.287-1.879-4.175-4.117-4.521-1.733.075-7.131.237-8.141-1.149,2.002-1.824,2.127-4.557.377-8.198,1.785-7.687,3.36-15.757,2.344-23.718l-1.706-.607q-1.196-2.168,0,0c1.532,2.54,3.582-.813,3.007-3.107-.936-3.736-5.315-2.81-8.048-2.15-2.713-2.976-4.78-3.72-6.201-2.232l-1.64-.807c.491-4.653-.461-6.132-2.857-4.435l-.633-.803c-3.325,2.584-4.765-3.829-5.158-6.615,1.367-5.673.377-9.916-2.97-12.728,2.222-6.554-1.082-7.479-6.835-8.472,3.451-8.514,1.648-14.735-7.199-18.193l-7.139-8.046c-1.67-1.951-5.321-4.202-6.792-1.309l-2.024-1.793c-.835-3.537-3.342-5.41-7.523-5.619-4.684-3.93-9.496-5.703-14.437-5.319l-.809-1.547c-2.961-.364-13.312-.866-14.747,1.216.445,6.586-3.218,5.708-7.793,2.99l-1.384,1.085c-2.339,2.037-5.527,3.459-9.562,4.265l-.181.977c-3.537,1.433-7.284,2.431-11.242,2.996-1.874-.352-4.574-.807-6.396-.393-.274.062-3.074,3.643-3.347,4.138-2.537.746-4.91,4.406-4.497,6.74-1.736,1.958-3.484,3.955-5.246,5.991-2.719.705-1.791,7.766.749,8.238-.146,2.194-.896,4.191-2.248,5.991-1.6-.222-3.175,1.046-4.725,3.802-6.076,2.441-9.003,7.435-8.781,14.98-.915,3.336-2.176,4.583-5.728,4.527-3.329,1.425-1.536,7.502,1.996,6.646,1.457,1.18,2.206,2.927,2.248,5.242-1.129.376-1.334,1.225-.616,2.546-4.696,1.522-4.723,4.493-.081,8.912-1.272,3.757-1.226,6.992.138,9.705-.599,2.004-.413,3.437.559,4.299-.207,1.874-.452,2.895-2.248,3.744-5.038-.841-6.118,13.619-1.683,15.704-.671,4.734-.262,8.449,1.175,13.103-2.453,2.636-2.041,4.823,1.236,6.56-4.025,4.531-4.556,8.233-1.592,11.109-.835,8.003-2.257,12.086-11.304,10.658-22.931-1.502-46.002-4.069-69.214-7.701-3.163-.139-1.602,6.103.438,6.734.856,8.845,1.555,17.703,1.272,26.773-4.694,47.915-9.099,96.474-13.215,145.677-3.045,19.293-6.34,38.55-9.886,57.772-1.217,4.664-1.186,9.052.093,13.164h70.452c1.287-1.978,1.787-1.978,1.499,0h561.368c1.45-1.217,2.687-1.88,3.709-1.99l8.707-10.611c3.541,1.021,5.454,2.765,5.738,5.233,7.783.431,3.328-6.357-.832-9.148-.313-.184-.472-.534-.225-.841.519-.646,13.954-7.763,14.756-7.553,2.124.556,4.457,20.042,4.645,23.337l1.725,1.573h6.745s1.233-1.143,1.233-1.143l-2.599-11.076,2.688-1.826c2.606,1.815,5.603,2.475,8.993,1.98,12.228,4.687,24.779,8.709,37.652,12.065,105.665-.015,211.369.012,317.034,0,.468-99.094.83-198.213,0-297.304l-3.232-.488c-21.021,1.25-41.401,4.454-61.142,9.613.257.961-.009,1.932-.975,2.204-2.659.748-15.801,2.552-17.308,2.042-2.472-.837,9.93-4.036,10.483-4.157l1.672-.924c2.849-14.083,6.732-27.578,11.65-40.486,1.769.868,3.198.056,3.203-1.802l2.464-.155c-1.465,7.746-2.538,15.634-3.219,23.664-4.886-.569-6.405,4.946-2.768,7.356,1.426.945,12.195-.836,11.954-3.606,2.511-1.846-.695-3.891-3.022-4.231,1.193-9.618,3.319-19.009,6.379-28.174,3.804-3.204,11.547-13.263,4.888-16.273-.843-1.32-2.167-2.197-3.97-2.632,5.291-15.588,5.522-33.528,4.051-49.845,1.108,3.361,2.58,4.877,4.415,4.549,4.405-.259-3.246-14.756-3.971-15.223l-2.944-.426c-2.94-1.912-11.172-4.907-14.449-3.634-3.183,1.237-14.836,15.543-16.718,18.938l.608,1.843Z"/>
  <path class="cls-9" d="M.253,243.385v259.112s55.462,0,55.462,0c2.144-6.59,3.5-13.546,4.067-20.868,5.701-27.591,10.355-55.29,10.923-83.449,3.237-21.454,5.056-43.082,5.968-64.586,3.381-21.117,4.982-42.31,4.803-63.578.024-4.098-.818-7.484-2.526-10.156-.232-.713-3.863-6.481-4.341-6.71L.253,243.385Z"/>
  <path class="cls-25" d="M78.95,259.861c5.601,17.209-2.278,55.958-3.74,75.27-.634,8.376-.007,17.035-.765,25.446-1.127,12.498-4.027,24.927-5.231,37.459-1.118,11.64-.919,23.46-2.351,35.095-2.834,23.028-9.603,46.073-11.147,69.367h2.998c1.707-23.866,8.637-47.056,11.236-70.775,3.643-33.254,5.233-66.991,8.257-100.337,2.253-24.854,7.846-47.164,2.243-72.273l-1.499.749Z"/>
  <path class="cls-25" d="M730.257,502.497c-1.315-9.073-1.197-18.663-5.632-26.971l-17.601,9.009c-.971,1.343,5.628,6.284,5.873,6.87.772,1.849-2.434,4.608-1.878,1.912.561-2.717-2.891-2.754-4.734-3.97-.735-.485-.604-2.021-1.133-1.823-2.742,1.025-10.379,12.405-13.12,14.975h2.248c.789-.36,1.539-.36,2.248,0h33.727Z"/>
  <path class="cls-25" d="M784.97,502.497c-2.836-1.581-5.951-3.018-9.016-4.1-6.937-2.447-14.976-4.922-21.92-6.545-1.672-.391-5.934-2.76-6.297-2.848-2.777-.675-3.288,1.105-7.676-1.144-.885-.454-1.464-1.64-1.937-1.836-.274-.113-1.194,3.382-3.366,2.241l2.241-2.984c-1.082.078-2.266-.151-3.332-.017-1.051.132,2.796,15.514,3.336,17.234h47.967Z"/>
  <path class="cls-25" d="M129.166,502.497h1.499c.481-10.092-.729-20.092-2.623-29.963-1.504-.012,2.186,27.289,1.124,29.963Z"/>
  <path class="cls-9" d="M694.281,502.497h2.248c-.215-2.781-2.034-2.781-2.248,0Z"/>
  <path class="cls-25" d="M439.455,237.394c-2.309-.866-5.336-1.183-7.771-3.094-1.972-1.548-1.895-3.97-2.944-4.928-3.575-3.265-12.649-3.909-17.217-4.886-2.71-.579-3.625-2.744-3.871-2.727-1.515.102-3.01,1.316-5.181.541-1.043-.372-1.274-2.003-2.503-2.74-3.64-2.182-10.557-2.308-12.998-3.493-1.162-.564-1.258-2.635-1.912-2.683-.896-.065-2.615,1.281-4.293,1.295-4.567.039-8.203-3.722-10.787-4.115-1.321-.201-2.789.719-4.314.652-3.321-.145-7.715-.718-10.474-.71-6.414.019-7.532,1.274-12.418,3.673-.547.898-1.165,1.427-2.248,1.498-2.308.957-5.164.855-7.495,0,.676.845,1.394,1.701,1.992,2.604-2.467,5.151-2.188,11.935-4.348,16.981-.288.673-1.027.769-1.295,1.268-.593,1.105-1.704,4.637-2.321,5.057-.945.645-2.368-.749-2.913-.388-1.546,1.024-6.401,10.93-9.088,13.061-3.181,2.523,1.365-6.982-3.76-6.387l-.743,2.246c-1.34-2.933-3.542-5.383-5.998-7.482.515,4.628,1.988,8.107,3.891,12.205.257.554,1.508,2.447-.155,1.656-3.372-4.145-4.597-9.192-6.112-14.189-.463-1.528-.589-7.407-3.95-6.441-2.744.789-1.994,13.024-3.632,14.804-2.937,3.189-10.909.248-14.778.209-.186,1.017,1.343,1.143,2.06,1.293,2.701.564,4.647.328,7.527,1.508,1.125.461,2.028-.458,1.651,1.684h-10.868c-1.53,0-5.588,2.454-7.669,2.817-7.205,1.255-14.428-3.435-21.349-5.276-8.437-2.244-22.901-4.242-31.359-2.452-5.627,1.191-8.011,6.497-12.693,8.665l1.494.746c-.473,2.669-3.246,1.368-3.596,1.592-1.612,1.033-9.43,16.919-8.393,20.115l.747-2.236c.742-.048,1.503.041,2.247-.007q.478-.179,0,0c-1.276,3.591.273,5.727.035,7.762-.055.469-1.265.352-1.485,1.029-.949,2.917-1.159,4.731,2.2,4.681l-.619-2.429,3.61-7.295c-.26,2.411-1.116,4.54-.712,7.063.285,1.784,1.853,3.006,1.927,3.789.119,1.265-1.856,4.75-1.916,6.044-.017.359,1.21.191,1.312.678.399,1.912-.294,7.763,3.14,7.879-.021-1.965.739-3.518-1.444-4.064,2.093-4.764.1-12.827,4.439-16.151-.555,1.25-.016,3.246-.145,4.137-.069.478-1.291.3-1.275.673.131,3.072.188,6.5,1.428,8.669q1.31-1.662,0,0c2.141,3.744,1.617,4.811.753,8.982l1.498-2.244c1.341-.256,1.875.665,2.576,1.545,2.029,2.549,5.043,10.174,5.672,13.437,3.166-1.992,1.738.98,4.107,1.89,2.655,1.02,5.793-1.012,7.555-1.098.316-.015.222,1.336.819,1.471,1.092.247,5.541-.605,7.358-.379.722.09,1.316,1.088,2.259,1.139.451.024.319-1.506.826-1.586,1.154-.182,2.694,1.137,4.052.8-.877-2.347-4.048-1.164-6.182-1.684-1.485-.362-2.427-.939-3.561-1.304q-2.973-.292,0,0c1.827-.092,12.133-.974,12.61-.557.236.206.158.918.142,1.299h.73c-.516-2.729,2.294-.075,4.502-.75-.575-1.991-6.854-1.625-7.496-2.246-.15-.145.93-2.432.809-4.1-.15-2.063-1.446-3.01-1.548-4.885l1.496.38.367-3.365c1.923,2.696-.051,7.082,1.135,10.477l1.113-1.491,2.625,2.987c-1.626-3.23.681-4.006,3.338-5.278.324.848,1.609,1.624,1.843,2.138.561,1.228.213,3.682,1.557,3.891.85-2.591-.981-5.242,2.545-5.268.186-.001,2.507,2.534,2.549,2.715.145.626-.568,1.585-.444,2.105.296,1.243,8.354,2.607,10.344,2.707l-6.741,1.489c.145.196-.227,1.261.033,1.477.298.248,6.247.147,7.46,1.527l-2.254,1.863,2.251.746c-1.612,2.884-2.723,6.257-4.272,9.176-.47.885-1.438.974-1.936,1.878-.94,1.703-1.607,3.895-2.04,5.798-1.641-.353-1.143-1.408-1.281-2.413-.616-4.514,1.361-2.23,2.045-2.831-1.844-3.697,1.142-.835,2.247-4.128-2.495-.856-2.177-3.975-4.13-5.601-.924,3.104-2.381.801-4.105,2.617,4.176,5.348-.888,2.109-1.509,2.626-1.683,1.4,1.934,1.283,1.491,2.235-3.69.73-1.713-1.771-2.279-3.935-.038-.145-1.719-1.999-2.206-2.044-.049,3.781.77,5.983,3.739,8.227-2.117-.848-2.313,1.515-2.623,1.515-.729,0,.025-1.438-.835-1.564-1.002-.146-3.18,1.051-4.785.062,1.332,1.511,1.126,2.683,1.496,4.48l-3.745-.75,2.244-2.231-2.258-.393c-.037-1.162,1.961-2.623-.354-2.615-.902.003.12,2.357-.746,2.23-.42-.061-.943-.888-1.728-.605-1.187.429-1.533,3.467-1.662,3.619-2.194,2.574-.382-3.772-1.868-3.726-1.058.033-.386,2.804-1.522,2.948-1.542.195-3.043-2.51-2.608,1.526-1.27.344-.343-1.474-1.158-1.531-3.299-.231-6.324,3.022-6.704,3.022-.408,0-1.446-2.002-2.237-2.03-.335-.012-1.178.986-2.087,1.071-2.901.271-4.026-.745-6.304-1.033-.598-.076-1.643.638-1.733.507-.287-.415.188-2.841-.013-3.746-3.3,1.66-4.802.813-6.316-2.302-.483-.994-.329-2.814-.429-2.945-.145-.187-3.738,1.39-4.49,1.502-.536.206-.522.457,0,.749.035.107-.759.771-.388,1.502.954,1.88,2.555.605,2.627.739.19.355-.094,2.366.416,3.713.663,1.749,7.597,9.434,9.382,10.162.98.399,2.128-.484,2.199-.398.159.193-.409,1.498.47,2.314,1.371,1.273,4.539.811,5.205,1.367,2.008,1.675.242,3.464,5.579,1.576l.353,1.483c3-2.754,3.035-.569,4.896.22,1.393.591,4.119.577,4.302.696,1.004.654.784,2.744,4.192,2.589,3.36-.153,1.266-2.589,1.242-4.989,1.628-.287,2.381,1.982,4.089,1.489,1.164-.336.523-2.956,2.65-2.238l-.745,2.984h2.253s-.766-1.486-.766-1.486c3.65.602.771-1.206,3.002-2.251-.622,4.599-2.127,6.849,3.761,7.482l-.379-1.495,4.864-.744-.74,2.99c3.155-.19,3.883-1.114,4.872-3.736l1.499,2.989c1.347-3.928,2.059.139,2.737.589,1.542,1.024,7.986-2.63,5.886-5.829,3.655.527,1.029,2.515,1.484,2.991l2.711.683.287-2.171,1.885-.751.374,2.249c5.991-1.312,16.562,2.924,13.495-7.494,1.448,2.201,4.03.526,4.487.754.188.094-1.001,2.858,1.131,3.735l.377-2.253c1.937,1.258,3.232.391,5.239.016l-.746,2.235c3.428.847,1.418-1.882,3.739-2.989-1.725,2.963,1.602,5.14,4.114,4.938,1.431-.115,2.466-1.581,3.863-1.734,1.741-.191,4.62,1.395,6.653,1.625,3.975.451,11.561.358,15.607.134,10.671-.591,23.563-1.056,32.356-7.208-.567,1.996,6.156,1.035,6.367.741.449-.623-1.044-3.378-.747-4.484,3.823-.825-.164,6.844,2.612,5.992l3.373-5.996-1.12,5.987c3.354-2.344,2.462-5.48,4.116-8.62-2.778-1.471.052,3.025-3.738,1.876,1.424-2.119,1.75-4.183,1.503-6.73l1.866,2.989,1.86-4.868c.196-.574-6.396,1.042-3.728-1.115.092-.074,1.217.252,2.307-.504.59-.409,1.288-3.744,2.209-.656.424,1.422,1.145,4.114,1.342,5.496.211,1.478-.709,3.01-.619,3.143.21.312,5.982.965,7.118,2.26,1.269.088-1.673-2.707.718-2.219,1.955.399,2.125,1.166,3.402,2.205l.764-3.737c1.934,1.343,7.12.828,8.511-.919,3.112-3.911,2.7-12.255,2.734-17.052,2.361.56-.005,5.987.74,6.738,1.93-.027,5.285-.023,6.958-.911,1.321-.702,1.357-2.153,2.502-2.648,1.2-.519,7.398.293,7.043-2.425,1.324-.329.487,1.272.74,1.484,1.46,1.221,1.362-1.275,2.025-1.474,2.31-.69,5.903-1.134,7.888-1.704,1.477-.424,3.051-2.87,4.321-1.688-8.921,8.792-21.711,13.655-32.607,19.836-3.764,2.792-.391,4.475-.589,6.396-.174,1.696-8.377,4.103-9.393,5.723-.155.247.691,1.302.628,1.364-1.663.076-3.861.498-4.503,2.248,4.247,1.43,2.559-.399,3.702-1.134.7-.45,6.818-1.223,8.417-1.526,13.619-2.576,27.013-7.067,40.79-9.186,4.084-4.541,10.892-8.422,14.558-13.242,1.851-2.433.13-4.3,2.197-6.566,1.111-1.218,4.592-2.872,6.086-4.601,1.134-1.313,1.708-3.622,2.501-4.246.427-.335,9.906-3.042,10.473-2.872,3.864,1.155-2.894,5.09-4.028,6.316,2.844,1.949,6.999-3.766,6.773-5.942-.086-.834-3.841-.777-3.798-3.049.008-.417.994-.308,1.22-.677.352-.574.236-1.465.48-1.716.403-.414,3.971-1.382,5.555-2.733.484-.413,4.493-5.224,3.999-5.731-2.981,1.815-6.886,3.716-9.669,5.691-5.268,3.739-4.511,3.977-10.97,7.005-2.529,1.185-10.376,5.794-12.543,5.172-.954-.273-1.551-1.691-2.572-2.008-1.213-.377-7.083.431-8.656.792s-3.4,2.114-4.639,2.113c-.395,0-.417-1.3-1.335-1.771-5.926-3.041-12.649-5.446-18.423-9.271l-12.877-4.721,28.695,4.514c1.197,2.961,5.868.361,7.751.19,8.788-.795,8.059.536,15.456-5.482.686-.558.532-1.408.599-1.448.59-.354,4.083,4.026,3.714-2.278,3.213,1.958,2.694-.374,3.559-.692,1.83-.673,8.525-1.694,9.094-3.543.243-.79-.975-2.307.036-2.901,1.939-1.14,7.907.449,9.393-1.891.562-.885.079-3.256,1.887-2.188.081.048-.206,2.875,1.502,1.114-3.164-5.605-8.022-8.964-13.732-11.741-13.077-6.358-37.288-13.328-51.319-9.084-4.869,1.473-8.78,5.249-13.121,7.11-2.457,1.053-5.932,1.842-8.764,2.851q-1.167,1.32,0,0c.153-2.228-1.417-3.704,1.128-5.239.35,5.171,4.268.038,4.596.032.716-.014,4.047-.197,4.799-.446,1.335-.442,4.473-3.85,7.124-4.797,19.261-6.876,56.009,3.358,71.372,15.88.76.619.084,3.583,2.048,4.302.997-2.144-1.196-4.613-1.76-6.58-.268-.937.646-1.567.632-1.654-.359-2.177-9.472-16.014-11.197-19.295-6.206-11.802-5.268-8.915-15.414-15.898-1.762-1.213-2.648-3.484-3.936-4.515-5.235-4.191-11.611-2.052-17.005-3.02-2.324-.417-5.089-2.652-8.352-2.889-4.312-.313-8.463,2.376-12.301-.814-4.337-.145-4.914-.334-1.729-.568l.23-.93Z"/>
  <path class="cls-25" d="M221.353,155.767c-.236-.508-1.443-2.505-2.245-1.494-.409.516.825,2.705.678,2.911-.14.196-1.704.351-2.53,1.597-4.008,6.049,1.983,8.009,5.222,12.697,2.208-5.354,4.07-6.967,8.677-10.037,2.239-1.492,12.902-8.1,14.897-4.877,1.595,2.576-2.709,2.543-4.618,3.168-6.024,1.973-13.613,4.505-15.95,11.019-.89,2.479-2.271,7.141,1.089,7.925,1.649.385,4.908-5.965,6.831-7.501.755-.603,11.1-6.099,11.748-6.251,1.228-.287,3.783.648,5.43-.178-.803,2.68,4.057,5.875,1.491,8.241-1.452,1.339-1.668-3.086-2.983-1.499-.117.142.202,2.145-.694,3.431-.633.91-3.694,2.315-4.558,1.809-.247-.145,1.811-3.106-3.744-2.245l.745-2.985c-3.004-.516-4.241,1.197-5.244,3.732l4.491.747c-5.368.78-9.053,6.864-14.24,7.491,2.091-1.219-3.42-4.101-3.738-3.734-.776,4.833,1.923,2.248,3.742,4.481-4.336-.468-2.69,2.218-4.502,3.422-1.119.744-2.796-2.016-2.25,1.825-1.86-.565-.744-3.934-.745-5.234l-.744,2.236c-3.845-1.454-5.858,4.672-3.753,6.421.646.537,6.078-.601,7.127,1.819,1.084-.586-.618-1.933-.231-2.82.066-.151,2.355-2.26,2.846-1.672.129.154-.075,2.124.34,3.025,3.127,6.792,7.833,9.36,10.826,13.901,1.298,1.97.61,4.165.98,5.202.183.512,1.28.258,1.34.352.312.494-1.372,1.312-1.361,1.859.014.667,2.74,2.941,3.348,3.681.336.409.111,1.495.439,1.77,1.116.937,2.952-1.265,1.321,2.404,3.569,1.339,6.439,3.724,9.977,5.416,9.558,4.573,12.433,2.317,21.97,1.41,3.199-.304,6.513.21,9.647-.089,7.676-.732,17.176-4.278,17.621-13.1.279-5.531-2.143-18.448-3.213-24.487-.808-4.559-2.37-15.376-4.388-18.831-1.048-1.794-12.189-12.788-13.373-11.719,1.849,4.259-10.621,5.524-11.623,5.184-3.977-1.351,5.223-4.889,3.368-6.676-2.029-1.955-5.067,4.599-5.632,5.989-1.702.095-6.522-3.875-4.41-5.299.538-.363,6.184-3.01,7.049-3.316,2.63-.929,7.084-1.842,9.737-1.125.36-3.06-3.966-7.558-6.659-7.891-1.899-.235-6.203,3.87-7.518,5.15-1.83,1.782-1.255-.498-1.828-1.466-.186-.314-1.228-.331-1.264-.734-.329-3.728,7.054-4.546,9.776-4.047,1.642-1.482-6.83-4.464-7.992-5.112-4.085-2.276-6.089-5.893-11.213-3.988-1.506.56-1.764,2.572-5.124,2.733-5.459.261-11.288-6.678-14.64-.376l2.994.749c-4.356-.371-2.4.206-2.986,2.461-.13.502-2.814.807-1.501,2.039.258.242,1.228-.746,1.814-.645,1.443.249.868,5.421,6.416-1.601.281,6.217-3.603,4.404-6.961,5.226-.683.167-.724,1.396-1.332,1.831-.697.499-3.85.463-1.773,1.931,1.531,1.082,3.815-.22,4.076.004-1.37,4.437-7.192,3.19-10.484,1.493-.091.726.105,1.552-.007,2.246q.282,2.785,0,0Z"/>
  <path class="cls-25" d="M925.874,190.215c.437-1.375-3.366-25.662-4.257-28.322-1.341-4.005-9.402-17.208-12.695-19.511-2.685-1.878-10.665-1.753-14.139-2.352l.368,1.502c-2.138-1.065-6.66.203-8.5,1.439-.473.318-2.894,4.618-3.49,5.52-.674,1.021-2.158-.269-.76,2.776-5.761-2.201-2.424,3.518-3.704,7.01.057.64,1.286.881,1.458,1.233.721,0,.721.498,0,1.498-1.878,1.51-3.978,3.965-5.246,5.242-3.012,6.999-3.551,7.933-1.618,2.802l-.631-.556c-.754.914-2.791,2.274-2.916,2.721-.486,1.729,1.958,4.457-.044,7.46-.358.538-1.234.719-1.536,1.052-.792,2.074-1.292,2.573-1.499,1.498-.678,1.111-.597.9-.749,2.247.78,2.483,3.283,1.569,3.618-.919,6.052-3.214,19.895-4.533,17.2,6.235,1.518.955,2.821-1.23,3.346-2.339,13.922,5.692,14.503-6.497,12.891-16.634,3.153,5.76,4.161-1.036,2.981-4.581,1.432-2.75.721-5.696-2.133-8.836-4.608-8.848-4.741-12.107-.4-9.778,1.345-1.249,2.599.08,3.763,3.987,5.595.919,9.574,28.435,8.996,29.936-2.185,1.493-2.201,3.062-.064,4.533-1.823,7.449-3.236,14.891-3.628,22.549-3.528,7.231-6.809,14.407-9.845,21.528-.779,1.737-2.027,6.118-2.643,8.218-5.93,20.204-6.859,43.951-19.829,61.053-.026,1.78,10.859,4.617,13.289,3.554,4.075-1.781,9.132-16.499,10.469-20.991,4.517-15.178,4.584-30.257,8.216-44.961,2.102-8.512,6.376-17.201,8.699-25.757,1.834-6.756,3.03-13.761,5.034-20.058Z"/>
  <path class="cls-25" d="M386.241,384.174l-3,1.506,2.999,2.247c-1.887,3.206-6.622.636-9.739.748-.175,1.678,2.741-.346,2.232,1.848-.788,3.398-4.834,1.162-3.742,5.894.121.525,2.829.612,1.507,1.983-.375.389-2.894-1.003-2.251,1.492,4.346-.081,2.001,2.235,2.256,5.256l1.487-.759c-1.299,2.941,1.512,3.969,1.539,4.221.144,1.323-1.075,9.734-1.902,10.768-.275.344-.948,1.004-1.122.743.481-2.249-1.035-9.345-2.754-10.556-1.117-.787-2.503.021-2.885-.096-.503-.154-.236-1.049-.73-1.149-3.719-.754-3.516,1.37-3.743,1.326-1.507-.291-1.52-2.048-2.628-2.252.139.823-.867,4.144-.448,4.528,1.003.921,2.783.111,2.685,1.451l-7.487-.738c2.196,4.281-2.055,3.231-5.043,4.715-.485.241-.475,1.608-1.304,1.782-.481.101-1.622-.69-1.888-.514-.661.439-.113,3.187-.259,3.582-.11.297-2.987,2.753-2.057,5.058-.333,1.649,1.224.789,2.014,1.348,4.1,2.9,12.641,5.021,17.954,5.057,1.421.009,1.017-1.597,1.463-1.601.998-.009,2.048,1.136,3.167,1.354,4.99.975,12.2,2.344,15.178-2.804l-4.493.738.004-3.737,1.855,1.488c.951-2.021,3.459-3.14,4.569-4.42.775-.894.803-2.107,1.356-2.775,2.532-3.055,6.485-5.618,4.961-10.022l2.238.744c-1.818-3.667.896-1.498,1.956-2.962.443-.611-.355-1.705-.276-1.891.233-.545,2.274-.829,1.327-3.386l1.48.763c-.442-3.374,6.902-7.802,1.147-8.308-4.452-.392-9.113,5.058-13.871,3.8-.339-.41,1.009-2.735,1.473-3.185,3.616-3.508,16.248-5.856,21.659-8.514,3.274-1.608,14.201-9.962,15.471-13.013.566-1.359,1.109-8.24.314-8.93-.656-.57-5.303.957-4.438-1.164,1.257-3.082,6.676-2.96,8.238-5.62-2.645-.05-5.731.305-8.237,1.123-2.737.893-4.49,2.996-6.555,3.935-2.883,1.311-7.697,2.397-10.259,3.999-.922.577-1.079,1.926-1.277,2.053-.282.182-2.712-1.913-5.458,2.428-2.079,3.288-4.889,9.099-6.785,12.721-.462.882.612,2.199-.788,2.932-1.95.44-1.151-3.201-.955-3.955.39-1.499,4.328-6.327,3.592-7.264-.095-.122-2.861-.909-2.998-.759-.201.222.25,1.707-.055,2.187-.136.214-2.951-1.031-2.956,3.053l-1.111-1.489c-.653.905-2.187,1.286-2.627,2.244,1.432,1.69,1.432,1.94,0,.749Z"/>
  <path class="cls-25" d="M1054.786,198.453c-1.156.076-5.171,1.768-7.324,2.037-1.53.191-3.067.444-4.601.142-1.264-5.689.23-3.605,3.179-4.531,2.091-.657,1.015-4.89,1.327-6.933.949-6.221,2.251-12.785,3.686-18.786.022-.883-7.479-2.154-6.018,1.86-.356.406-1.511-1.456-1.866-1.458-1.601-.007-4.785,10.594-5.401,12.537-3.047,9.609-4.971,19.568-7.344,29.357l-13.119,3.753.763,2.234c-.549.802-6.548-.086-5.996,3.003,27.526-5.159,56.109-5.654,83.181-12.74.204-1.194-1.035-.787-1.848-.731-15.732,1.081-33.939,6.267-50.245,7.471-1.016.075-4.642.641-4.859-.732,7.332-.58,14.212-3.273,21.445-4.413,1.728-.272,3.53.148,5.153-.094,12.354-1.837,24.796-3.187,37.106-5.236-.023-4.981.021-9.993-.004-14.974-9.024,1.553-17.834,4.048-26.839,5.752-7.292,1.38-13.412,2.024-20.375,2.482Z"/>
  <path class="cls-9" d="M902.64,229.157c3.185-7.099,9.458-14.137,11.498-21.869.674-2.554.1-6.01.599-9.084.437-2.69,3.217-12.723,2.946-14.274-.112-.639-1.442-.396-1.51-.485-.896-1.176.281-1.869,1.452-.712.01-1.11.14-2.24-.05-3.352-1.395-8.149-2.292-17.26-5.204-25.469-1.25-3.524-4.313-4.26-4.506-4.628-.938-1.793-.533-4.829-3.354-6.244l-.374,2.249-5.24-1.502c-.691,4.638.284,6.262,2.278,9.912,1.197,2.191.644,1.909,1.285,3.329.596,1.32,2.866,4.158,3.01,5.256s-.997,1.881-.99,2.811c.016,1.978.822,4.251.401,6.394l-2.248-10.477-1.484,2.988c-.976-5.661-2.377-14.679-9.751-14.217,1.62,2.022,4.03,1.964,5.564,4.543,3.321,5.586,7.95,26.771,2.75,31.087-3.55,2.947-7.342-1.101-11.309-.434l-.366,2.983c-2.255-1.402.499-4.041-.535-5.837-1.765-3.066-14.303-2.983-17.373-.809-1.038.735-1.362,2.162-1.945,2.55-.678.45-1.807-.472-2.267-.389-.828.863-1.217,1.815,0,2.247.217-.066.501.053.749,0,1.411,1.438,3.458,1.606,6.142.504,3.651,2.314,9.094,1.4,5.883-3.557,6.911-.895,7.481,4.561,3.956,9.187.031,2.168,2.763,4.311,4.255,2.104.823.334,1.435.237,1.985-.388,8.548,6.412,24.413,26.999,6.214,5.856-2.253-3.282-4.736-4.855-7.449-4.719-1.103,1.132-.834,1.873.132,2.895l11.551,12.438c4.507,4.27,6.109,8.644,4.806,13.124-.709.287-1.209,1.286-1.499,2.996-.027.676-1.468,1.892,0,2.996Z"/>
  <path class="cls-25" d="M1000.823,149.776c-1.958.9-4.621.772-6.743.744.504-.86.662-4.519-.384-4.495-1.925-.155-2.451,2.897-3.326,3.384-.468.26-2.484-.552-4.354.123-1.412.509-2.787,3.62-3.588,4.691-.584.782-2.193,1.018-2.528,2.036-.582,1.772.928,2.61,1.076,3.651.112.791-.538,1.981-.388,2.597.622,2.555,2.444,5.593,3.196,8.414,1.723,6.464,2.655,13.182,5.431,19.293l4.826-.782-1.09-11.944c8.896,10.314,9.249,24.774,2.755,36.445-1.621,2.913-4.19,5.409-5.371,8.48.463.422,11.579-3.086,12.033-3.518.864-.821,2.323-4.03,3.39-5.402,4.044-5.196,8.149-10.248,12.184-15.535,2.2-2.883,3.339-6.587,6.862-8.87-4.412-.645-2.992,2.587-8.241.378-.83,1.776-.13,1.36.749,2.988h-1.114s-19.331-18.179-19.331-18.179c-1.97-1.365-2.718.993-4.28,1.711,1.077-2.384-1.662-6.433-1.559-7.826.03-.412,1.555-.393,1.59-.833.143-1.791-4.613-7.48-3.779-8.565.198-.257,4.864,3.413,5.984,2.243,1.398-1.459-1.471-2.46-1.509-2.62-.416-1.732,2.823-3.431,3.4-5.639,2.083-.544,1.777,1.154,2.032,1.286,2.721,1.403,3.647-2.395,2.077-4.257Z"/>
  <path class="cls-25" d="M886.9,193.959c-.516-.319-2.921-.702-2.922-1.869,0-.27,1.538-1.582,1.831-2.609.829-2.914.619-6.769-2.626-7.902-2.666-.93-15.864-.368-13.514,2.644.317.406,6.913-4.193,8.986,1.491-6.052.665-3.608-.743-4.109-1.491-1.624-2.426-1.934.643-2.376.751-1.421.346-3.45.305-5.507.747-.771,3.05,1.795,1.639,2.998,3.744.666.524,2.072.137,2.248-.749.612.641.612,1.141,0,1.498-.333-1.177-1.571-.859-2.248,0-.254.205-1.518.048-1.919.687-.394.627.685,2.076.429,2.305-.135.121-2.523.048-3.581.501-1.309.56-1.322,2.338-2.411,2.879-.993.493-2.884.256-3.02.371-.124.105,1.337,2.888-.361,2.975-.447.023-7.109-3.525-8.245-3.458-.727.042-4.451,2.438-2.933,3.503,1.295.908,4.014,2.151,5.546,2.984l-1.493.734c1.624,3.331-.45,1.784-1.567,3.293-1.184,1.598.272,3.791-2.732,4.045-2.109.178-3.864-1.839-6.189-1.355-.296-1.36,1.258-.473,1.494-.748.098-.114-1.082-2.404-1.454-2.629-.612-.37-4.02.889-5.29.397,1.702,2.808,4.551,1.942,3.005,5.983.294.409,1.824-2.398,3.751-1.154.294.19,4.244,5.048,4.431,5.401,1.06,1.994-.889,4.387,3.797,4.749.329,1.375-1.504.252-1.502,1.121.002,1.016.828,2.051,1.871,1.861.513-.093,1.906-6.517,1.791-6.973-.381-1.505-4.867-2.929-4.404-5.364.453-2.383,3.006.072,3.487.148,1.292.206,3.254-.715,5.703-.341,3.152.481,1.059,1.656,2,2.409.247.198,5.793,2.135,6.046,1.884.793-.787-.199-2.146-1.335-2.804-.506-.294-1.55-.075-1.669-.193-.312-.31,2.277-3.907-2.234-4.11,1.874-.623.593-3.25.741-3.37,1.214-.982,2.99.366,2.255,2.245,2.783-1.186,4.485-1.155,7.492-.758-1.886-1.827-1.745-2.902-2.248-5.235q-1.441-1.203,0,0c1.417-.197,2.398-1.084,3.565-1.3,2.907-.537,10.875-.623,2.425-2.452,1.064-2.996,2.051-7.665,5.997-6.729l-.743,3.735,2.239-2.238c-.194,4.291,2.506,4.662-2.237,6.366l2.242,1.857c-6.958,2.149-7.729,9.02-4.498,14.985-1.421.677-3.673-1.678-4.506-1.175-1.18.713-3.202,5.523-2.978,7.17,1.917-.415,1.74-4.847,3.338-5.067,2.936-.403,6.227,5.294,7.144,4.314-.813-4.132-6.452-18.947,1.9-18.701,2.505.074,13.655,14.229,16.889,16.13-1.172,4.093-3.159,6.53-7.189,3.343-.631-.499-4.337-6.609-5.596-5.257,1.72,4.318,2.394,11.929,4.12,15.721.705,1.548,2.141-.847,2.617-1.489-3.754.327-1.42-.574-1.747-1.751-.727-2.618-2.002-5.165-1.99-7.992,1.661.208,1.045,2.128,1.61,2.849.054.069.998-.228,1.756.093,1.861.786,1.874,2.481,4.176.485,1.441-1.249,1.065-3.678,3.971-2.596,1.551.578,1.27,2.391,1.22,3.661,1.315-.644,1.081-2.049,1.499-2.996q-.728-3.286,0,0c.147-.333,1.322-.265,1.555-2.58.925-9.218-13.856-18.458-18.043-25.878,1.024-1.028.564-1.462-.749-.749Z"/>
  <path class="cls-25" d="M620.832,267.352l22.475-.386c2.741-2.631,4.905-6.284,7.469-9.013,1.035-1.101,7.836-5.521,6.776-7.065-2.45-1.206-5.226-1.992-7.649-3.225-2.114-1.075-9.684-5.877-10.983-6.138-1.336-.267-3.199.935-4.453.216-1.328-.761-5.097-7.86-6.656-9.418-2.335-2.335-2.632-.479-3.288,1.643-1.369,4.422-3.137,16.898-3.595,21.87-.351,3.814.051,7.698-.095,11.514Z"/>
  <path class="cls-25" d="M860.725,227.603c.04.066,1.003.014,1.429.599,9.764,13.379,4.216,29.169-5.378,40.911-.929,1.137-4.756,4.007-5.015,4.736-.615,1.727.918,4.283.65,6.533-.296,2.488-2.846,4.619-2.979,7.188l36.635-37.05c.257-2.538-17.19-21.689-19.579-25.673-.955.092-4.057-.961-4.235-.838-.161.111-1.775,3.189-1.529,3.596Z"/>
  <path class="cls-25" d="M865.144,242.597c-.331-3.874-1.645-8.102-3.761-11.37-.403-.623-5.931-6.374-6.352-6.552-2.419-1.027-.762,4.912-2.248,5.232-1.268.273-3.265-.927-4.16-1.822-.191-.192-3.111-4.11-3.203-4.365-.737-2.04.25-1.387-1.16-4.159-3.432-6.752-3.532-6.625-11.318-4.635l2.24-3.371c-3.835-.031-6.909,5.368-10.881,7.109-2.013,4.03,6.577,6.67,9.48,8.526,5.55,3.55,17.731,13.88,22.598,15.613,2.963,1.055,5.859.775,8.765-.206Z"/>
  <path class="cls-25" d="M1016.562,128.058c.699-5.036,9.346,1.804,8.987,2.236-.066.08-1.577-.098-1.494.351.855,4.665,6.423,5.84,8.908,2.194,1.52-2.23,6.369-15.386,6.068-17.817-.505-4.088-5.325-4.686-5.857-6.957-.454-1.936,1.906-6.52,2.874-8.457-3.102.474-3.134,3.625-4.86,5.237l-1.136-1.5c-1.332,2.274-2.137,6.158-3.242,8.043-.156.265-.878.266-1.248.206-.364,1.449,1.653-.024,1.488,1.479-3.647-.448-1.372.911-1.681,1.355-.385.553-3.651,3.627-3.823,4.096-.497,1.356.348,2.68.236,2.762-.122.088-1.631.789-2.431,1.267-.265.158-1.014-.469-1.173-.312-.408.403.396,1.62-.86,1.322l-1.503-3.737c.871,2.135-1.039,6.415-.803,7.763.13.744,1.5.406,1.549.47Z"/>
  <path class="cls-25" d="M1067.527,101.847c-.98-.372-5.062-10.721-6.743-8.982.468,3.174,1.371,6.915,1.528,10.074.434,8.762-.485,24.171-1.612,32.9-.636,4.927-3.464,9.626-3.662,14.681,1.83,1.012,1.323-1.507,1.896-1.543,1.077-.067,2.028.692,3.003,1.108.411.175,1.066-.361,1.092-.311,5.782-15.28,6.817-31.831,4.497-47.928Z"/>
  <path class="cls-25" d="M395.235,431.354c1.955.342,6.89,2.039,8.069.569l15.158-41.757c-3.127,2.797-8.756,6.164-11.11,9.486-4.561,6.438-7.14,18.082-11.785,25.668-1.672,2.731-4.398,2.205-.332,6.034-.973-.17-1.896-.79-2.894-.689-.841.5-2.732,8.346-2.331,8.861.851,1.092,4.098-.014,4.356.14.229.136,1.651,4.371,3.827,2.887.401-.274,3.276-7.661,3.787-8.947-2.48-.029-4.88-.495-6.745-2.251Z"/>
  <path class="cls-25" d="M346.711,380.629c-2.853,2.578-.258,8.344-.947,11.779-2.197.374-1.21-.53-1.586-1.742-.716-2.313-1.268-4.809-1.416-7.236-1.051-.178-1.014,1.26-1.306,2.046-1.368,3.687-2.358,7.551-.372,11.252.704,1.312,2.434,1.669,2.458,2.115.034.622-.827,1.736-.755,2.886.124,1.979,2.39,4.474,2.615,6.027.12.834-.788,6.966.801,7.176.904.119,4.358-.557,4.877-1.281,1.396-1.947.892-12.978-.756-14.932-1.943-2.303-7.104.776-6.059-4.805,1.618-.04,5.533.298,6.572-.934,2.197-2.608,2.263-18.124-4.127-12.349Z"/>
  <path class="cls-25" d="M329.288,423.868c1.851-.773,4.692-.967,5.597-3.015,2.475-5.598-3.33-22.137-4.865-28.44-4.733,4.197-2.646,12.448-2.164,18.269.134,1.618,1.118,3.254,1.251,4.752.214,2.418-1.244,5.485.182,8.433Z"/>
  <path class="cls-25" d="M341.264,418.61c-.055.072-1.052-.143-1.272.169-.898,1.276.03,4.934.601,6.52,2.289.119,6.31-.303,5.939-3.253-2.521-3.414-8.452-31.845-10.881-31.866-1.213-.01-.8,2.035-.845,2.628-.489,6.44,1.499,14.197,3.331,20.332.561,1.878,3.32,5.219,3.128,5.469Z"/>
  <path class="cls-25" d="M880.155,233.65l-6.76-9.73-1.48.364,1.872,4.12c-1.682-.974-2.691-3.51-3.942-4.508-1.604-1.279-3.968-1.511-5.394-2.639-3.174-2.511-5.355-9.162-11.274-7.074-.443,1.753,1.846,2.174,2.098,3.464.239,1.224-1.922,4.242-1.349,4.764,1.821,1.661,4.124-5.256,6.744-4.155,2.122.892,2.851,4.61,3.749,5.327.575.458,1.996-.37,3.273.386,4.039,2.392,8.248,10.613,11,14.332.762,1.029,2.789,2.182,3.479,3.11.814,1.094.046,4.018,3.966.85l-5.982-8.612q-1.081.745,0,0Z"/>
  <path class="cls-25" d="M979.837,164.004c-1.869-1.628-8.28,4.128-8.666,5.236-.247.71.326,1.679.257,1.879-.198.569-1.83.374-1.334,1.872,3.63-.514,7.63-.223,11.237-1.501-.047,1.909.228,4.41,2.246,5.245.767-4.431-4.269-8.964-3.74-12.731Z"/>
  <path class="cls-25" d="M1021.063,143.04c-1.288,10.588,10.48,15.682,17.227,21.713.82-.91-6.18-7.928-7.048-9.051-2.835-3.668-5.289-7.647-8.232-11.263-.638-.784-.017-1.868-1.947-1.4Z"/>
  <path class="cls-25" d="M533.149,347.479c-.687,4.213,3.183.978,2.058,3.933l-16.298,38.004c2.646-2.764,4.442-7.2,6.12-10.727,4.005-8.414,11.541-24.065,13.951-32.492.156-.545.541-1.628-.214-1.71-2.299,2.448-1.891,6.415-5.617,2.992Z"/>
  <path class="cls-25" d="M217.606,217.175c.197,1.112-.13,2.56-.007,3.744-7.92-8.598-8.243,3.513-3.002,4.939,4.107,1.117,9.901-3.823,5.62-7.946-1.118-1.077-2.028-.488-2.611-.737-.248-1.404-2.115-4.937-3.732-2.621,1.131,1.689,2.142,1.94,3.732,2.621Z"/>
  <path class="cls-25" d="M207.866,311.537c.336,1.905,1.215,6.31,2.183,7.73.728,1.068,2.309.74,2.883,1.426.456.545.394,2.124,1.022,3.084.46.702,4.091,5.955,4.392,5.727,2.318-4.955-2.125-10.497-5.494-13.975-.393-.406-1.674-.347-2.349-.997-1.188-1.143-.334-3.508-2.637-2.995Z"/>
  <path class="cls-25" d="M554.127,301.041c2.131,1.548,3.642-3.742,4.247-5.111,2.127-4.815,4.369-12.02,6.028-17.191.785-2.448,1.646-5.038,1.709-7.646l-11.984,29.948Z"/>
  <path class="cls-10" d="M1013.564,131.802c-.124.053-2.155,1.411-2.224,1.527-.564.95,1.465,2.443,1.461,2.592-.018.714-2.261.979-3.028,1.666-1.647,1.476-.646,3.035-.707,3.202,1.012-.469,1.982-1.037,2.998-1.498.58-.816,1.243-.983,2.248-.749,2.947,1.82,4.497-.291,3.787-3.259-.186-.781-4.26-1.462-4.537-3.48Z"/>
  <path class="cls-25" d="M883.257,213.535c.292-.459,7.591-1.589-.867-3.434-.796-.174-1.344.138-1.48.733-.55,2.405,2.198,8.388,2.287,11.259.077,2.51-2.24,3.346-.419,4.803,4.899-2.818-1.224-10.683.479-13.36Z"/>
  <path class="cls-14" d="M245.337,95.856c8.131.629,9.001,3.467,15.045,6.308,1.372.645,3.843.456,4.751,1.093,1.089.764-.642,3.721,4.188,5.33-2.312-1.87-1.868-5.316-4.203-6.659-1.682-.967-3.635-.648-5.327-1.417-3.979-1.808-9.491-8.017-14.453-4.655Z"/>
  <path class="cls-25" d="M641.34,333.533c-9.594,7.995-18.961,16.292-28.75,24.064l.368,1.112c6.953-4.929,13.087-10.985,19.597-16.331,12.793-10.505,25.948-20.994,38.883-31.577l1.1-3.012c-9.718,7.552-18.63,16.12-28.089,23.977-.979.813-2.208,1.016-3.109,1.767Z"/>
  <path class="cls-25" d="M1054.284,153.776c-.759.679-5.962,8.231-5.487,8.73,1.548-1.181,3.715-1.173,2.235-2.988,2.407-.425,3.024.736,3.012,2.988,5.611-3.458,1.087-4.911.785-6.455-.056-.285,3.336-5.747-.545-2.275Z"/>
  <path class="cls-25" d="M813.454,283.08c2.439,3.901-2.388,5.286-2.249,5.609,1.348,3.119,8.964.596,7.157-2.644l-4.908-2.965Z"/>
  <path class="cls-25" d="M457.437,423.113c.375.335,2.491-.727,2.251.745-.783-.172-8.444-.081-6.735,2.253,3.358-.014,4.97-.493,7.994-1.252,1.466-.368,2.751,1.719,1.741-3.246-2.674,2.139-1.827-1.618-4.113-.737-.687.265-1.555,1.863-1.137,2.236Z"/>
  <path class="cls-25" d="M497.313,412.511c.703.762,2.731-.61-.893,2.746-.118.558.769.504,1.108.362,1.369-.572,5.495-3.148,7.151-4.12.97-.57,1.888.134,1.476-1.858-1.609-1.125-3.142,2.849-4.491,1.493-.302-.303,1.106-3.459-2.546-2.167-.989.35-1.94,3.398-1.805,3.544Z"/>
  <path class="cls-25" d="M547.016,322.413c-.677.956-1.364-.065-.521,2.43-.082.163-1.054.191-1.299.754-2.46,5.655-4.405,12.178-6.055,18.133,2.123.384,1.231-.508,1.686-1.642,2.671-6.665,4.633-13.901,7.313-20.438-.628-1.12-.772.267-1.123.763Z"/>
  <path class="cls-25" d="M355.177,410.809c-.443.738-3.409,4.669-2.655,5.567l4.487-2.625c-3.64-1.936,1.031-3.353,3.743-1.869.648-2.51-1.802-1.086-2.241-1.505-.162-.155.654-3.549-.008-4.485-1.432,1.082-2.347,3.289-3.325,4.917Z"/>
  <path class="cls-18" d="M220.604,99.601c-.051-.017-.276-1.097-.694-.691-.151.147.112.995-.433,1.235-2.58,1.135-6.459,2.041-9.366,3.2-1.827,1.046-1.256,1.903.749,1.498.372-.323,8.041-2.598,9.389-2.991,2.112-.616.34-.536.354-2.251Z"/>
  <polygon class="cls-25" points="466.436 453.82 476.567 455.376 488.172 453.82 466.436 453.82"/>
  <path class="cls-29" d="M199.618,107.09c-.654.213-.645.463,0,.749,2.709-.042,8.475.515,10.485-1.161.748-.624.656-1.746.758-1.835l-.749-1.498c-4.018,1.602-5.246,3.162-10.493,3.744Z"/>
  <path class="cls-25" d="M345.772,439.599c2.01,3.919,6.645,1.057,10.485,2.231.248-1.44-1.538-.293-2.146-.87-.403-.382.29-1.997-.506-2.17-2.384-.517-5.394.873-7.834.809Z"/>
  <path class="cls-25" d="M553.385,304.043l-5.246,16.476c3.78-3.859,3.633-10.807,6.665-15.437l-1.418-1.04Z"/>
  <path class="cls-26" d="M202.616,328.757c1.607,3.641,3.673,9.608,7.495,11.233-.074-.227.078-.529,0-.749-.136-.383-1.179-1.181-1.499-2.247.146-.818.148-1.584-.749-1.498-1.187-1.532-3.793-5.67-4.497-7.489-.57-.744-.819-.494-.749.749Z"/>
  <path class="cls-25" d="M141.915,436.592c1.093-.133,1.264-3.26,1.398-4.209.514-3.632.743-7.827.835-11.51l-2.145,10.201-.089,5.518Z"/>
  <path class="cls-25" d="M258.831,250.882l9.349,1.54c1.544-.156,3.548-.644,4.138-2.289l-13.487.749Z"/>
  <rect class="cls-25" x="620.831" y="268.847" width="20.236" height=".749"/>
  <path class="cls-5" d="M199.618,107.09c-2.077.231-5.243-.464-6.96-.007-.3.08-3.654,3.811-4.282,4.5-.19.819.31.819,1.499,0,1.501-1.307,5.583-1.766,3.743-3.738,1.995-.036,4.006.024,6.001-.007v-.749Z"/>
  <path class="cls-25" d="M1007.568,143.036c-.41.451-2.146,2.131-2.998,2.996,3.858,2.509,8.191-1.488,2.998-2.996Z"/>
  <path class="cls-25" d="M596.85,182.731l1.113,6.73c2.42-2.7,3.926-6.844-1.113-6.73Z"/>
  <path class="cls-25" d="M470.183,420.132c-.07.095.699,2.15.788,2.228.391.339,5.416-1.807,6.706-1.498-.333-2.541-7.091-1.276-7.494-.73Z"/>
  <path class="cls-2" d="M195.121,308.538c.963,4.749,1.805,4.518,2.998,7.489.213.654.463.644.749,0-.743-1.969-2.661-6.291-2.998-7.489-.213-.654-.463-.644-.749,0Z"/>
  <path class="cls-25" d="M416.07,419.964c-.465.265-4.521-.126-2.844,1.642.251.265,4.377,1.642,5.239,1.502l-2.23-1.864c.443-1.346,3.629-.495,2.976-2.236-1.23-3.279-2.97.858-3.141.956Z"/>
  <path class="cls-25" d="M354.103,403.731c-.695.488-.585,4.822-.833,5.905l4.486-5.62c-.43-.673-3.317-.521-3.653-.285Z"/>
  <path class="cls-3" d="M188.376,111.583c-.522.573-1.81.951-2.28,1.819l-2.966,6.418c.503.172,1.253-.327,2.248-1.498,1.33-2.302,2.427-4.938,4.497-6.74h-1.499Z"/>
  <path class="cls-25" d="M270.074,331.757c.522,6.571,1.986,7.332,3.743.753l-3.743-.753Z"/>
  <path class="cls-1" d="M185.378,118.323c-1.473-.375-1.574.914-2.248,1.498-2.079,1.801-2.618,1.296-2.998,4.493,4.339-1.003,3.591-3.126,5.246-5.991Z"/>
  <path class="cls-25" d="M575.116,242.631l-.355,3.024c-1.152,1.55-2.235-1.148-4.145-.764.108,1.646,2.727,1.252,2.965,1.532.504.593-2.447,9.963-3.028,11.356-.143.343-2.079,3.172-2.168,3.405-.786,2.071-1.174,5.422-2.264,7.659,1.957.366,1.319-.372,1.841-1.489,3.488-7.465,5.238-16.131,8.576-23.678l-1.422-1.044Z"/>
  <path class="cls-25" d="M471.683,424.606c5.004-.842,11.961-1.952,15.739-5.227l-4.147,1.484c-.672.132.135-1.936-1.092-1.49-1.278,4.425-1.2-.847-1.877-2.244-2.954,1.559,1.196,4.018-.375,4.874-.943.513-7.193-.405-8.248,2.603Z"/>
  <path class="cls-25" d="M208.612,336.995c1.006-.686.266-7.231-.008-7.486-2.45-2.275-.936,5.334-.741,5.988.221.744.677,1.255.749,1.498Z"/>
  <path class="cls-25" d="M887.65,212.689c.364.925,4.443,5.352,5.242,4.482.532-2.744-2.964-4.46-5.242-4.482Z"/>
  <path class="cls-25" d="M425.968,423.873l9.739,2.232c-1.985-2.503-6.842-2.122-9.739-2.232Z"/>
  <path class="cls-4" d="M306.045,164.753c4.15-1.249,1.366,4.225,2.25,5.245.176.203,1.679-.163,2.246-.002-3.262-1.147.038-4.256-1.113-5.999-1.268-1.922-2.555.374-3.384.756Z"/>
  <path class="cls-25" d="M270.82,163.248c2.8-.058,6.187.914,7.494-2.232-2.281,1.022-6.222-.155-7.494,2.232Z"/>
  <path class="cls-25" d="M443.203,359.469l3.74,9.724c-.469-2.573-.95-5.836-1.903-8.233-.48-1.209.069-1.831-1.837-1.491Z"/>
  <path class="cls-25" d="M580.364,220.173c.099,2.312,2.685,1.855,2.615,4.487l1.879-3.737-4.494-.75Z"/>
  <path class="cls-25" d="M243.841,139.287c1.554-.088,5.699.403,5.239-2.239l-5.239,2.239Z"/>
  <path class="cls-25" d="M585.05,209.491c1.567,1.454,3.945-.188,2.055,3.183.86.219,1.942-.375,2.241-1.124.827-2.075-.292-1.477-1.088-1.925-1.554-.875-2.668-1.375-3.781-2.932-.975.362.187,2.439.573,2.797Z"/>
  <path class="cls-25" d="M592.358,185.722c1.733-1.166,4.076-2.777,3.736-5.238-1.092-1.193-4.559,3.692-3.736,5.238Z"/>
  <path class="cls-25" d="M1025.552,144.53l-2.608-5.231c-2.809,1.141,1.713,6.128,2.608,5.231Z"/>
  <path class="cls-25" d="M586.365,213.432c-.25.253-1.789,5.693-2.256,6.734,2,.383,1.302-.433,1.83-1.499.305-.615,3.255-8.097.425-5.235Z"/>
  <path class="cls-25" d="M578.871,232.903c-.255.247-2.501,6.471-2.259,6.731,1.716,1.835,3.194-5.973,3.734-6.372.103-.635-1.419-.414-1.475-.359Z"/>
  <polygon class="cls-25" points="239.345 102.6 239.345 106.337 240.847 104.098 242.331 105.588 239.345 102.6"/>
  <path class="cls-25" d="M886.154,246.385c-.008.864.517,3.581,1.859,2.985l4.875-5.236c-2.124,1.626-3.897,2.656-6.734,2.25Z"/>
  <path class="cls-25" d="M1010.13,184.697c.47.82,2.254,2.692,2.688.633.246-1.169-1.973-2.494-2.626-3.338-1.666,1.17-.784,1.444-.062,2.705Z"/>
  <path class="cls-24" d="M198.868,318.273c.706,1.811,1.503,3.487,2.248,5.242.638.502.888.003.749-1.498-.713-1.764-2.169-3.533-2.248-3.744-.213-.647-.463-.638-.749,0Z"/>
  <path class="cls-25" d="M200.36,297.308c-1.8.234-1.937,5.134-.367,5.223,1.771.1.152-4.495.367-5.223Z"/>
  <path class="cls-25" d="M1016.562,189.466c.274-.587,1.745-2.03,1.498-2.241-2.174.708-2.734.737-4.488-.755-.571,3.487,1.563,2.395,2.99,2.995Z"/>
  <path class="cls-15" d="M178.632,138.542c2.034-2.907,2.817-1.791,2.248-5.991l-2.248,5.991Z"/>
  <path class="cls-19" d="M751.243,194.708l2.501,2.413,6.493,1.332c-2.99-1.225-5.984-2.528-8.994-3.744Z"/>
  <path class="cls-25" d="M677.793,304.037c2.149.412,3.96-2.359,5.246-3.73-1.951.248-4.269,2.089-5.246,3.73Z"/>
  <path class="cls-12" d="M195.121,308.538h.749c-.445-1.585-.335-4.854-.749-6.74-.213-.654-.463-.644-.749,0,.253,2.462.22,4.132.749,6.74Z"/>
  <path class="cls-25" d="M648.337,201.166c-1.378.816-3.268.559-3.518,1.772,3.504-.098,5.178,1.238,4.486-2.984-1.15-.322-.605.997-.967,1.212Z"/>
  <path class="cls-11" d="M161.394,168.498l2.248,5.242c-.167-1.238.303-2.775-.104-4.021-.448-1.371-1.945-1.021-2.144-1.221Z"/>
  <path class="cls-25" d="M495.068,452.503c-.264.186-1.202,2.23-1.65,2.807,3.521.87,5.046-5.198,1.65-2.807Z"/>
  <path class="cls-25" d="M455.198,453.078c-.193,1.12,2.349.926,3.154.966.633.032,2.749.98,2.823-.599.079-1.69-5.184.193-5.977-.367Z"/>
  <path class="cls-20" d="M161.394,202.946c3.715,1.519,2.85-.803,2.248-3.744-.471,1.144-1.602,2.581-2.248,3.744Z"/>
  <path class="cls-25" d="M649.313,204.452c.386,1.654,2.491,1.124,3.742,1.488l-.003-2.994-3.739,1.506Z"/>
  <path class="cls-25" d="M250.665,332.424c2.877,1.748,2.817-2.247-.824-2.918-.261.322.694,2.839.824,2.918Z"/>
  <polygon class="cls-25" points="407.978 442.596 410.967 444.833 410.97 441.842 407.978 442.596"/>
  <path class="cls-25" d="M561.626,269.6v2.988c2.984-.017,2.946-2.989,0-2.988Z"/>
  <path class="cls-25" d="M269.32,325.013c-1.199-1.621-3.473-1.223-5.246-1.491.779,2.145,3.508,1.431,5.246,1.491Z"/>
  <path class="cls-25" d="M1027.812,174.488c1.678-.842,3.258-1.806,3.74-3.737l-3.74,3.737Z"/>
  <path class="cls-25" d="M201.87,316.779c-1.162,1.015,2.769,2.616,2.616,3.738,2.629-.648-1.746-4.498-2.616-3.738Z"/>
  <path class="cls-25" d="M676.077,216.967c-.081.127-2.739.538-1.279,1.702,1.88,1.499,3.823-2.525,1.866-3.737-.758.151-.13,1.319-.587,2.035Z"/>
  <path class="cls-25" d="M511.41,392.416c-.491,1.377,2.285,3.667,2.99,2.988.491-1.377-2.285-3.667-2.99-2.988Z"/>
  <path class="cls-25" d="M849.43,225.416c-.461.495.168,2.619,1.132,2.984,2.604.986.284-4.505-1.132-2.984Z"/>
  <path class="cls-25" d="M876.4,223.914c-.452-2.056-2.068-5.708-2.99-1.88l2.99,1.88Z"/>
  <path class="cls-25" d="M630.579,192.465c-.307,1.88.962,3.852,2.994,3.733-1.342-1.079-.821-4.217-2.994-3.733Z"/>
  <path class="cls-22" d="M927.373,190.215c1.684.533,2.544,1.711,2.998-1.498-1.165.265-2.31.309-2.998,1.498Z"/>
  <path class="cls-25" d="M683.043,222.424c0,1.088,4.264,2.43,4.488,2.236,1.722-1.493-3.921-2.387-4.488-2.236Z"/>
  <path class="cls-25" d="M1019.568,185.722c1.706-.658,2.312-2.809,2.233-4.489-1.4.44-2.29,3.147-2.233,4.489Z"/>
  <path class="cls-25" d="M1030.803,176.728c2.918.584,1.995-.846,2.998-2.981-1.815-.331-2.346,1.68-2.998,2.981Z"/>
  <path class="cls-25" d="M958.859,289.067c1.986-.842,2.379-3.318,2.233-5.238-1.235.768-1.772,3.851-2.233,5.238Z"/>
  <path class="cls-25" d="M441.705,422.371c-.147.147.075,1.639.005,2.243,6.315-1.279,1.125-3.376-.005-2.243Z"/>
  <path class="cls-25" d="M595.352,190.211l.004,3.745c.404.917,1.779-2.989,2.241-3.733l-2.245-.011Z"/>
  <path class="cls-25" d="M509.914,403.645c1.339-.812,2.892-2.878,2.983-4.493-1.55.737-3.021,2.71-2.983,4.493Z"/>
  <path class="cls-25" d="M667.307,407.389c2.317-.727.814-2.694.734-4.489h-.734s0,4.489,0,4.489Z"/>
  <path class="cls-25" d="M670.299,215.686c.929,3.139,3.919.203,2.993-.754-.476-.492-2.287.945-2.993.754Z"/>
  <path class="cls-25" d="M219.862,199.198c.721.151,1.636-3.59,1.489-3.727-.087-.08-1.637-.194-2.239-.762l.75,4.489Z"/>
  <path class="cls-25" d="M442.453,426.104l3.744-.363c-1.167-1.651-3.023-1.642-3.744.363Z"/>
  <path class="cls-25" d="M446.202,376.682c.106.107,2.735.283,2.992-.367l-2.987-1.876c.071.604-.154,2.092-.005,2.243Z"/>
  <path class="cls-25" d="M724.262,242.628c.889-.237,3.481,1.024,3.741.754,1.356-1.406-3.357-3.087-3.741-.754Z"/>
  <path class="cls-25" d="M734.008,244.879c1.284,1.131,3.367-.977,2.241-2.239-.717-.803-3.043,1.533-2.241,2.239Z"/>
  <path class="cls-25" d="M492.676,411.134l5.235-4.489c-1.35-.214-6.223,3.381-5.235,4.489Z"/>
  <path class="cls-16" d="M201.866,325.762c.383.86.371,2.138.749,2.996l.749-.749c-.237-.613-.182-1.615-.749-2.996-.685-.912-.934-.663-.749.749Z"/>
  <path class="cls-25" d="M1019.56,152.778l5.239,5.983c.071-1.267-4.346-6.805-5.239-5.983Z"/>
  <path class="cls-25" d="M859.914,222.424c1.76,2.446-2.395.692.379,2.974l1.873-2.973h-2.253Z"/>
  <path class="cls-25" d="M415.467,418.619l-.367-2.988c-2.016,1.553-2.516,2.771.367,2.988Z"/>
  <path class="cls-27" d="M201.117,323.515c.24.565.333,1.312.749,2.247l.749-.749c-.273-.664-.29-1.858-.749-2.996l-.749,1.498Z"/>
  <path class="cls-25" d="M516.656,382.68c-.886.886,1.488,2.974,2.994,2.235-.168-.99-2.362-2.867-2.994-2.235Z"/>
  <path class="cls-25" d="M1016.562,131.054c.836,1.268,2.272,1.63,3.744,1.494v-1.49c-1.235.055-2.511-.097-3.744-.004Z"/>
  <path class="cls-25" d="M447.7,423.108l2.99.757c1.031-4.386-3.67-1.344-2.99-.757Z"/>
  <path class="cls-25" d="M452.949,420.873c-.221.221-.483,2.842,1.109,2.235,2.716-1.036.195-3.538-1.109-2.235Z"/>
  <path class="cls-25" d="M741.503,246.385l.367,2.988c1.153-.807,1.305-1.607,1.124-2.988h-1.491Z"/>
  <path class="cls-25" d="M542.88,328.754c.255-.275.473-2.802-1.109-2.236-2.313.828.383,3.019,1.109,2.236Z"/>
  <path class="cls-25" d="M200.376,310.783c2.812-.286-.511-4.264-.751-3.739l.751,3.739Z"/>
  <path class="cls-25" d="M823.194,281.578c-.334-2.306-.748-1.189-2.991-2.246-.495,1.94.837,1.452,2.241,2.246.213.654.463.644.749,0Z"/>
  <path class="cls-9" d="M386.241,383.425c-.083.18.058.49,0,.749-.024.109.921,1.179,0,2.24,2.154.578,1.234-1.348,2.247-2.981l-2.248-.007Z"/>
  <path class="cls-25" d="M445.455,378.935c-1.426,1.395,1.899,1.695,2.986,2.243,1.213-1.419-2.64-2.581-2.986-2.243Z"/>
  <path class="cls-25" d="M963.356,289.816c1.693-.451,1.599-2.342,1.484-3.741-.434-.925-1.866,2.701-1.484,3.741Z"/>
  <path class="cls-25" d="M440.208,448.585c-1.033.479,3.263,2.063,4.489,1.483v-.733s-4.489-.75-4.489-.75Z"/>
  <path class="cls-25" d="M447.703,450.832v.733s4.489.75,4.489.75c1.033-.479-3.263-2.063-4.489-1.483Z"/>
  <path class="cls-25" d="M997.076,224.656l3.742-.75v-.733c-1.399-.115-3.293-.21-3.742,1.483Z"/>
  <path class="cls-21" d="M194.371,301.798h.749c-.149-.679-.559-3.027-1.124-3.003-1.368.742.336,2.627.375,3.003Z"/>
  <path class="cls-25" d="M526.396,360.967c.401,1.488,1.6,1.683,2.998,1.483-.401-1.488-1.6-1.683-2.998-1.483Z"/>
  <path class="cls-25" d="M139.666,444.08c.446.957,1.827-2.708,1.484-3.736-.446-.957-1.827,2.708-1.484,3.736Z"/>
  <path class="cls-25" d="M689.788,224.659h1.492s-.004-2.987-.004-2.987c-.41-.907-1.897,2.575-1.488,2.987Z"/>
  <path class="cls-25" d="M811.209,285.322c1.49-.4,1.685-1.599,1.484-2.995-1.49.4-1.685,1.599-1.484,2.995Z"/>
  <path class="cls-28" d="M822.444,281.578c-1.02,1.277-.922,2.479.742,2.995-.076-.967.144-2.055.007-2.995h-.749Z"/>
  <path class="cls-25" d="M513.655,387.926c.54,1.22,1.646,2.478,2.997,2.232-.54-1.22-1.646-2.478-2.997-2.232Z"/>
  <polygon class="cls-25" points="443.203 391.656 444.697 391.66 444.694 387.922 443.959 387.922 443.203 391.656"/>
  <path class="cls-25" d="M559.369,280.833c-.43-.43-2.23.623-2.23,1.119,0,2.073,3.362.012,2.23-1.119Z"/>
  <path class="cls-25" d="M673.297,306.3c-1.149,1.403,1.396,2.364,2.24.354.744-1.773-2.13-.489-2.24-.354Z"/>
  <path class="cls-25" d="M550.375,310.032c.43-.43-.624-2.228-1.12-2.228-2.074,0-.012,3.359,1.12,2.228Z"/>
  <path class="cls-25" d="M432.705,420.873c-.43-.43-2.23.623-2.23,1.119,0,2.073,3.362.012,2.23-1.119Z"/>
  <rect class="cls-25" x="246.84" y="169.25" width="2.241" height="1.49"/>
  <rect class="cls-25" x="440.961" y="405.896" width=".734" height="4.486"/>
  <path class="cls-25" d="M609.598,175.981h.732c1.992-5.798-2.715-2.276-.732,0Z"/>
  <path class="cls-6" d="M938.615,188.717c-.845.811-.73,1.813.379,2.244.637.248.175-.999.579-1.26.596-.385,1.193-.168,1.291-.235-.473-1.037-1.547-.563-2.248-.749Z"/>
  <path class="cls-25" d="M440.211,412.629c-.108.11-.873,2.891-.756,2.991,1.861,1.585,2.907-5.184.756-2.991Z"/>
  <path class="cls-25" d="M611.84,180.476c.182.184,2.269-.102,2.992-.004v-.734c-1.437.118-2.537.137-2.256-1.498l-.731-.003c.07.604-.153,2.09-.005,2.239Z"/>
  <path class="cls-25" d="M488.164,418.623c.201-1.397.006-2.595-1.484-2.995-.201,1.397-.006,2.595,1.484,2.995Z"/>
  <path class="cls-25" d="M829.19,255.375c-.362.305,1.318,1.971,2.244,1.486l-.004-2.243-2.241.756Z"/>
  <path class="cls-25" d="M410.981,416.376c1.44-.366,1.687-1.655,1.484-2.992-.362-.774-1.789,2.017-1.484,2.992Z"/>
  <path class="cls-25" d="M826.945,262.864v.732c1.58.249,1.924,1.254,2.99-.369l-2.99-.363Z"/>
  <path class="cls-13" d="M198.868,318.273h.749c-.274-.727-.467-1.498-.749-2.247h-.749c.234.582.423,1.409.749,2.247Z"/>
  <rect class="cls-25" x="667.307" y="396.16" width=".734" height="3.737"/>
  <path class="cls-25" d="M372.008,396.905l2.241-2.239c-1.367-.254-2.488.822-2.241,2.239Z"/>
  <path class="cls-25" d="M947.616,283.076c1.44-.366,1.687-1.655,1.484-2.992-.362-.774-1.789,2.017-1.484,2.992Z"/>
  <path class="cls-25" d="M521.153,375.933h1.491c.243-1.104-.33-1.557-1.124-2.239l-.367,2.239Z"/>
  <path class="cls-17" d="M1012.065,139.291c.735-.334,1.395-.758,2.248-.749-.807-.498-1.333-3.267-2.248.749Z"/>
  <path class="cls-25" d="M245.337,135.539l2.245.004v-1.49c-1.034-.23-1.993.403-2.245,1.486Z"/>
  <path class="cls-25" d="M446.204,370.702c-.774.361,2.019,1.788,2.994,1.483-.366-1.439-1.657-1.686-2.994-1.483Z"/>
  <path class="cls-25" d="M403.48,441.096c.366,1.439,1.657,1.686,2.994,1.483.774-.361-2.019-1.788-2.994-1.483Z"/>
  <path class="cls-23" d="M735.503,188.717c.496,1.253,1.339,1.976,2.248.749-.985-.41-1.744-.537-2.248-.749Z"/>
  <path class="cls-25" d="M889.153,235.9l.367,2.239c.794-.682,1.367-1.135,1.124-2.239h-1.491Z"/>
  <path class="cls-25" d="M530.147,354.223c-.231,1.033.404,1.991,1.488,2.243l.004-2.243h-1.491Z"/>
  <path class="cls-25" d="M627.577,192.469c.252,1.083,1.21,1.717,2.244,1.486v-1.49s-2.244.004-2.244.004Z"/>
  <path class="cls-25" d="M252.835,334.756c-.774.361,2.019,1.788,2.994,1.483-.366-1.439-1.657-1.686-2.994-1.483Z"/>
  <path class="cls-25" d="M1036.041,107.838v-2.992s-.733.001-.733.001c-.351,1.594-1.29,2.324.733,2.99Z"/>
  <path class="cls-25" d="M1024.061,172.995l.367,2.239c.794-.682,1.367-1.135,1.124-2.239h-1.491Z"/>
  <path class="cls-25" d="M653.813,206.694v1.49s2.244-.004,2.244-.004c-.252-1.083-1.21-1.717-2.244-1.486Z"/>
  <path class="cls-25" d="M321.785,177.484c-.143-.454.199-4.048-1.495-2.243-.531.566.708,2.221,1.495,2.243Z"/>
  <path class="cls-9" d="M340.522,215.677l1.493.744c-.145,3.197,1.01,7.161,3.746,8.987-.491-2.616-.707-4.886,0-7.484l-2.235,1.497-.757-5.242c-.763.375-1.491,1.184-2.248,1.498Z"/>
  <path class="cls-9" d="M880.155,159.511c.143.293-.096,1.052,0,1.498,2.365-1.902,6.555-2.466,6.757-7.103l-3.751,3.749-3.006,1.856Z"/>
  <path class="cls-9" d="M872.66,168.498l-.742,4.493c.725.954,2.741-5.857,2.99-6.74-.764.769-1.539,1.387-2.248,2.247Z"/>
  <path class="cls-8" d="M439.455,237.394l-3.004.753.009,1.489,4.493-.745c-.411-.342-.382-1.079-1.499-1.498Z"/>
  <path class="cls-25" d="M865.915,183.475c-1.139.206-1.801,2.013-2.248,2.988,1.213.471,1.715-.579,2.248-.741.056-.739-.083-1.515,0-2.247Z"/>
  <path class="cls-1" d="M869.662,189.466c-.115.064.115.656,0,.749.747.027,1.503-.04,2.248,0,1.99-.239,1.904-.928,0-1.498-1.295-.041-1.365.26-2.248.749Z"/>
  <path class="cls-9" d="M866.664,181.228c-.309,3.03,1.77.718,1.499-1.498-.439.484-1.213,1.03-1.499,1.498Z"/>
  <path class="cls-25" d="M41.587,480.901c-.213.189-.702,2.914-1.61,3.614,4.433,2.076,3.836-1.21,4.905-1.478.969-.243,5.227,2.886,7.087,2.227-2.184-1.245-1.312-3.616-1.498-3.732-.333-.208-1.288.503-1.845.363-1.48-.372-5.6-2.272-7.038-.994Z"/>
  <path class="cls-25" d="M19.004,377.43c2.254.499,1.623-2.363,2.972-2.232-.606,2.206,5.201,2.513,6.004.749-3.7.035-5.085-1.561-7.103-4.501-3.641,2.102-3.84,2.332-1.872,5.984Z"/>
  <path class="cls-25" d="M31.737,375.945c.548,2.341,7.762,1.399,8.236.733,2.206-3.097-7.188-1.007-8.236-.733Z"/>
  <path class="cls-9" d="M697.283,499.498c1.328,1.427,3.355-2.999,1.12-2.977-.771.008-1.584,2.479-1.12,2.977Z"/>
  <path class="cls-9" d="M703.279,490.519c-1.189,1.188,1.052,3.427,2.241,2.239s-1.052-3.427-2.241-2.239Z"/>
  <path class="cls-9" d="M709.275,484.528c-.804.716,1.534,3.041,2.241,2.239,1.132-1.283-.978-3.364-2.241-2.239Z"/>
  <path class="cls-9" d="M722.016,477.788c-.221.221-.483,2.842,1.109,2.235,2.716-1.036.195-3.538-1.109-2.235Z"/>
  <path class="cls-9" d="M700.281,493.514c-.255.275-.473,2.802,1.109,2.236,2.313-.828-.383-3.019-1.109-2.236Z"/>
  <path class="cls-9" d="M717.516,480.787c.252,1.083,1.21,1.717,2.244,1.486v-1.49s-2.244.004-2.244.004Z"/>
  <path class="cls-9" d="M713.772,483.03v1.49c1.105.243,1.558-.33,2.241-1.123l-2.241-.367Z"/>
  <path class="cls-9" d="M737.748,489.77c-.43-.43-2.23.623-2.23,1.119,0,2.073,3.362.012,2.23-1.119Z"/>
  <path class="cls-9" d="M736.253,493.518c.252,1.083,1.21,1.717,2.244,1.486v-1.49s-2.244.004-2.244.004Z"/>
  <path class="cls-9" d="M378.746,281.578c-.464-2.299-1.522-3.336-3.011-5.447-.72-1.022-2.079.243-.732-2.785-4.126.528-2.628-1.87-4.541-3.337-1.326-1.017-4.301-2.583-6.401-4.072-.897-.636-2.273-.491-3.082-1.06-1.357-.955-1.612-4.201-1.729-5.76-1.184-.318-.354,2.86-2.252,1.131-1.203-1.096-1.537-4.86-2.308-6.518-1.026-2.206-4.455-1.988-6.673-2.864,3.07-4.203-.103-2.016-2.291-2.518-1.256-.288-1.357-1.546-1.7-1.708-1.8-.851-6.194-2.227-7.248-4.385-.933-1.91,2.59-.369,2.241-1.858l-5.99.736c-.38-.348,2.075-4.898.006-5.233-.387,2.579-2.106,8.028-.609,10.335.371.572,5.761,2.532,6.863,3.248,2.484,1.615,10.658,9.038,12.216,11.377,1.117,1.677,1.92,5.773,3.942,7.688,1.65,1.563,8.022,3.696,8.279,4.084.127.192-1.167,3.107.036,4.448,1.598.092,2.329-1.689,4.016-1.53.977.092,1.805,3.523,2.715,3.777.536-1.045-.887-3.611-.741-3.734,2.266-1.896,2.246,5.278,2.611,5.984,1.234,2.387,1.73-2.865,3.384-1.491l-1.495,4.482c2.164.231,2.791-2.548,4.493-2.991Z"/>
  <path class="cls-9" d="M295.553,273.348c2.288,2.251,6.886,7.497,9.349,8.998.845.515,14.877,3.006,15.662,2.842.914-.192,1.381-1.663,2.309-1.815,1.449-.238,5.158,1.101,7.153.445.313-.398-4.134-2.843-1.123-2.97,1.36-.058,1.851,2.045,1.988,2.09.53.176,1.501-.921,2.005-.499.384.322-.455,1.746,1.248,1.391l1.127-1.882c-2.381.397-4.529-1.73-6.531-1.705-1.258.016-2.034,1.573-2.444,1.328-.194-.116-.071-2.405-3.432-2.179-1.443.097-1.812,1.731-3.326,1.433l.749-2.235c-2.513.141-4.877-2.099-5.263,1.49h-.719c-.15-2.92-1.773-1.424-2.992-1.886-5.11-1.936-10.26-4.129-15.76-4.844Z"/>
  <path class="cls-9" d="M406.477,252.372c.37-1.197,1.171-2.75,1.136-3.845-.125-3.901-7.069-5.055-7.114-3.274l2.223,4.123-5.231-3.744c.685,1.148-.298,6.557-.011,6.734,3.001,1.852,1.983-2.975,2.626-2.997l1.133,3.747.744-2.249c2.716-.628,1.001,2.436,1.5,3.003,1.074,1.218,1.249-1.539,2.994-1.498-.244.788-.05,1.682-.562,2.777-.161.344-3.771,5.195-4.045,5.391-.334.239-6.757-1.755-8.131-.309,2.071,5.087,6.056.252,10.481,2.262,1.463.664,4.344,6.796,5.996,5.602-.99-4.095,5.151-7.024,5.28-8.6.473-5.742-4.246-3.416-5.266-6.012,1.249-2.008,2.723-3.822,2.984-6.353-1.97.777-2.872,4.844-4.461,5.611-.753.364-1.63-.354-2.277-.369Z"/>
  <path class="cls-9" d="M340.72,286.278c-.464.461-.245,1.919-.916,2.477-.434.361-2.803-.318-4.228.16-1.134.381-1.02,1.565-1.423,1.533-.489-.038-1.487-.886-1.858-.641-.154.102-.295,2.33-1.53,3.369-1.076.905-2.622.725-3.508,1.362-2.188,1.572-11.301,14.916-12.543,17.793-.23.534-2.156,6.431-1.919,6.687.815.882,2.005-1.053,2.395-1.718,2.293-3.905,3.451-8.962,6.591-12.881,1.495-1.866,10.737-11.225,12.364-12.362,5.071-3.546,13.359-1.738,13.868-2.245,2.132-2.121-3.157-2.75-3.935-3.043-.257-.097-1.175-2.661-3.359-.49Z"/>
  <path class="cls-9" d="M285.813,302.543c2.216,2.366,3.158-7.75,3.32-8.305.209-.714,3.074-3.115,1.917-4.422-.122-.137-2.607,1.58-2.988-.737,2.948-.006.853-3.531,2.993-5.247-1.073-1.057-3.563,3.318-3.882,3.976-2.673,5.517-2.754,8.834-1.36,14.735Z"/>
  <path class="cls-9" d="M262.053,282.559c-.962.785-6.905,8.911-6.223,9.496,1.304,1.118,1.92-1.717,2.95-2.647,4.901-4.424,10.378-8.366,15.037-13.065-1.275-.243-2.179.346-3.247.867-1.133.553-7.633,4.627-8.518,5.349Z"/>
  <path class="cls-9" d="M464.938,256.109l19.481-2.979c-1.807.15-5.122-1.974-6.367-1.969-1.075.004-3.567,1.636-5.571,1.6-1.09-.019-1.74-1.124-2.531-1.008-1.046.152-4.449,3.088-5.012,4.356Z"/>
  <path class="cls-9" d="M374.249,241.874c6.415,2.705,10.825,8.192,16.481,11.995,1.731-2-7.514-9.163-8.964-10.148-1.708-1.16-6.321-4.735-7.517-1.847Z"/>
  <path class="cls-9" d="M371.255,253.128l2.979,1.865-2.979,1.865,10.488.751c-1.312-1.668.742-3.247.526-4.487-.537-3.084-2.437-.231-3.923-.026-2.266.312-4.784-.159-7.091.032Z"/>
  <path class="cls-9" d="M298.559,283.078c-.779,1.24-.737,5.983.07,6.657.595.496,4.555-.455,5.909.83.357-1.57-1.489-1.921-1.519-3.364-.004-.176,2.592-.712,1.52-2.626-.154-.274-4.873-.188-5.981-1.497Z"/>
  <path class="cls-9" d="M323.286,354.225l.747,2.234c-6.037-2.047-6.967-1.678-4.487,4.498l1.498-2.989c1.363-.379.281,1.611,1.116,1.502.734-.096.024-1.558.786-1.548.961.013,2.922,1.694,3.734.046.426-.864-1.468-2.046,1.098-2.622-1.079-1.464-2.912-1.166-4.493-1.121Z"/>
  <path class="cls-9" d="M289.403,279.895c-.431.676-3.758,1.356-4.87,1.927-.464.239-.581,1.691-1.283,1.793-.791.116-2.199-1.048-3.304-.417-.216.123-2.718,4.05-2.377,4.366,3.244.786,1.757-1.497,2.948-2.626.194-.184,4.021-.305,5.294-.74,3.481-1.191,6.352-2.646,4.487-6.361-1.357-.233-.418,1.311-.894,2.057Z"/>
  <path class="cls-9" d="M242.343,262.115l9.006,3.353,8.224.376c.106-1.19-1.576-.915-2.494-1.478-.5-.307-.517-1.344-.609-1.381-.189-.076-2.638.789-4.024.689-2.643-.191-6.748-2.601-10.104-1.558Z"/>
  <path class="cls-9" d="M369.744,247.878c-.356-.898.963-1.974.758-2.236-.34-.433-9.865-3.098-10.49-.375-.761,3.313,8.135-.67,9.732,2.61Z"/>
  <path class="cls-9" d="M389.249,262.107c-.543.391-1.819,5.167-.754,5.986.28.215,5.752-3.488,5.985-3.754.761-.866.547-1.386-.909-1.285-1.739.12-4.018-1.165-4.321-.947Z"/>
  <path class="cls-9" d="M278.508,320.656c-2.06,3.319,3.816.938,3.967.649.473-.905-.38-2.011-.073-3.045.414-1.395,3.586-5.353,1.902-6.722-1.307-1.063-3.67,5.183-4.067,6.054-1.03,2.257-.729,1.454-1.73,3.065Z"/>
  <path class="cls-9" d="M392.237,321.276c2.265,3.683-1.874,6.029-1.492,9.725,1.13.188.692-1.166,1.55-1.838.632-.495,2.023-.116,2.248-.853.341-1.12-.352-4.009-.706-5.308-.35-1.283.541-2.086-1.6-1.726Z"/>
  <path class="cls-9" d="M239.774,312.714c-.278.346-5.938,6.372-2.318,4.803,1.098-.476,6.119-7.886,6.374-9.728-1.703,1.182-2.749,3.296-4.056,4.925Z"/>
  <path class="cls-9" d="M390.109,242.034c-.388.223-1.117,2.487-2.367,2.471l5.237,4.122c-.673-3.4-3.909-2.607-.008-5.616-.664-.964-1.772-1.603-2.862-.976Z"/>
  <path class="cls-9" d="M370.505,232.905c.798.763-.298,8.479,1.859,7.477,1.843-.856.866-7.838-1.859-7.477Z"/>
  <path class="cls-9" d="M219.109,302.55c-1.571,1.713,5.627,5.899,6.734,6.736.796-.856-5.634-7.935-6.734-6.736Z"/>
  <path class="cls-9" d="M348.011,295.059c-2.566-1.223-1.95-.871-2.992,1.489,1.17.27,5.911-.783,5.981-1.865l-2.227-.374.736-3.741c-1.775.079-1.2,4.124-1.498,4.49Z"/>
  <path class="cls-9" d="M419.218,283.825c-3.549,1.264-8.36,2.016-11.242,4.486,1.766-.65,10.415-2.415,11.159-3.093.29-.265.053-.962.082-1.393Z"/>
  <path class="cls-9" d="M423.729,255.373c-.255.217-2.719,5.06-3.005,5.985,2.824-.8,2.647-3.966,5.985-3.003l-1.54-2.403c.332-.915-1.293-.705-1.44-.58Z"/>
  <path class="cls-9" d="M410.98,271.841c2.612-1.248,2.513-4.697,4.491-6.731-4.588.494-4.167,3.159-4.491,6.731Z"/>
  <path class="cls-9" d="M428.965,267.347c.378,2.465-.997,5.522-.76,7.838.144,1.409-.231,1.255,1.503,1.151-.015-2.61.44-5.12.309-7.711-.047-.915,1.508-1.485-1.051-1.279Z"/>
  <path class="cls-9" d="M389.99,315.283c1.733,5.653,3.425,4.682,3.741-.751l-3.741.751Z"/>
  <path class="cls-9" d="M387.736,269.588l-4.486-5.234c-.459,3.448.68,5.736,4.486,5.234Z"/>
  <polygon class="cls-9" points="413.973 274.097 416.595 277.819 417.719 273.347 413.973 274.097"/>
  <path class="cls-9" d="M388.492,233.655c.253,1.723,1.208,3.743.773,5.505-.216.876-1.843-.008-1.521,1.222,3.779.5,2.819-2.24,2.212-4.855-.289-1.244.867-2.247-1.464-1.872Z"/>
  <path class="cls-9" d="M415.47,262.864c-.428.451.624,2.194,1.121,2.221.466.025,4.001-2.359,3.374-3.722-.783.444-4.331,1.33-4.494,1.502Z"/>
  <path class="cls-9" d="M309.047,356.47c-.504,2.473,3.888,1.974,5.243,2.235l-5.243-2.235Z"/>
  <polygon class="cls-9" points="243.088 319.764 247.578 320.519 247.578 317.524 243.088 319.764"/>
  <path class="cls-9" d="M276.82,270.353c-.187,1.287,1.773.792,2.603.732.999-.073,4.541-.367,4.884-1.481l-7.487.75Z"/>
  <path class="cls-9" d="M246.087,304.786c2.442.62.895-1.598,1.932-2.318.556-.386,2.78-.485,2.561-1.041-2.515-2.997-3.779,1.536-4.493,3.359Z"/>
  <path class="cls-9" d="M360.016,211.184c-.313.523.964,4.373,2.234,4.492v-4.492s-2.234,0-2.234,0Z"/>
  <path class="cls-9" d="M199.618,279.331c.746-.047,1.506.05,2.25.005l-.005-3.753-2.241.008c-.859,1.981,1.388,1.171,1.512,1.868.261,1.468-1.339,1.376-1.516,1.872Z"/>
  <path class="cls-9" d="M389.244,292.821c-.161,1.411,1.511.572,2.278.406.958-.208,4.125-.923,4.459-1.905l-6.736,1.499Z"/>
  <path class="cls-9" d="M264.828,262.865l4.485,1.489c.693-3.849-1.773-1.658-4.485-1.489Z"/>
  <path class="cls-9" d="M271.574,286.829c.927,1.987,4.092,1.252,4.491-.751l-4.491.751Z"/>
  <path class="cls-9" d="M259.581,351.977c-1.115,1.415,2.596,2.642,2.99,2.239.883-.902-1.491-2.963-2.99-2.239Z"/>
  <path class="cls-9" d="M349.525,236.64c1.925-.427-.295-4.371-1.501-4.487l1.501,4.487Z"/>
  <path class="cls-9" d="M429.721,266.595c.098.104.491-.037.732.002l.757-3.733c-2.272-.551-2.622,2.53-1.489,3.732Z"/>
  <path class="cls-9" d="M361.517,308.539c-.092.075-.258,1.676-.758,2.238l2.241.756c.275-1.414.094-4.281-1.483-2.994Z"/>
  <path class="cls-9" d="M356.265,244.879c.262.274,2.667-.552,2.99-1.116-1.344-2.558-3.818.252-2.99,1.116Z"/>
  <path class="cls-9" d="M260.328,265.097l4.492-.365c-1.235-1.654-3.762-1.695-4.492.365Z"/>
  <path class="cls-9" d="M237.842,322.766c-1.048-.338-2.015-1.329-3.744-.741.248,2.111,2.734.792,3.744.741Z"/>
  <path class="cls-9" d="M254.773,314.198c-.368.4-1.142.292-1.176.346-1.342,2.142,3.021,2.05,2.224-1.51-1.099-.262-.479.545-1.049,1.164Z"/>
  <path class="cls-9" d="M371.258,247.878l3.736-.756v-.733c-1.955-.262-3.811-1.359-3.736,1.489Z"/>
  <path class="cls-9" d="M392.994,338.493c.928.012,2.387-2.872,2.241-2.988-1.078-.851-2.895,1.517-2.241,2.988Z"/>
  <path class="cls-9" d="M215.357,293.553c1.352.246,2.458-1.012,2.997-2.232-1.352-.246-2.458,1.012-2.997,2.232Z"/>
  <rect class="cls-9" x="311.296" y="289.82" width="2.241" height="1.49"/>
  <path class="cls-9" d="M367.5,223.911c.43-.43-.624-2.228-1.12-2.228-2.074,0-.012,3.359,1.12,2.228Z"/>
  <path class="cls-9" d="M276.072,283.834c-.105.11.038.49-.002.732,1.518.685,3.788-1.191,2.987-2.239-.102-.133-2.869,1.386-2.985,1.507Z"/>
  <path class="cls-9" d="M402.729,348.97c.122-.094-1.068-2.12-.757-2.984h-.732c-1.219,1.571.229,3.95,1.49,2.984Z"/>
  <path class="cls-9" d="M378.746,281.578c.125.618-.2,2.015.002,2.251,1.41,1.646,2.716-2.96-.002-2.251Z"/>
  <path class="cls-9" d="M204.119,281.574c.087.099,1.021-.034,1.494-.004.288-6.013-2.285-.896-1.494.004Z"/>
  <path class="cls-9" d="M201.87,271.855c-.066.075-.276,1.579.367,1.481l2.628-2.234c-.547-.067-2.892.638-2.994.754Z"/>
  <path class="cls-9" d="M244.591,315.281c-.43.43.624,2.228,1.12,2.228,2.074,0,.012-3.359-1.12-2.228Z"/>
  <path class="cls-9" d="M400.491,259.106c.106.105.49-.038.732.002.204-1.336-.044-2.626-1.484-2.992-.08.588.58,2.821.752,2.99Z"/>
  <rect class="cls-9" x="234.848" y="253.128" width="3.74" height=".734"/>
  <path class="cls-9" d="M453.699,241.891c-.231,1.033.404,1.991,1.488,2.243l.004-2.243h-1.491Z"/>
  <path class="cls-9" d="M427.47,241.135h.733c.249-1.578,1.255-1.922-.369-2.988l-.363,2.988Z"/>
  <path class="cls-9" d="M219.114,301.044h.733s0-2.99,0-2.99c-2.023.666-1.084,1.396-.733,2.99Z"/>
  <path class="cls-9" d="M265.573,351.98c.448.49.744,2.404,1.12,2.236,1.812-.808.726-2.476-1.12-2.236Z"/>
  <path class="cls-9" d="M210.111,301.798c.491-.44,2.412-.745,2.245-1.12-.809-1.811-2.467-.728-2.245,1.12Z"/>
  <path class="cls-9" d="M294.807,338.497c-.231,1.033.404,1.991,1.488,2.243l.004-2.243h-1.491Z"/>
  <path class="cls-9" d="M297.052,334.741c1.846.24,2.932-1.427,1.12-2.236-.377-.168-.672,1.745-1.12,2.236Z"/>
  <path class="cls-9" d="M359.269,309.281c.106.105.49-.038.732.002.204-1.336-.044-2.626-1.484-2.992-.08.588.58,2.821.752,2.99Z"/>
  <path class="cls-9" d="M234.849,279.341c-.105.106.038.49-.002.732,1.337.203,2.628-.044,2.994-1.483-.588-.08-2.823.579-2.992.751Z"/>
  <path class="cls-9" d="M253.586,205.206c.153,3.953,4.392,2.213,6.018,2.685,1.887.548,3.402,1.975,6.423,2.465,6.841,1.109,17.608-2.24,23.734-5.333,6.207-3.134.174-7.776-.212-11.512-.131-1.268.783-3.081.691-3.217-.145-.213-3.97-2.899-4.219-2.968-5.086-1.407-26.637,15.374-32.435,17.881Z"/>
  <path class="cls-9" d="M266.85,186.978c.366-.215.478-1.57,1.443-1.884,1.92-.625,4.716.408,6.535-.235.933-.33,1.238-1.708,2.074-2.459,1.347-1.21,3.362.161,2.135-5.136-.096-.414-2.241-.979-1.479-2.776-2.219.53-.618,2.531-1.108,3.717-1.062,2.572-4.653,2.141-6.799,2.978-2.076.81-6.633,3.469-8.224,3.769-.099.019-1.29-1.404-1.342-1.49-1.879-3.113,4.378-4.359,4.689-5.677.043-.816-.395-1.439-.814-2.081-.366-.562-2.17-2.068-2.874-2.708l-3.743,10.162c-.389,6.498,4.894,6.525,9.507,3.82Z"/>
  <path class="cls-9" d="M252.082,165.51c2.033,2.147,2.107,4.959,3.369,7.477,2.685-2.558.348-7.895-3.369-7.477Z"/>
  <path class="cls-9" d="M288.058,184.231l2.99,2.988c.19-1.494-1.381-3.147-2.99-2.988Z"/>
  <path class="cls-9" d="M221.353,155.767c-.24,1.48-1.159,3.284.742,3.744.382-1.772-.143-2.457-.742-3.744Z"/>
  <path class="cls-9" d="M880.16,152.024c-.099.111-.141,2.919-.007,2.986,3.126,1.582,1.022-3.75,5.254-2.242.358-3.133-2.044-.467-3.492-.209-.634.113-1.563-.75-1.755-.535Z"/>
  <path class="cls-9" d="M410.225,375.946c.118,3.932,2.571.109,2.803.043,3.409-.968,8.11-1.013,11.681-1.86.756-.179,2.185-.078,2-1.18l-2.817-.375c.617-1.011.994-1.339-.537-1.125-3.819.534-9.191,3.647-13.131,4.498Z"/>
  <path class="cls-9" d="M360.758,420.113c2.874.731,2.127-2.604,4.497-3.729-2.603-.552-3.385,2.085-4.497,3.729Z"/>
  <path class="cls-9" d="M402.737,374.439l2.241-2.239c-1.367-.254-2.488.822-2.241,2.239Z"/>
  <path class="cls-9" d="M1045.791,207.443c-.22.248.571,2.929,1.188,2.991.614.062,11.005-2.509,11.991-2.934.826-.355,2.727-1.518,1.808-2.304-.575-.493-12.921,2.292-14.987,2.247Z"/>
  <path class="cls-9" d="M1039.051,206.699v.733s3.739.004,3.739.004c.525-2.764-1.709-.695-3.739-.737Z"/>
  <path class="cls-9" d="M1045.042,210.427c-.976-2.789-4.23-.93-1.874.741l1.874-.741Z"/>
  <path class="cls-9" d="M1036.799,211.176h3.744c.864-.393-3.26-2.731-3.744,0Z"/>
  <path class="cls-25" d="M886.9,193.959c.174.108.407.513.749.749,6.001,4.137,10.366,11.008,15.7,16.153.944.911,2.465.83,2.887,1.266.639.661-.749,2.633,1.645,2.047.957-2.781-1.093-2.816-1.472-3.535-3.137-5.95-12.004-14.591-17.456-18.945-.476-.38-.662-.872-.568-1.474l-1.485,3.738Z"/>
  <path class="cls-25" d="M903.396,182.727l-.749-1.495c2.295,6.308-2.051,4.011-3.754,8.226,4.056-.293,5.205-4.988,8.24-7.111-1.373-1.352-2.517-.612-3.737.379Z"/>
  <path class="cls-9" d="M986.59,157.264l6.738-5.234c-1.925-1.02-7.783,4.138-6.738,5.234Z"/>
  <path class="cls-7" d="M871.911,188.717v1.498c4.946.267,1.944,2.271.004,4.871,3.103,1.004,3.435-4.321,6-5.246-1.873-.078-4.245-1.068-6.004-1.123Z"/>
  <path class="cls-9" d="M904.139,223.166c.916-4.808-2.859-8.253-5.989-11.233.421,2.659,2.951,4.389,4.163,6.691.837,1.589.687,3.48,1.825,4.542Z"/>
  <path class="cls-9" d="M883.042,188.611c-.202.294-2.294-.008-1.381,3.101.636.91,3.861-6.605,2.987-7.485-.424-.427-2.808.204-2.996,1.135-.226,1.12,1.702,2.796,1.391,3.249Z"/>
  <path class="cls-9" d="M850.929,208.941c-.37,2.265.569,1.194,1.82,1.511,1.579.4,3.284.716,4.922.724-1.011-2.727-4.379-1.764-6.742-2.235Z"/>
  <path class="cls-9" d="M892.911,208.182c.456.405,2.005.148,1.478-1.107-.326-.777-2.81-2.803-3.734-3.38.105.721,2.068,4.32,2.255,4.487Z"/>
  <path class="cls-9" d="M868.913,202.197c-.695-3.222-.538-3.767-2.248-.008.729-.047,1.533.107,2.248.008Z"/>
  <path class="cls-9" d="M860.764,241.055c.07.092,1.734.498,2.145.833.305-1.427-.962-2.019-1.87-2.992-.687.061-.472,1.9-.275,2.159Z"/>
  <path class="cls-9" d="M880.155,233.65c-.111-.207-1.871-1.046-2.248-.741.348,3.123,3.274,2.653,2.248.741Z"/>
  <path class="cls-25" d="M407.98,253.873c-.194,1.397-.003,2.591,1.488,2.992l.004-2.991h-1.491Z"/>
  <path class="cls-25" d="M267.821,204.444c4.848.908,2.294-.391,3.959-1.278,2.489-1.326,10.09-3.92,13.29-5.088.916-.334,3.118.796,2.879-1.365-.164-1.478-2.344-4.785-4.051-5.018-4.75-.649-16.479,7.064-19.821,10.881,1.44.096,3.483-.201,3.744,1.869-2.025-.379-4.771-1.708-3.74,1.116.694,1.9,4.065,1.464,3.74-1.116Z"/>
  <path class="cls-25" d="M275.32,203.707c-.061.067-.275,1.577.358,1.473,3.829-1.698,8.782-1.601,11.63-5.222-1.757.104-11.433,3.141-11.988,3.749Z"/>
  <path class="cls-25" d="M273.069,205.199c.533,3.693,5.469,3.797,6.738,1.106,1.029-2.182-5.984.195-6.738-1.106Z"/>
  <path class="cls-25" d="M264.07,208.184c1.066-1.03-2.812-3.203-2.987-2.991-.505,1.382,2.284,3.67,2.987,2.991Z"/>
</svg>